<?xml version="1.0" encoding="utf-8"?>
<!-- Generator: Adobe Illustrator 19.2.0, SVG Export Plug-In . SVG Version: 6.00 Build 0)  -->
<svg version="1.1" id="Layer_1" xmlns="http://www.w3.org/2000/svg" xmlns:xlink="http://www.w3.org/1999/xlink" x="0px" y="0px"
	 viewBox="0 0 221 125" style="enable-background:new 0 0 221 125;" xml:space="preserve">
<style type="text/css">
	.st0{fill:#F8991D;stroke:#231F20;stroke-width:2.8143;stroke-miterlimit:3.8637;}
	.st1{fill:#231F20;}
	.st2{fill-rule:evenodd;clip-rule:evenodd;fill:#FFFFFF;}
	.st3{fill:none;stroke:#231F20;stroke-width:0.2345;stroke-miterlimit:3.8637;}
	.st4{fill:#FFFFFF;stroke:#231F20;stroke-width:0.2345;stroke-miterlimit:3.8637;}
	.st5{fill-rule:evenodd;clip-rule:evenodd;fill:#FFFFFF;stroke:#231F20;stroke-width:0.2345;stroke-miterlimit:3.8637;}
	.st6{fill:#231F20;stroke:#231F20;stroke-width:0.8567;stroke-miterlimit:3.8637;}
	.st7{fill:#FFFFFF;stroke:#231F20;stroke-width:0.8567;stroke-miterlimit:3.8637;}
	.st8{fill:none;stroke:#F8991D;stroke-width:0.8567;stroke-miterlimit:3.8637;}
	.st9{fill:#231F20;stroke:#231F20;stroke-width:0.6255;stroke-miterlimit:3.8637;}
	.st10{fill:#F8991D;stroke:#F8991D;stroke-width:0.8567;stroke-miterlimit:3.8637;}
	.st11{fill:#F8991D;stroke:#F8991D;stroke-width:0.6255;stroke-miterlimit:3.8637;}
	.st12{fill:#F8991D;}
	.st13{fill:none;stroke:#231F20;stroke-width:3.4268;stroke-miterlimit:3.8637;}
	.st14{fill-rule:evenodd;clip-rule:evenodd;fill:#F8991D;}
	.st15{fill:none;stroke:#FFFFFF;stroke-width:0.3609;stroke-miterlimit:3.8637;}
	.st16{fill-rule:evenodd;clip-rule:evenodd;fill:#231F20;}
	.st17{fill:#F8991D;stroke:#FFFFFF;stroke-width:0.3609;stroke-miterlimit:3.8637;}
</style>
<g>
	<path class="st0" d="M60.3,39.9c0.8-0.3,1.6-0.8,1.6-0.8s0.8,0.4,1.6,0.8c0.9,0.4,1.9,0.7,2.7,0.7c1.3,0,3.2-0.8,4.3-1.5l4.4,4.4
		c0,0-0.4,0.3-0.6,0.5c-2.7,2.4-2.2,3.5-0.8,6.4c0.7,1.4,1.4,3,1.1,4.9c-0.4,2.6-1,4.4-3,6.2c-1.7,1.5-3,1.2-5,1.6
		c-1.7,0.3-3.2,0.9-4.6,1.7c0,0-0.4-0.3-0.8-0.5c-1.8-0.9-3.5-1.2-5.5-1.4c-1.1-0.1-2-0.3-3.2-1.4c-2-1.8-2.6-3.6-3-6.2
		c-0.6-3.5,2.6-6.3,2.2-8.6c-0.2-1.1-1.6-2.4-2.6-3.2l4.4-4.4c0,0,0.8,0.5,1.7,0.8c0.8,0.3,1.8,0.7,2.6,0.7
		C58.5,40.6,59.5,40.3,60.3,39.9L60.3,39.9z"/>
	<path class="st1" d="M73.9,64.4l-0.6,2.3H62.6l0.6-2.4c1.7-0.1,1.8-0.1,1.8-2V61h-4.8l-1.4,2c-0.3,0.4-0.4,0.6-0.4,0.9
		c0.1,0.1,1.3,0.6,1.4,0.6l-0.5,2.1h-8.3l0.6-2.3c1.4-0.2,1.5-0.2,2.5-1.6L67.1,44h5.3l-0.1,18.2c0,0,0,1.8,0,1.9
		C72.8,64.3,73.4,64.3,73.9,64.4L73.9,64.4z M67,48l-0.1,11.1h-7.8L67,48L67,48z M65,54.2l-2.1,3H65L65,54.2L65,54.2z"/>
	<path class="st1" d="M58.8,54.4h2.7l-2.6,3.7H48l0.6-2.4c2,0,2.2-0.3,2.8-2.5l3.4-13.8c0.1-0.5,0.2-0.7,0.2-0.9
		c0-0.2-0.1-0.3-0.1-0.3c-0.3-0.2-1.9-0.2-2.1-0.2l0.6-2.4h12.2L65,37.9c-2,0-2.2,0.3-2.8,2.5L58.8,54.4L58.8,54.4z"/>
	<path class="st2" d="M72.4,65.3l0.1-0.5c-1.3-0.2-1.4-0.4-1.3-2.9l0.1-17.2h-3.8L54.5,63c-1,1.4-1.5,1.7-2.5,1.9l-0.1,0.5h6.3
		l0.1-0.5c-0.9-0.3-1.1-0.6-1.1-1.1c0-0.5,0.2-1,0.6-1.6l1.7-2.4h6.3v2.1c0,2.1-0.5,2.8-2,2.9l-0.1,0.5H72.4L72.4,65.3z M60.8,57.9
		l5-7l-0.1,7H60.8L60.8,57.9z"/>
	<path class="st3" d="M72.4,65.3l0.1-0.5c-1.3-0.2-1.4-0.4-1.3-2.9l0.1-17.2h-3.8L54.5,63c-1,1.4-1.5,1.7-2.5,1.9l-0.1,0.5h6.3
		l0.1-0.5c-0.9-0.3-1.1-0.6-1.1-1.1c0-0.5,0.2-1,0.6-1.6l1.7-2.4h6.3v2.1c0,2.1-0.5,2.8-2,2.9l-0.1,0.5H72.4L72.4,65.3z M60.8,57.9
		l5-7l-0.1,7H60.8L60.8,57.9z"/>
	<path class="st4" d="M59.5,55.4h-2.1l3.8-15.2c0.6-2.4,1.3-3.2,3-3.2l0.1-0.5H54l-0.1,0.5c1.4,0.1,1.9,0.5,1.9,1.5
		c0,0.3,0,0.6-0.2,1.2l-3.4,13.8c-0.6,2.4-1.3,3.2-3,3.2l-0.1,0.5h9.1L59.5,55.4L59.5,55.4z"/>
	<path class="st1" d="M67.6,52l0.5-0.3c-0.9,1.6-1.7,2.8-2.8,3.6l1.6-4.4L67.6,52L67.6,52z M66.8,57.9H61l2.7-3.9
		c1.9-0.7,2.6-2.2,3.5-3.9h2.5L66.8,57.9L66.8,57.9z"/>
	<path class="st5" d="M62.9,56.7h3.3l2.2-5.9h-0.6c-1.1,2.1-2.1,3.2-3.5,3.7L62.9,56.7L62.9,56.7z"/>
	<path class="st6" d="M15.2,81.4c0,0-15.5-16.3-14.9-29C0.8,40.4,5.5,32,16,26c16.2-9.3,32,9,50.9,2.8c12.1-3.9,15.4-17.7,27.9-17
		c3.5,0.2,12.1,3.4,11.7,5.2c-0.3,1.3-10.6,2.8-12.1,8.3C93.3,29.4,97,35.9,97,35.9s-6.4-4.8-5.3-9.8c1.6-7.2,11.8-8.6,10.4-9.6
		c-0.6-0.4-7.2-2.2-9.1-2.1c-12,0.9-14,13.5-25.2,17.9C49.4,39.4,34,19.9,17.1,29.9c-8.3,5-11.4,11.6-13.1,21.1
		C2,63.2,15.2,81.4,15.2,81.4L15.2,81.4z"/>
	<path class="st7" d="M15.2,81.4c0,0-14.8-16.9-13.9-29.7c0.8-12,5.6-20.4,16-26.4c16.2-9.3,32.1,9.2,50.9,2.8
		c11.9-4,14.7-17.7,27.2-17c3.5,0.2,12.5,3,12,4.7c-0.3,1.3-9.9,3.4-11.7,8.8C94.2,28.8,97,35.9,97,35.9s-5.7-5.8-4.6-10.7
		c1.6-7.2,12.4-8.4,11-9.4c-0.6-0.4-7.2-2.2-9.1-2.1c-12,0.9-14,13.5-25.2,17.9c-18.5,7.1-33.9-12.4-50.7-2.4
		C10.1,34.2,7,40.8,5.4,50.3C3.3,62.4,15.2,81.4,15.2,81.4L15.2,81.4z"/>
	<path class="st8" d="M198.4,12.1L76.7,48.7c-0.8,0.3-0.8,0.7-0.5,1.4c0.6,1.1,1.5,3,1.8,5c0.2,2.1-0.2,4.1-0.6,5.3
		c-0.2,0.7,0.7,0.8,0.7,0.8L199.8,16l9.4-5.3L198.4,12.1L198.4,12.1z"/>
	<polygon class="st9" points="198.2,7.5 197.5,5.2 194.5,4.2 197.1,1 200.8,2.2 199.1,4.7 199.8,7 198.2,7.5 	"/>
	<polygon class="st9" points="203.9,19.9 204.6,22.2 207.6,23.2 205,26.4 201.3,25.2 203,22.7 202.3,20.4 203.9,19.9 	"/>
	<polygon class="st9" points="192.3,11.1 190.9,9.2 187.7,9.3 189,5.3 192.9,5.2 192.2,8.2 193.6,10 192.3,11.1 	"/>
	<polygon class="st9" points="206.5,6.6 206.6,4.2 209.2,2.4 205.8,0 202.5,2.2 204.9,4.1 204.8,6.5 206.5,6.6 	"/>
	<polygon class="st9" points="195.8,21 195.7,23.3 193.1,25.1 196.5,27.5 199.8,25.4 197.4,23.4 197.5,21 195.8,21 	"/>
	<polygon class="st9" points="209.9,16.3 211.4,18.1 214.5,18 213.2,22 209.3,22.1 210.1,19.1 208.6,17.3 209.9,16.3 	"/>
	<path class="st9" d="M203,19.1l8.3-8.7l-12.1-2.2l-8.6,5.8c0.8-2.9,3.6-5.1,8.3-6.6c6.1-2,12-0.7,13.2,2.9c1.2,3.6-2.9,8.1-9,10.1
		c-4.6,1.5-8.9,1.1-11.3-0.7L203,19.1L203,19.1z"/>
	<path class="st10" d="M15.2,81.4c0,0-14-18-12.7-31c1.2-12,5.6-20.4,16-26.4c16.2-9.3,32.1,9.2,50.9,2.8c11.9-4,14.7-17.7,27.2-17
		c3.5,0.2,12.8,3.5,12.4,5.2c-0.3,1.3-9.7,3.1-12.1,8.3C94.8,27.7,97,35.9,97,35.9s-4.5-7-3.4-12c1.6-7.2,12.4-8.4,11-9.4
		c-0.6-0.4-7.2-2.2-9.1-2.1c-12,0.9-14,13.5-25.2,17.9c-18.5,7.1-33.9-12.4-50.7-2.4C11.3,32.9,8.2,39.5,6.6,49
		C4.5,61.2,15.2,81.4,15.2,81.4L15.2,81.4z"/>
	<polygon class="st11" points="199.4,6.6 198.7,4.4 195.7,3.4 198.3,0.1 202,1.3 200.3,3.8 201,6.1 199.4,6.6 	"/>
	<polygon class="st11" points="205.1,19 205.8,21.3 208.8,22.3 206.2,25.5 202.5,24.4 204.2,21.8 203.5,19.5 205.1,19 	"/>
	<polygon class="st11" points="193.5,10.2 192.1,8.3 188.9,8.4 190.2,4.5 194.1,4.3 193.4,7.3 194.8,9.2 193.5,10.2 	"/>
	<polygon class="st11" points="207.7,5.7 207.8,3.3 210.4,1.5 207,-0.9 203.7,1.3 206.1,3.3 206,5.6 207.7,5.7 	"/>
	<polygon class="st11" points="197,20.1 196.9,22.4 194.3,24.2 197.7,26.6 201,24.5 198.6,22.5 198.7,20.1 197,20.1 	"/>
	<polygon class="st11" points="211.1,15.4 212.5,17.3 215.7,17.2 214.4,21.1 210.5,21.3 211.2,18.3 209.8,16.4 211.1,15.4 	"/>
	<path class="st11" d="M204.2,18.2l8.3-8.7l-12.1-2.2l-8.6,5.8c0.8-2.9,3.6-5.1,8.3-6.6c6.1-2,12-0.7,13.2,2.9
		c1.2,3.6-2.9,8.1-9,10.1c-4.6,1.5-8.9,1.1-11.3-0.7L204.2,18.2L204.2,18.2z"/>
	<path class="st1" d="M198.4,11.8L77.1,47.2c-0.8,0.3-0.8,0.7-0.4,1.4c0.6,1.1,1.6,3,1.8,5c0.3,2.1-0.2,4.1-0.5,5.3
		c-0.2,0.7,0.7,0.8,0.7,0.8l121.1-44.1l9.3-5.2L198.4,11.8L198.4,11.8z"/>
	<polygon class="st6" points="30,53.6 35.4,71.2 38.5,69.9 33.3,52.5 30,53.6 	"/>
	<path class="st8" d="M197.7,11.3L76,46.6c-0.8,0.2-0.8,0.7-0.5,1.4c0.6,1.1,1.5,3.1,1.8,5.1c0.2,2.1-0.2,4.1-0.6,5.3
		c-0.2,0.7,0.7,0.8,0.7,0.8l121.6-44l9.4-5L197.7,11.3L197.7,11.3z"/>
	<polygon class="st12" points="87.8,49.1 203.8,11.7 77.4,48.7 78,49.7 188.5,16.4 87.5,48.3 87.8,49.1 	"/>
	<polygon class="st12" points="79.4,57.2 203.6,11.8 95.9,47.8 96.3,48.9 189.8,16.6 79.6,56 79.4,57.2 	"/>
	<path class="st13" d="M13.3,107.8H218"/>
	<path class="st1" d="M22.7,121.6v-3.8h3.3c0.7,1.1,1.5,2.1,2.2,3.1l0.3,0.4c0.1,0.1,0.1,0.2,0.2,0.3h0.7l-2.4-3.4
		c1.4-0.4,3.3-0.7,3.3-2.6c0-1.5-0.6-2.2-3.1-2.2h-5.5v8.2H22.7L22.7,121.6z M24.6,121.7l0.5,0.6v1.2h-5.8c0,0,0-0.9,0.5-1.7v-8.5
		l-0.5-0.6v-1.2h8c3.1,0,5,1.2,5,4.1c0,1.8-1,2.9-2.2,3.6l1.6,2.2c-0.1,0-0.1,0-0.2-0.1l0.9,0.9v1.2h-5.9v-1.2l0.3-0.3
		c-0.6-0.8-1.1-1.6-1.7-2.3h-0.4V121.7L24.6,121.7z M26.9,113.7c1.5,0,2.4,0.8,2.4,2c0,1.2-0.9,2-2.4,2h-4.2v-4H26.9L26.9,113.7z
		 M26.9,115.6h-2.3v0.2h2.3c0.2,0,0.4,0,0.4,0v-0.1C27.2,115.6,27.1,115.6,26.9,115.6L26.9,115.6z"/>
	<path class="st1" d="M52,117.5c0,2.5-2.1,3.8-4.1,3.8c-2,0-4.1-1.3-4.1-3.8s2.1-3.8,4.1-3.8C49.9,113.8,52,115,52,117.5L52,117.5z
		 M50.1,117.5c0-1.1-0.9-1.9-2.2-1.9c-1.3,0-2.2,0.8-2.2,1.9c0,1.1,0.9,1.9,2.2,1.9C49.2,119.4,50.1,118.6,50.1,117.5L50.1,117.5z
		 M42.8,117.5c0,2.6,2.1,4.2,5,4.2c2.9,0,5-1.6,5-4.2c0-2.6-2.1-4.2-5-4.2C44.9,113.3,42.8,114.9,42.8,117.5L42.8,117.5z M41,117.5
		c0-4.1,3.4-6.1,6.9-6.1c3.6,0,6.9,2,6.9,6.1c0,4.1-3.4,6.1-6.9,6.1C44.3,123.6,41,121.6,41,117.5L41,117.5z"/>
	<path class="st1" d="M73.1,119.8h-6.3l3-8.1L73.1,119.8L73.1,119.8z M70.3,117.9l-0.4-1l-0.4,1H70.3L70.3,117.9z M66.2,121.6
		l0.1-0.2l0.5-1.4l0.2-0.6h5.9c0.2,0.5,0.3,1,0.5,1.5l0.2,0.5l1,0.1l-2-4.9l-0.9-2.3l-0.3-0.7l-0.1-0.2h-2.6l-0.1,0.2l-0.4,1l-1.1,3
		l-1.5,4H66.2L66.2,121.6z M68,122l0.3,0.3v1.2h-5.3v-1.2l0.7-0.9c0,0-0.1,0.1-0.2,0.1l1.8-4.6l1.1-3c0.1-0.3,0.3-0.7,0.4-0.9
		l-0.3-0.4v-1.2h6.9v1.2l-0.3,0.3l0.2,0.6l0.9,2.3l2.2,5.4c0,0.1,0,0.1,0.1,0.2c-0.1,0-0.3,0-0.4-0.1l0.9,0.9v1.2h-5.7v-1.2l0.3-0.3
		l-0.1-0.4l-0.1-0.3h-3.2L68,122L68,122z"/>
	<path class="st1" d="M88.5,113.4v8.6c0,0.9-0.7,1.2-1.4,1.3l0.8-0.8l-0.8-0.8h6.2c3,0,4.4-2,4.4-4.1c0-2.4-1.3-4.1-4.2-4.1H88.5
		L88.5,113.4z M86.6,113.3l-0.5-0.6v-1.2h7.3c4.1,0,6.1,2.7,6.1,6c0,3.1-2.2,6-6.3,6h-7.1c0,0,0-1.2,0.8-2c0,0.2-0.1,0.4-0.3,0.5
		V113.3L86.6,113.3z M92.9,113.8c2.6,0,3.8,1.6,3.8,3.7c0,2.1-1.2,3.7-3.8,3.7h-3.4v-7.4H92.9L92.9,113.8z M92.9,115.7h-1.5v3.7h1.5
		c1.5,0,1.9-0.7,1.9-1.8C94.8,116.3,94.4,115.7,92.9,115.7L92.9,115.7z"/>
	<path class="st1" d="M119.7,121.6l0-8.6c0-0.9,0.7-1.2,1.4-1.3l-0.8,0.8l0.8,0.8h-2.5v3.6h-6.9v-3.6h-1v8.2h1v-4.1h6.9v4.1H119.7
		L119.7,121.6z M121.5,121.7l0.5,0.6v1.2h-5.8c0,0,0-0.9,0.5-1.7v-2.4h-3.1v2.4l0.5,0.6v1.2h-5.8c0,0,0-0.9,0.5-1.7v-8.5l-0.5-0.6
		v-1.2h5.8c0,0,0,0.9-0.5,1.7v1.9h3.1v-1.9l-0.5-0.6v-1.2h5.8c0,0,0,1.2-0.8,2c0-0.2,0.1-0.4,0.3-0.5V121.7L121.5,121.7z"/>
	<path class="st1" d="M142.1,117.5c0,2.5-2.1,3.8-4.1,3.8c-2,0-4.1-1.3-4.1-3.8s2.1-3.8,4.1-3.8C140.1,113.8,142.1,115,142.1,117.5
		L142.1,117.5z M140.2,117.5c0-1.1-0.9-1.9-2.2-1.9c-1.3,0-2.2,0.8-2.2,1.9c0,1.1,0.9,1.9,2.2,1.9
		C139.4,119.4,140.2,118.6,140.2,117.5L140.2,117.5z M133,117.5c0,2.6,2.1,4.2,5,4.2c2.9,0,5-1.6,5-4.2c0-2.6-2.1-4.2-5-4.2
		C135.1,113.3,133,114.9,133,117.5L133,117.5z M131.1,117.5c0-4.1,3.4-6.1,6.9-6.1c3.6,0,6.9,2,6.9,6.1c0,4.1-3.4,6.1-6.9,6.1
		C134.5,123.6,131.1,121.6,131.1,117.5L131.1,117.5z"/>
	<path class="st1" d="M164.2,113.4v4.8c0,2.2-1.5,3-3.4,3c-1.9,0-3.4-0.8-3.4-3v-4.8h-1l0,4.8c0,2.6,1.6,3.5,4.4,3.5
		c2.7,0,4.3-0.9,4.3-3.5l0-4.8H164.2L164.2,113.4z M162.3,113.3l-0.5-0.6v-1.2h5.8c0,0,0,0.9-0.5,1.7v5c0,4.1-3.1,5.4-6.2,5.4
		c-3.2,0-6.2-1.3-6.2-5.4v-4.9l-0.5-0.6v-1.2h5.8c0,0,0,0.9-0.5,1.7v5c0,0.8,0.3,1.1,1.5,1.1c1.2,0,1.5-0.4,1.5-1.1L162.3,113.3
		L162.3,113.3z"/>
	<path class="st1" d="M178.7,119.4l1.2-0.4l-1.4,3.4l-0.6-1.3l0.2,0.1l-0.9,0.2c0.3-0.3,0.7-0.5,1-0.5c0.2,0,0.4,0,0.5,0.1l0.4,0.1
		c1.4,0.5,2.7,0.7,4.2,0.7c3.9,0,4.5-1.6,4.5-2.5c0-3.6-7.9-0.9-7.9-4c0-1.6,2-1.8,3.2-1.8c1,0,4.9,0.2,4.9,2v0.2l-0.4-0.7l-1.1,0.4
		l1.3-2.7l0.5,1.2l0.9-0.2c-0.2,0.2-0.5,0.6-1.2,0.6c-0.2,0-0.3,0-0.4-0.1l-0.4-0.1c-1.4-0.4-2.7-0.6-4.2-0.6
		c-2.6,0-3.7,1.2-3.7,2.3c0,2.8,7.9,0.7,7.9,3.5c0,2-2.3,2.3-3.7,2.3c-1.1,0-5-0.5-5-2.3c0-0.3,0-0.6,0.1-0.8L178.7,119.4
		L178.7,119.4z M180,118.9c0-0.1,0-0.1,0-0.2c0.8,0.5,2.3,0.8,3.2,0.8c0.5,0,0.9,0,1.2-0.1c-2.5-0.3-7.3-0.2-7.3-3.8
		c0-2.7,2.6-4.2,5.6-4.2c1.6,0,3.1,0.3,4.6,0.7l0.3,0.1l0.4-0.4l1.8,0.7l-2.2,4.5l-1.6-0.8v-0.4c-0.9-0.3-2.1-0.5-3-0.5
		c-0.8,0-1.2,0.1-1.4,0.2c0-0.1,0-0.2,0.1-0.2c-0.1-0.1-0.2-0.2-0.2-0.4c1,0.5,4.3,0,6.4,1.3c1,0.6,1.7,1.6,1.7,3.1
		c0,2.4-1.9,4.4-6.3,4.4c-1.7,0-3.3-0.3-4.8-0.8l-0.1-0.1l-0.7,0.2l-1.3-0.3l2.2-5.4C178.5,117.3,179.5,117.8,180,118.9L180,118.9z"
		/>
	<path class="st1" d="M206.4,117.5v-1.6l0.9,0.9h-0.2l0.9-0.7c-0.1,0.6-0.6,1.2-1.5,1.2H202v-3.5h7.1c0.9,0,1.2,0.6,1.3,1.4
		l-0.8-0.7l-0.8,0.8v-3.3l0.8,0.8l0.8-0.7c-0.1,0.7-0.4,1.4-1.3,1.4H201v8.2h7.7v-2l0.8,0.8l0.8-0.7c-0.1,0.7-0.4,1.4-1.3,1.4H202
		v-3.7H206.4L206.4,117.5z M206.4,119.3h2.2l0.1-0.6h2v5.2h-1.2l-0.5-0.4l-10.4,0c0,0,0-0.9,0.5-1.7v-8.5l-0.5-0.6v-1.2h10l0.1-0.5
		h2v5.2c0,0-0.9,0-1.7-0.5h-6l0.9-0.9v0.6l2.6,0c-0.1,0-0.1,0.1-0.2,0.1c0,0.1-0.1,0.1-0.1,0.2l0.9-0.7h1.2v4.9h-1.2l-0.9-0.7
		C206.2,119.1,206.3,119.2,206.4,119.3L206.4,119.3L206.4,119.3z"/>
	<path class="st1" d="M22.2,121.1v-3.8h3.3c0.7,1.1,1.5,2.1,2.2,3.1l0.3,0.4c0.1,0.1,0.1,0.2,0.2,0.3h0.7l-2.4-3.4
		c1.4-0.4,3.3-0.7,3.3-2.6c0-1.5-0.6-2.2-3.1-2.2h-5.5v8.2H22.2L22.2,121.1z M24.1,121.3l0.5,0.6v1.2h-5.8c0,0,0-0.9,0.5-1.7v-8.5
		l-0.5-0.6v-1.2h8c3.1,0,5,1.2,5,4.1c0,1.8-1,2.9-2.2,3.6L31,121c-0.1,0-0.1,0-0.2-0.1l0.9,0.9v1.2h-5.9v-1.2l0.3-0.3
		c-0.6-0.8-1.1-1.6-1.7-2.3h-0.4V121.3L24.1,121.3z M26.3,113.2c1.5,0,2.4,0.8,2.4,2c0,1.2-0.9,2-2.4,2h-4.2v-4H26.3L26.3,113.2z
		 M26.3,115.1h-2.3v0.2h2.3c0.2,0,0.4,0,0.4,0v-0.1C26.7,115.1,26.6,115.1,26.3,115.1L26.3,115.1z"/>
	<path class="st1" d="M51.4,117c0,2.5-2.1,3.8-4.1,3.8c-2,0-4.1-1.3-4.1-3.8c0-2.5,2.1-3.8,4.1-3.8C49.4,113.3,51.4,114.6,51.4,117
		L51.4,117z M49.5,117c0-1.1-0.9-1.9-2.2-1.9c-1.3,0-2.2,0.8-2.2,1.9c0,1.1,0.9,1.9,2.2,1.9C48.7,118.9,49.5,118.2,49.5,117
		L49.5,117z M42.3,117c0,2.6,2.1,4.2,5,4.2c2.9,0,5-1.6,5-4.2c0-2.6-2.1-4.2-5-4.2C44.4,112.8,42.3,114.4,42.3,117L42.3,117z
		 M40.4,117c0-4.1,3.4-6.1,6.9-6.1c3.6,0,6.9,2,6.9,6.1c0,4.1-3.4,6.1-6.9,6.1C43.8,123.1,40.4,121.1,40.4,117L40.4,117z"/>
	<path class="st1" d="M72.6,119.3h-6.3l3-8.1L72.6,119.3L72.6,119.3z M69.8,117.4l-0.4-1l-0.4,1H69.8L69.8,117.4z M65.7,121.1
		l0.1-0.2l0.5-1.4l0.2-0.6h5.9c0.2,0.5,0.3,1,0.5,1.5l0.2,0.5l1,0.1l-2-4.9l-0.9-2.3l-0.3-0.7l-0.1-0.2h-2.6l-0.1,0.2l-0.4,1l-1.1,3
		l-1.5,4H65.7L65.7,121.1z M67.5,121.5l0.3,0.3v1.2h-5.3v-1.2l0.7-0.9c0,0-0.1,0.1-0.2,0.1l1.8-4.6l1.1-3c0.1-0.3,0.3-0.7,0.4-0.9
		l-0.3-0.4v-1.2H73v1.2l-0.3,0.3l0.2,0.6l0.9,2.3l2.2,5.4c0,0.1,0,0.1,0.1,0.2c-0.1,0-0.3,0-0.4-0.1l0.9,0.9v1.2H71v-1.2l0.3-0.3
		l-0.1-0.4l-0.1-0.3h-3.2L67.5,121.5L67.5,121.5z"/>
	<path class="st1" d="M88,112.9l0,8.6c0,0.9-0.7,1.2-1.4,1.3l0.8-0.8l-0.8-0.8h6.2c3,0,4.4-2,4.4-4.1c0-2.4-1.3-4.1-4.2-4.1H88
		L88,112.9z M86.1,112.8l-0.5-0.6v-1.2h7.3c4.1,0,6.1,2.7,6.1,6c0,3.1-2.2,6-6.3,6h-7.1c0,0,0-1.2,0.8-2c0,0.2-0.1,0.4-0.3,0.5
		L86.1,112.8L86.1,112.8z M92.4,113.3c2.6,0,3.8,1.6,3.8,3.7c0,2.1-1.2,3.7-3.8,3.7H89v-7.4H92.4L92.4,113.3z M92.4,115.2h-1.5v3.7
		h1.5c1.5,0,1.9-0.7,1.9-1.8C94.3,115.9,93.8,115.2,92.4,115.2L92.4,115.2z"/>
	<path class="st1" d="M119.1,121.1v-8.6c0-0.9,0.7-1.2,1.4-1.3l-0.8,0.8l0.8,0.8h-2.5v3.6h-6.9v-3.6h-1v8.2h1V117h6.9v4.1H119.1
		L119.1,121.1z M121,121.3l0.5,0.6v1.2h-5.8c0,0,0-0.9,0.5-1.7v-2.4h-3.1v2.4l0.5,0.6v1.2h-5.8c0,0,0-0.9,0.5-1.7v-8.5l-0.5-0.6
		v-1.2h5.8c0,0,0,0.9-0.5,1.7v1.9h3.1v-1.9l-0.5-0.6v-1.2h5.8c0,0,0,1.2-0.8,2c0-0.2,0.1-0.4,0.3-0.5L121,121.3L121,121.3z"/>
	<path class="st1" d="M141.6,117c0,2.5-2.1,3.8-4.1,3.8c-2,0-4.1-1.3-4.1-3.8c0-2.5,2.1-3.8,4.1-3.8
		C139.5,113.3,141.6,114.6,141.6,117L141.6,117z M139.7,117c0-1.1-0.9-1.9-2.2-1.9c-1.3,0-2.2,0.8-2.2,1.9c0,1.1,0.9,1.9,2.2,1.9
		C138.8,118.9,139.7,118.2,139.7,117L139.7,117z M132.5,117c0,2.6,2.1,4.2,5,4.2c2.9,0,5-1.6,5-4.2c0-2.6-2.1-4.2-5-4.2
		C134.6,112.8,132.5,114.4,132.5,117L132.5,117z M130.6,117c0-4.1,3.4-6.1,6.9-6.1c3.6,0,6.9,2,6.9,6.1c0,4.1-3.4,6.1-6.9,6.1
		C133.9,123.1,130.6,121.1,130.6,117L130.6,117z"/>
	<path class="st1" d="M163.7,112.9l0,4.8c0,2.2-1.5,3-3.4,3c-1.9,0-3.4-0.8-3.4-3v-4.8h-1v4.8c0,2.6,1.6,3.5,4.4,3.5
		c2.7,0,4.3-0.9,4.3-3.5v-4.8H163.7L163.7,112.9z M161.8,112.8l-0.5-0.6v-1.2h5.8c0,0,0,0.9-0.5,1.7v5c0,4.1-3.1,5.4-6.2,5.4
		c-3.2,0-6.2-1.3-6.2-5.4v-4.9l-0.5-0.6v-1.2h5.8c0,0,0,0.9-0.5,1.7v5c0,0.8,0.3,1.1,1.5,1.1c1.2,0,1.5-0.4,1.5-1.1L161.8,112.8
		L161.8,112.8z"/>
	<path class="st1" d="M178.1,118.9l1.2-0.4l-1.4,3.4l-0.6-1.3l0.2,0.1l-0.9,0.2c0.3-0.3,0.7-0.5,1-0.5c0.2,0,0.4,0,0.5,0.1l0.4,0.1
		c1.4,0.5,2.7,0.7,4.2,0.7c3.9,0,4.5-1.6,4.5-2.5c0-3.6-7.9-0.9-7.9-4c0-1.6,2-1.8,3.2-1.8c1,0,4.9,0.2,4.9,2v0.2l-0.4-0.7l-1.1,0.4
		l1.3-2.7l0.5,1.2l0.9-0.2c-0.2,0.2-0.5,0.6-1.2,0.6c-0.2,0-0.3,0-0.4-0.1l-0.4-0.1c-1.4-0.4-2.7-0.6-4.2-0.6
		c-2.6,0-3.7,1.2-3.7,2.3c0,2.8,7.9,0.7,7.9,3.5c0,2-2.3,2.3-3.7,2.3c-1.1,0-5-0.5-5-2.3c0-0.3,0-0.6,0.1-0.8L178.1,118.9
		L178.1,118.9z M179.4,118.4c0-0.1,0-0.1,0-0.2c0.8,0.5,2.3,0.8,3.2,0.8c0.5,0,0.9,0,1.2-0.1c-2.5-0.3-7.3-0.2-7.3-3.8
		c0-2.7,2.6-4.2,5.6-4.2c1.6,0,3.1,0.3,4.6,0.7l0.3,0.1l0.4-0.4l1.8,0.7l-2.2,4.5l-1.6-0.8v-0.4c-0.9-0.3-2.1-0.5-3-0.5
		c-0.8,0-1.2,0.1-1.4,0.2c0-0.1,0-0.2,0.1-0.2c-0.1-0.1-0.2-0.2-0.2-0.4c1,0.5,4.3,0,6.4,1.3c1,0.6,1.7,1.6,1.7,3.1
		c0,2.4-1.9,4.4-6.3,4.4c-1.7,0-3.3-0.3-4.8-0.8l-0.1-0.1l-0.7,0.2l-1.3-0.3l2.2-5.4C177.9,116.8,178.9,117.3,179.4,118.4
		L179.4,118.4z"/>
	<path class="st1" d="M205.8,117v-1.6l0.9,0.9h-0.2l0.9-0.7c-0.1,0.6-0.6,1.2-1.5,1.2h-4.5v-3.5h7.1c0.9,0,1.2,0.6,1.3,1.4L209,114
		l-0.8,0.8v-3.3l0.8,0.8l0.8-0.7c-0.1,0.7-0.4,1.4-1.3,1.4h-8.1v8.2h7.7v-2l0.8,0.8l0.8-0.7c-0.1,0.7-0.4,1.4-1.3,1.4h-7.1V117
		L205.8,117L205.8,117z M205.8,118.8h2.2l0.1-0.6h2v5.2h-1.2l-0.5-0.4H198c0,0,0-0.9,0.5-1.7v-8.5l-0.5-0.6v-1.2h10l0.1-0.5h2v5.2
		c0,0-0.9,0-1.7-0.5h-6l0.9-0.9v0.6l2.6,0c-0.1,0-0.1,0.1-0.2,0.1c0,0.1-0.1,0.1-0.1,0.2l0.9-0.7h1.2v4.9h-1.2l-0.9-0.7
		C205.7,118.7,205.7,118.7,205.8,118.8L205.8,118.8L205.8,118.8z"/>
	<path class="st14" d="M23.1,118.3H25c0.2,0.4,2.3,3,2.3,3.2c0,0.2-0.2,0.3-0.4,0.3v0.2h4v-0.2c-0.2,0-0.4-0.1-0.6-0.3l-2.3-3.2
		c1.6-0.4,2.7-1.4,2.7-3.1c0-2.2-1.2-3.2-4-3.2h-7v0.2c0.5,0,0.5,0.2,0.5,0.3v8.9c0,0.2-0.1,0.3-0.5,0.3v0.2h4v-0.2
		c-0.5,0-0.5-0.2-0.5-0.3V118.3L23.1,118.3z M23.1,114.1h3.2c1.1,0,1.5,0.5,1.5,1.1c0,0.6-0.3,1.1-1.5,1.1h-3.2V114.1L23.1,114.1z"
		/>
	<path class="st14" d="M47.3,114.2c1.7,0,3.1,1,3.1,2.8s-1.5,2.8-3.1,2.8c-1.7,0-3.1-1-3.1-2.8S45.7,114.2,47.3,114.2L47.3,114.2z
		 M47.3,111.9c-3.3,0-6,1.8-6,5.2c0,3.4,2.7,5.2,6,5.2c3.3,0,6-1.8,6-5.2C53.3,113.7,50.6,111.9,47.3,111.9L47.3,111.9z"/>
	<path class="st14" d="M69.3,113.8l1.9,4.6h-3.6L69.3,113.8L69.3,113.8z M71.7,119.9c0.1,0.2,0.7,1.6,0.7,1.7c0,0.1-0.1,0.2-0.4,0.2
		v0.2h3.8v-0.2c-0.2,0-0.3-0.1-0.5-0.6c-1.2-2.9-3.5-8.6-3.5-8.8c0-0.2,0.1-0.2,0.3-0.2V112h-5v0.2c0.2,0,0.4,0.1,0.4,0.2
		c0,0.1-3.2,8.6-3.4,9c-0.1,0.3-0.2,0.4-0.5,0.4v0.2h3.4v-0.2c-0.3,0-0.3-0.1-0.3-0.2c0-0.1,0.1-0.4,0.6-1.8H71.7L71.7,119.9z"/>
	<path class="st14" d="M87.1,121.5c0,0.2-0.1,0.3-0.5,0.3v0.2h6.2c3.6,0,5.4-2.4,5.4-5c0-2.9-1.6-5-5.2-5h-6.4v0.2
		c0.5,0,0.5,0.2,0.5,0.3V121.5L87.1,121.5z M89.9,114.3h2.4c2,0,2.9,1.2,2.9,2.8c0,1.6-0.8,2.8-2.9,2.8h-2.4V114.3L89.9,114.3z"/>
	<path class="st12" d="M120.1,112.6c0-0.2,0.1-0.3,0.5-0.3V112h-4v0.2c0.5,0,0.5,0.2,0.5,0.3v3h-5v-3c0-0.2,0.1-0.3,0.5-0.3V112h-4
		v0.2c0.5,0,0.5,0.2,0.5,0.3v8.9c0,0.2-0.1,0.3-0.5,0.3v0.2h4v-0.2c-0.5,0-0.5-0.2-0.5-0.3V118h5v3.5c0,0.2-0.1,0.3-0.5,0.3v0.2h4
		v-0.2c-0.5,0-0.5-0.2-0.5-0.3V112.6L120.1,112.6z"/>
	<path class="st14" d="M137.5,114.2c1.7,0,3.1,1,3.1,2.8s-1.5,2.8-3.1,2.8c-1.7,0-3.1-1-3.1-2.8S135.8,114.2,137.5,114.2
		L137.5,114.2z M137.5,111.9c-3.3,0-6,1.8-6,5.2c0,3.4,2.7,5.2,6,5.2c3.3,0,6-1.8,6-5.2C143.5,113.7,140.8,111.9,137.5,111.9
		L137.5,111.9z"/>
	<path class="st12" d="M162.7,117.7c0,1.5-0.9,2.1-2.4,2.1c-1.5,0-2.4-0.6-2.4-2.1v-5.1c0-0.2,0.1-0.3,0.5-0.3V112h-3.9v0.2
		c0.5,0,0.5,0.2,0.5,0.3v5.1c0,3.4,2.4,4.5,5.3,4.5c2.9,0,5.3-1.1,5.3-4.5v-5.1c0-0.2,0.1-0.3,0.5-0.3V112h-3.9v0.2
		c0.5,0,0.5,0.2,0.5,0.3V117.7L162.7,117.7z"/>
	<path class="st12" d="M177,121.5l0.2,0.1c0.1-0.1,0.2-0.2,0.4-0.2c0.4,0,1.9,0.9,5.1,0.9c4.2,0,5.4-1.8,5.4-3.5
		c0-4.4-7.9-2.3-7.9-4c0-0.4,0.6-0.9,2.2-0.9c1.8,0,4,0.5,4,1v0.2l0.2,0.1l1.3-2.7l-0.2-0.1c-0.1,0.2-0.3,0.3-0.5,0.3
		c-0.5,0-2.4-0.8-5-0.8c-2.8,0-4.7,1.3-4.7,3.2c0,3.7,7.9,2.1,7.9,3.5c0,0.8-0.9,1.3-2.8,1.3c-2,0-4-0.9-4-1.4c0-0.2,0-0.3,0-0.4
		l-0.2-0.1L177,121.5L177,121.5z"/>
	<path class="st12" d="M206.8,115.4h-0.2c-0.1,0.2-0.2,0.4-0.6,0.4h-3.6v-1.6h6.2c0.2,0,0.3,0.1,0.3,0.5h0.2v-3.3h-0.2
		c-0.1,0.4-0.1,0.5-0.3,0.5H199v0.2c0.5,0,0.5,0.2,0.5,0.3v8.9c0,0.2-0.1,0.3-0.5,0.3v0.2h9.6c0.2,0,0.3,0.1,0.3,0.4h0.2v-3.3h-0.2
		c-0.1,0.5-0.1,0.6-0.3,0.6h-6.2V118h3.6c0.4,0,0.5,0.2,0.6,0.4h0.2V115.4L206.8,115.4z"/>
	<path class="st15" d="M23.1,114.1v2.1h3.2c1.1,0,1.5-0.5,1.5-1.1c0-0.6-0.3-1.1-1.5-1.1H23.1L23.1,114.1z M23.1,118.3v3.2
		c0,0.2,0.1,0.3,0.5,0.3v0.2h-4v-0.2c0.5,0,0.5-0.2,0.5-0.3v-8.9c0-0.2-0.1-0.3-0.5-0.3V112h7c2.8,0,4,1,4,3.2
		c0,1.8-1.2,2.7-2.7,3.1l2.3,3.2c0.2,0.2,0.3,0.3,0.6,0.3v0.2h-4v-0.2c0.3,0,0.4-0.1,0.4-0.3c0-0.2-2-2.8-2.3-3.2H23.1L23.1,118.3z
		 M47.3,114.2c-1.7,0-3.1,1-3.1,2.8s1.5,2.8,3.1,2.8c1.7,0,3.1-1,3.1-2.8S49,114.2,47.3,114.2L47.3,114.2z M47.3,111.9
		c3.3,0,6,1.8,6,5.2c0,3.4-2.7,5.2-6,5.2c-3.3,0-6-1.8-6-5.2C41.4,113.7,44.1,111.9,47.3,111.9L47.3,111.9z M69.3,113.8l-1.7,4.6
		h3.6L69.3,113.8L69.3,113.8z M71.7,119.9h-4.5c-0.5,1.4-0.6,1.6-0.6,1.8c0,0.1,0.1,0.2,0.3,0.2v0.2h-3.4v-0.2
		c0.3-0.1,0.4-0.1,0.5-0.4c0.2-0.4,3.4-8.9,3.4-9c0-0.1-0.2-0.2-0.4-0.2V112h5v0.2c-0.2,0-0.3,0.1-0.3,0.2c0,0.2,2.4,5.9,3.5,8.8
		c0.2,0.5,0.3,0.6,0.5,0.6v0.2H72v-0.2c0.3,0,0.4-0.1,0.4-0.2C72.3,121.5,71.8,120.1,71.7,119.9L71.7,119.9z M87.1,121.5v-8.9
		c0-0.2-0.1-0.3-0.5-0.3V112h6.4c3.5,0,5.2,2.2,5.2,5c0,2.6-1.8,5-5.4,5h-6.2v-0.2C87,121.8,87.1,121.7,87.1,121.5L87.1,121.5z
		 M89.9,114.3v5.6h2.4c2,0,2.9-1.2,2.9-2.8c0-1.6-0.8-2.8-2.9-2.8H89.9L89.9,114.3z M120.1,112.6v8.9c0,0.2,0.1,0.3,0.5,0.3v0.2h-4
		v-0.2c0.5,0,0.5-0.2,0.5-0.3V118h-5v3.5c0,0.2,0.1,0.3,0.5,0.3v0.2h-4v-0.2c0.5,0,0.5-0.2,0.5-0.3v-8.9c0-0.2-0.1-0.3-0.5-0.3V112
		h4v0.2c-0.5,0-0.5,0.2-0.5,0.3v3h5v-3c0-0.2-0.1-0.3-0.5-0.3V112h4v0.2C120.1,112.3,120.1,112.4,120.1,112.6L120.1,112.6z
		 M137.5,114.2c-1.7,0-3.1,1-3.1,2.8s1.5,2.8,3.1,2.8c1.7,0,3.1-1,3.1-2.8S139.2,114.2,137.5,114.2L137.5,114.2z M137.5,111.9
		c3.3,0,6,1.8,6,5.2c0,3.4-2.7,5.2-6,5.2c-3.3,0-6-1.8-6-5.2C131.5,113.7,134.3,111.9,137.5,111.9L137.5,111.9z M162.7,117.7v-5.1
		c0-0.2-0.1-0.3-0.5-0.3V112h3.9v0.2c-0.5,0-0.5,0.2-0.5,0.3v5.1c0,3.4-2.4,4.5-5.3,4.5c-2.9,0-5.3-1.1-5.3-4.5v-5.1
		c0-0.2-0.1-0.3-0.5-0.3V112h3.9v0.2c-0.5,0-0.5,0.2-0.5,0.3v5.1c0,1.5,0.9,2.1,2.4,2.1C161.9,119.8,162.7,119.2,162.7,117.7
		L162.7,117.7z M177,121.5l1.4-3.4l0.2,0.1c0,0.1,0,0.2,0,0.4c0,0.5,2.1,1.4,4,1.4c1.9,0,2.8-0.5,2.8-1.3c0-1.4-7.9,0.2-7.9-3.5
		c0-1.9,1.8-3.2,4.7-3.2c2.6,0,4.5,0.8,5,0.8c0.2,0,0.4-0.1,0.5-0.3l0.2,0.1l-1.3,2.7l-0.2-0.1v-0.2c0-0.5-2.2-1-4-1
		c-1.7,0-2.2,0.5-2.2,0.9c0,1.7,7.9-0.4,7.9,4c0,1.7-1.2,3.5-5.4,3.5c-3.2,0-4.6-0.9-5.1-0.9c-0.2,0-0.3,0.1-0.4,0.2L177,121.5
		L177,121.5z M206.8,115.4v3h-0.2c-0.1-0.2-0.2-0.4-0.6-0.4h-3.6v1.8h6.2c0.2,0,0.3-0.1,0.3-0.6h0.2v3.3h-0.2
		c-0.1-0.3-0.1-0.4-0.3-0.4H199v-0.2c0.5,0,0.5-0.2,0.5-0.3v-8.9c0-0.2-0.1-0.3-0.5-0.3V112h9.6c0.2,0,0.3-0.1,0.3-0.5h0.2v3.3h-0.2
		c-0.1-0.4-0.1-0.5-0.3-0.5h-6.2v1.6h3.6c0.4,0,0.5-0.2,0.6-0.4H206.8L206.8,115.4z"/>
	<path class="st1" d="M35.2,117c0,0.9,0.7,1.6,1.6,1.6c0.9,0,1.6-0.7,1.6-1.6c0-0.9-0.7-1.6-1.6-1.6C35.9,115.5,35.2,116.2,35.2,117
		L35.2,117z"/>
	<path class="st1" d="M80,117c0,0.9,0.7,1.6,1.6,1.6c0.9,0,1.6-0.7,1.6-1.6c0-0.9-0.7-1.6-1.6-1.6C80.7,115.5,80,116.2,80,117
		L80,117z"/>
	<path class="st1" d="M102,117c0,0.9,0.7,1.6,1.6,1.6c0.9,0,1.6-0.7,1.6-1.6c0-0.9-0.7-1.6-1.6-1.6C102.7,115.5,102,116.2,102,117
		L102,117z"/>
	<path class="st1" d="M124.8,117c0,0.9,0.7,1.6,1.6,1.6c0.9,0,1.6-0.7,1.6-1.6c0-0.9-0.7-1.6-1.6-1.6
		C125.5,115.5,124.8,116.2,124.8,117L124.8,117z"/>
	<path class="st1" d="M147.6,117c0,0.9,0.7,1.6,1.6,1.6c0.9,0,1.6-0.7,1.6-1.6c0-0.9-0.7-1.6-1.6-1.6
		C148.3,115.5,147.6,116.2,147.6,117L147.6,117z"/>
	<path class="st1" d="M170,117c0,0.9,0.7,1.6,1.6,1.6c0.9,0,1.6-0.7,1.6-1.6c0-0.9-0.7-1.6-1.6-1.6C170.7,115.5,170,116.2,170,117
		L170,117z"/>
	<path class="st1" d="M191.5,117c0,0.9,0.7,1.6,1.6,1.6c0.9,0,1.6-0.7,1.6-1.6c0-0.9-0.7-1.6-1.6-1.6
		C192.2,115.5,191.5,116.2,191.5,117L191.5,117z"/>
	<path class="st1" d="M57.8,117c0,0.9,0.7,1.6,1.6,1.6c0.9,0,1.6-0.7,1.6-1.6c0-0.9-0.7-1.6-1.6-1.6C58.5,115.5,57.8,116.2,57.8,117
		L57.8,117z"/>
	<path class="st1" d="M21.1,102.9h9.5l-0.1,1h1.9l0.5-9.2h-1.8l-0.2,2.9c-1.1,1.4-2.4,2-4,2V76.4h1V73h-6.8v3.4h1v23.2h-1V102.9
		L21.1,102.9z"/>
	<path class="st16" d="M42.1,103.5c4.5,0,7.9-6.8,7.9-15.5c0-9.7-3.3-15.5-7.9-15.5c-4.5,0-7.9,6.6-7.9,15.9
		C34.3,97.6,37.6,103.5,42.1,103.5L42.1,103.5z M43.2,100.2c-1,0-1.8-1.3-2.4-4c-0.9-3.6-1.7-9.3-1.7-14.5c0-4,0.7-6,2.1-6
		c1,0,1.7,1.3,2.4,4c0.9,3.5,1.7,9.1,1.7,14.3C45.2,98.2,44.6,100.2,43.2,100.2L43.2,100.2z"/>
	<path class="st1" d="M67.3,102.9v-3.3h-1V73h-5.8v3.4h1v17.7c0,3-0.2,4.5-1.8,4.5c-1.6,0-1.7-1.5-1.7-4.5V73h-5.8v3.4h1v17.3
		c0,6.6,1.2,9.8,4.4,9.8c1.3,0,2.8-1.1,4.2-3.1l0.4,2.5H67.3L67.3,102.9z"/>
	<path class="st16" d="M76.2,76.4C76.2,76.4,76.2,76.4,76.2,76.4c2.8,0,4,3.8,4,11.6c0,7.8-1.2,11.6-3.9,11.6c0,0-0.1,0-0.1,0V76.4
		L76.2,76.4z M70.4,102.9H75c2.7,0,4.7-0.3,6.4-1.8c2.5-2.2,4-6.8,4-13.2c0-6.3-1.5-11-4-13.2C79.8,73.3,77.7,73,75,73h-4.6v3.4h1
		v23.2h-1V102.9L70.4,102.9z"/>
	<path class="st16" d="M92.3,102.9h4.2v-3.3h-1l0.7-4.1h5.2l0.7,4.1h-1v3.3h6.8v-3.3h-1L102.2,73H98l-4.7,26.5h-1V102.9L92.3,102.9z
		 M96.9,91.8l2-11.8l1.9,11.8H96.9L96.9,91.8z"/>
	<path class="st1" d="M108.7,102.9h4.2v-3.3h-1l0.9-17c1.4,6.6,2.4,13.3,2.9,20.3h2c0.7-8,1.7-14.8,3.2-20.3l0.6,17h-1v3.3h6.3v-3.3
		h-1l-0.9-23.2h1V73h-4.7c-0.3,2.3-0.8,4.5-1.3,6.6l-2,8.7l-1.9-10.2c-0.3-1.6-0.5-3.2-0.7-5.1h-5.2v3.4h1l-1.4,23.2h-1V102.9
		L108.7,102.9z"/>
	<path class="st1" d="M129.5,102.9h11.7v-8h-1.9v3.6c-0.6,0.7-2,1.1-4,1.1V86.6h4v2h1.9v-7.4h-1.9v2h-4v-6.8c2,0.1,3.4,0.4,4,1.1
		v1.3h1.9V73h-11.7v3.4h1v23.2h-1V102.9L129.5,102.9z"/>
	<path class="st16" d="M144.4,102.9h6.7v-3.4h-1v-7.1l1.2-0.1c1,3.4,1.9,6.9,2.6,10.6h5.2v-3.4h-1c-0.7-2.9-1.5-5.9-2.6-9
		c2.1-1.1,3.2-4.1,3.2-8.3c0-6.2-2.6-9.2-7.9-9.2h-6.3v3.4h1v23.1h-1V102.9L144.4,102.9z M150.1,76.3c0.1,0,0.2,0,0.3,0
		c2.3,0,3.4,2,3.4,6.5c0,4.5-1.1,6.5-3.4,6.5c-0.1,0-0.2,0-0.3,0V76.3L150.1,76.3z"/>
	<polygon class="st1" points="168.3,73 161.6,73 161.6,76.4 162.6,76.4 162.6,99.6 161.6,99.6 161.6,102.9 168.3,102.9 168.3,99.6 
		167.3,99.6 167.3,76.4 168.3,76.4 168.3,73 	"/>
	<path class="st1" d="M184.4,95.5l-1.1-2c-1.3,2.3-2.5,3.5-3.7,3.5c-2.5,0-4.5-5.1-4.5-13.3c0-5,0.7-7.4,2.2-7.4
		c0.9,0,1.7,1.2,1.7,2.9c0,1-0.2,1.8-0.7,2.8l1,2.3l4.7-7.1l-1-2.3l-0.7,0.8c-0.9-2.2-2.2-3.2-3.7-3.2c-3.9,0-7.7,7-7.7,16.7
		c0,8.8,2.9,14.4,6.8,14.4C180.3,103.5,182.5,100.9,184.4,95.5L184.4,95.5z"/>
	<path class="st16" d="M184.9,102.9h4.2v-3.3h-1l0.7-4.1h5.2l0.7,4.1h-1v3.3h6.8v-3.3h-1L194.8,73h-4.2l-4.7,26.5h-1V102.9
		L184.9,102.9z M189.4,91.8l2-11.8l1.9,11.8H189.4L189.4,91.8z"/>
	<path class="st1" d="M201.9,102.9h4.4v-3.3h-1V81.9l4.1,12.2c0.8,2.3,1.8,4.9,2.2,8.8h3.2V76.4h1V73h-4.5v3.4h1V89L207,73h-5v3.4h1
		v23.2h-1V102.9L201.9,102.9z"/>
	<path class="st1" d="M30.3,95.7c-1.2,1.6-2.8,2.5-4.8,2.5h-1V73.1l1,0v-1.4h-4.8v1.4c1,1,1,25.2,1,25.2h-1v1.3h9.5l-0.1,1H31
		l-1,0.9L30.3,95.7L30.3,95.7z M29.2,101.6H18.7l0-5.3l1,0V75.1h-1v-5.4h8.8c0,0,0,4.4-1,5.4l0,21.1c0.7-0.2,1.4-0.6,2-1.3l0.3-3.5
		h3.8l-0.6,11.2h-3.9l0.1-2.1L29.2,101.6L29.2,101.6z"/>
	<path class="st1" d="M47.6,85.6c0-9.8-3.3-14.5-6.9-14.5c-3.5,0-6.9,5.4-6.9,14.9c0,9.3,3.3,14.1,6.9,14.1
		C44.2,100.2,47.6,94.6,47.6,85.6L47.6,85.6z M49.6,85.6c0,8.6-3.3,16.5-8.9,16.5c-5.6,0-8.9-7.1-8.9-16.1c0-9.2,3.3-16.9,8.9-16.9
		C46.4,69.1,49.6,76.1,49.6,85.6L49.6,85.6z M39.6,97.4c-0.5-0.8-0.9-1.9-1.2-3.3c-0.9-3.7-1.7-9.5-1.7-14.8c0-2,0-7,3.1-7
		c2.1,0,3,3.2,3.4,4.7c0.9,3.6,1.7,9.3,1.7,14.5c0,2,0.1,7.3-3.1,7.3C40.8,98.9,40.1,98.2,39.6,97.4L39.6,97.4z M41.7,96.8
		c1.2,0,1.2-4.9,1.2-5.2c0-5.1-0.7-10.6-1.6-14c-0.2-0.8-0.7-2.7-1.5-3.3c-1.1,0-1.1,4.7-1.1,5c0,5.1,0.8,10.7,1.7,14.3
		C40.5,94.3,41,96.3,41.7,96.8L41.7,96.8z"/>
	<path class="st1" d="M64.9,98.2c-1-1-1-26.5-1-26.5h-3.8v1.4c1,1,1,18.7,1,18.7c0,1.9,0.1,5.5-2.7,5.5c-2.9,0-2.7-3.5-2.7-5.5V71.7
		H52l0,1.4c1,1,1,18.3,1,18.3c0,6.9,1.3,8.8,3.4,8.8c2,0,3.9-3.4,4.8-4.8l0.6,4.2H65L64.9,98.2L64.9,98.2z M67,96.2v5.3h-7l-0.2-1.1
		c-1.1,1-2.3,1.7-3.5,1.7c-4.3,0-5.4-4.5-5.4-10.8V75.1h-1v-5.4h7.7v22.1c0,0.4-0.2,3.5,0.7,3.5c0.9,0,0.8-3.1,0.8-3.5V75.1h-1v-5.4
		h7.8v26.5H67L67,96.2z"/>
	<path class="st1" d="M78.8,76.6c0.7,2.1,1,5.1,1,9c0,3,0.1,12.6-4.9,12.6c-1.1-1-1.1-25.2-1.1-25.2h1C76.8,73,78.1,74.5,78.8,76.6
		L78.8,76.6z M75,96.2c2.9-0.2,2.8-9.2,2.8-10.6c0-1.9,0-8.7-2-10.2C75.8,75.4,75.8,95.2,75,96.2L75,96.2z M73.6,99.6
		c2.7,0,4.4-0.3,5.7-1.5c2.2-1.9,3.6-6.2,3.6-12.4c0-6.2-1.5-10.5-3.6-12.5c-1.3-1.2-3-1.5-5.7-1.5H70v1.4c1,1,1,25.2,1,25.2h-1v1.3
		H73.6L73.6,99.6z M73.6,101.6H68c0,0,0-4.3,1-5.3V75.1h-1v-5.4h5.6c2.8,0,5.1,0.3,7,2c2.8,2.5,4.3,7.6,4.3,14
		c0,6.4-1.5,11.4-4.3,13.9C78.8,101.3,76.4,101.6,73.6,101.6L73.6,101.6z"/>
	<path class="st1" d="M94.2,99.6v-1.3c-1-1.2-0.1-6.1-0.1-6.1h6.8l1,6.1h-1.2v1.3h4.8v-1.3c-1-0.8-5.5-26.5-5.5-26.5h-2.5l-4.7,26.5
		H92v1.3H94.2L94.2,99.6z M99.5,96.2l-0.3-2.1h-3.5l-0.4,2.1h0.8v5.3H90v-5.3h1.2l4.7-26.5h5.9l4.6,26.5h1.2v5.3h-8.8v-5.3H99.5
		L99.5,96.2z M96.5,77.5l2,0l2.1,13h-6.3L96.5,77.5L96.5,77.5z M97.5,83.7l-0.8,4.7h1.6L97.5,83.7L97.5,83.7z"/>
	<path class="st1" d="M110.5,99.6v-1.3c-1-1-0.2-18-0.2-18l2-0.2c1.3,6.4,2.3,12.8,2.9,19.5h0.2c0.7-7.7,1.7-14.3,3.1-19.6l2,0.2
		l0.7,18H120v1.3h4.3l0-1.3c-1-1-2-25.2-2-25.2l1,0v-1.4h-2.8c-0.3,2-0.8,3.9-1.2,5.8l-2,8.7l-2,0L113.5,76
		c-0.3-1.4-0.5-2.8-0.6-4.3h-3.3v1.4c1,1.1-0.4,25.2-0.4,25.2h-1v1.3H110.5L110.5,99.6z M124.5,75.1l0.8,21.2h1v5.3H118
		c0,0,0-4.3,1-5.3l-0.3-7.8c-0.7,4.4-1.2,8.8-1.6,13.2h-3.9c-0.3-4.3-0.8-8.5-1.4-12.7l-0.4,7.4h1v5.3h-6.2v-5.3h1.1l1.3-21.2h-1
		v-5.4h7.1c0.1,2,0.3,4,0.7,5.9l1,5.5l0.9-4.1c0.6-2.5,1.1-4.8,1.4-7.3h6.5v5.4H124.5L124.5,75.1z"/>
	<path class="st1" d="M138.8,74.7v-3h-9.7v1.4c1,1,1,25.2,1,25.2h-1v1.3h9.7v-3c-1.4,1.6-3.9,1.6-5.9,1.7v-15l5.9,0v-1.4h-5.9V73
		C134.9,73.1,137.3,73.1,138.8,74.7L138.8,74.7z M140.8,101.6h-13.7c0,0,0-4.3,1-5.3V75.1h-1v-5.4h13.7v7.8h-3.9v-1.8
		c-0.4-0.2-1-0.4-2-0.5v4.8h2v-2h3.9v9.4h-3.9v-2h-2v10.9c1.1-0.1,1.7-0.3,2-0.5v-4.1h3.9V101.6L140.8,101.6z"/>
	<path class="st1" d="M148.7,99.6v-1.4c-1-1-1-9-1-9l3-0.3c1.1,3.5,2,7,2.7,10.7h3.4v-1.4c-1.6-3.4-2.6-6.9-3.9-10.5
		c3-1.7,3.4-4.6,3.4-7.9c0-5.8-2.3-8.2-6.9-8.2h-5.3v1.4c1,1,1,25.1,1,25.1l-1,0v1.4H148.7L148.7,99.6z M149.7,92.7v3.5h0.9l0.2,0.7
		l0,4.7h-8.7c0,0,0-4.4,1-5.4V75.1h-1v-5.4h7.3c5.9,0,8.9,3.5,8.9,10.2c0,3.9-0.9,7.1-3,8.7c0.9,2.6,1.6,5.1,2.2,7.6h1.3v5.4h-7
		c-0.3-1.6-0.6-3.1-0.9-4.7l-0.2-0.7C150.3,95,150,93.8,149.7,92.7L149.7,92.7z M149,73c3.4,0,4.4,3.1,4.4,7.5
		c0,4.4-1.1,7.5-4.4,7.5h-1.3V73H149L149,73z M149.7,85.9c1-0.3,1.7-1.6,1.7-5.4c0-3.8-0.7-5.1-1.7-5.4V85.9L149.7,85.9z"/>
	<path class="st1" d="M161.2,71.7l0,1.4c1,1,1,25.2,1,25.2h-1v1.3h4.8v-1.3c-1-1-1-25.2-1-25.2l1,0v-1.4H161.2L161.2,71.7z
		 M159.2,69.7h8.8c0,0,0,4.4-1,5.4v21.2h1v5.3h-8.8c0,0,0-4.3,1-5.3l0-21.2h-1V69.7L159.2,69.7z"/>
	<path class="st1" d="M181.4,74.4l-0.7,0.8c-0.6-1.5-1.5-4.1-3.4-4.1c-2.9,0-6.7,5.8-6.7,15.7c0,9,3,13.4,5.8,13.4
		c1.8,0,3.7-1.8,5.6-7c-1.1,1.4-2.3,2.4-3.7,2.4c-5,0-5.5-11.3-5.5-14.2c0-2-0.2-8.4,3.2-8.4c1.9,0,2.7,2.2,2.7,3.9
		c0,1-0.2,1.9-0.6,2.8l0.1,0.2l3.4-5.2L181.4,74.4L181.4,74.4z M181.9,89.1l2.2,4c-1,2.9-3.3,9.1-7.8,9.1c-4.9,0-7.8-6.7-7.8-15.4
		c0-9.5,3.7-17.7,8.7-17.7c1.7,0,3,0.9,4,2.5l0.8-0.9l1.8,4.2l-6.1,9.1l-1.9-4.4c0.4-0.9,0.8-1.7,0.8-2.7c0-0.6-0.1-1.5-0.7-1.9
		c-1.1,0-1.2,6-1.2,6.4c0,1.4,0.5,12.3,3.5,12.3C179.6,93.6,181.3,90.2,181.9,89.1L181.9,89.1z"/>
	<path class="st1" d="M186.7,99.6v-1.3c-1-1.2-0.1-6.1-0.1-6.1h6.8l1,6.1h-1.2v1.3h4.8v-1.3c-1-0.8-5.5-26.5-5.5-26.5H190l-4.7,26.5
		h-0.9v1.3H186.7L186.7,99.6z M192.1,96.2l-0.3-2.1h-3.5l-0.4,2.1h0.8v5.3h-6.2v-5.3h1.2l4.7-26.5h5.9l4.6,26.5h1.2v5.3h-8.8v-5.3
		H192.1L192.1,96.2z M189,77.5l2,0l2.1,13h-6.3L189,77.5L189,77.5z M190,83.7l-0.8,4.7h1.6L190,83.7L190,83.7z"/>
	<path class="st1" d="M204,99.6l0-1.3c-1-1-1-18.7-1-18.7l1.9-0.3l4.1,12.2c0.9,2.7,1.8,5.3,2.1,8.1h1.3V73.1l1,0v-1.4H211v1.4
		c1,1,1,13.5,1,13.5l-1.9,0.3l-5.2-15.3h-3.3l0,1.4c1,1,1,25.2,1,25.2h-1v1.3H204L204,99.6z M206,101.6h-6.4c0,0,0-4.3,1-5.3l0-21.2
		h-1v-5.4h6.8l3.8,10.9v-5.6h-1v-5.4h6.5c0,0,0,4.4-1,5.4v26.5h-5.1c-0.3-3.4-1.1-6.3-2.2-9.5l-2.2-6.5v10.6h1V101.6L206,101.6z"/>
	<path class="st17" d="M19.4,100.2h9.5l-0.1,1h1.9l0.5-9.2h-1.8l-0.2,2.9c-1.1,1.4-2.4,2-4,2V73.7h1v-3.4h-6.8v3.4h1v23.2h-1V100.2
		L19.4,100.2z"/>
	<path class="st14" d="M40.5,100.8c4.5,0,7.9-6.8,7.9-15.5c0-9.7-3.3-15.5-7.9-15.5c-4.5,0-7.9,6.6-7.9,15.9
		C32.6,94.8,35.9,100.8,40.5,100.8L40.5,100.8z M41.5,97.5c-1,0-1.8-1.3-2.4-4c-0.9-3.6-1.7-9.3-1.7-14.5c0-4,0.7-6,2.1-6
		c1,0,1.7,1.3,2.4,4c0.9,3.5,1.7,9.1,1.7,14.3C43.6,95.5,43,97.5,41.5,97.5L41.5,97.5z"/>
	<path class="st15" d="M40.5,100.8c4.5,0,7.9-6.8,7.9-15.5c0-9.7-3.3-15.5-7.9-15.5c-4.5,0-7.9,6.6-7.9,15.9
		C32.6,94.8,35.9,100.8,40.5,100.8L40.5,100.8z M41.5,97.5c-1,0-1.8-1.3-2.4-4c-0.9-3.6-1.7-9.3-1.7-14.5c0-4,0.7-6,2.1-6
		c1,0,1.7,1.3,2.4,4c0.9,3.5,1.7,9.1,1.7,14.3C43.6,95.5,43,97.5,41.5,97.5L41.5,97.5z"/>
	<path class="st17" d="M65.7,100.2v-3.3h-1V70.3h-5.8v3.4h1v17.7c0,3-0.2,4.5-1.8,4.5c-1.6,0-1.7-1.5-1.7-4.5V70.3h-5.8v3.4h1V91
		c0,6.6,1.2,9.8,4.4,9.8c1.3,0,2.8-1.1,4.2-3.1l0.4,2.5H65.7L65.7,100.2z"/>
	<path class="st14" d="M74.5,73.7C74.5,73.7,74.6,73.7,74.5,73.7c2.8,0,4,3.8,4,11.6c0,7.8-1.2,11.6-3.9,11.6c0,0-0.1,0-0.1,0V73.7
		L74.5,73.7z M68.7,100.2h4.6c2.7,0,4.7-0.3,6.4-1.8c2.5-2.2,4-6.8,4-13.2c0-6.3-1.5-11-4-13.2c-1.6-1.4-3.6-1.8-6.4-1.8h-4.6v3.4h1
		v23.2h-1V100.2L68.7,100.2z"/>
	<path class="st15" d="M74.5,73.7C74.5,73.7,74.6,73.7,74.5,73.7c2.8,0,4,3.8,4,11.6c0,7.8-1.2,11.6-3.9,11.6c0,0-0.1,0-0.1,0V73.7
		L74.5,73.7z M68.7,100.2h4.6c2.7,0,4.7-0.3,6.4-1.8c2.5-2.2,4-6.8,4-13.2c0-6.3-1.5-11-4-13.2c-1.6-1.4-3.6-1.8-6.4-1.8h-4.6v3.4h1
		v23.2h-1V100.2L68.7,100.2z"/>
	<path class="st14" d="M90.7,100.2h4.2v-3.3h-1l0.7-4.1h5.2l0.7,4.1h-1v3.3h6.8v-3.3h-1l-4.6-26.5h-4.2l-4.7,26.5h-1V100.2
		L90.7,100.2z M95.2,89.1l2-11.8l1.9,11.8H95.2L95.2,89.1z"/>
	<path class="st15" d="M90.7,100.2h4.2v-3.3h-1l0.7-4.1h5.2l0.7,4.1h-1v3.3h6.8v-3.3h-1l-4.6-26.5h-4.2l-4.7,26.5h-1V100.2
		L90.7,100.2z M95.2,89.1l2-11.8l1.9,11.8H95.2L95.2,89.1z"/>
	<path class="st17" d="M107,100.2h4.2v-3.3h-1l0.9-17c1.4,6.6,2.4,13.3,2.9,20.3h2c0.7-8,1.7-14.8,3.2-20.3l0.6,17h-1v3.3h6.3v-3.3
		h-1l-0.9-23.2h1v-3.4h-4.7c-0.3,2.3-0.8,4.5-1.3,6.6l-2,8.7l-1.9-10.2c-0.3-1.6-0.5-3.2-0.7-5.1h-5.2v3.4h1L108,96.9h-1V100.2
		L107,100.2z"/>
	<path class="st17" d="M127.8,100.2h11.7v-8h-1.9v3.6c-0.6,0.7-2,1.1-4,1.1V83.9h4v2h1.9v-7.4h-1.9v2h-4v-6.8c2,0.1,3.4,0.4,4,1.1
		v1.3h1.9v-5.8h-11.7v3.4h1v23.2h-1V100.2L127.8,100.2z"/>
	<path class="st14" d="M142.8,100.2h6.7v-3.4h-1v-7.1l1.2-0.1c1,3.4,1.9,6.9,2.6,10.6h5.2v-3.4h-1c-0.7-2.9-1.5-5.9-2.6-9
		c2.1-1.1,3.2-4.1,3.2-8.3c0-6.2-2.6-9.2-7.9-9.2h-6.3v3.4h1v23.1h-1V100.2L142.8,100.2z M148.4,73.6c0.1,0,0.2,0,0.3,0
		c2.3,0,3.4,2,3.4,6.5c0,4.5-1.1,6.5-3.4,6.5c-0.1,0-0.2,0-0.3,0V73.6L148.4,73.6z"/>
	<path class="st15" d="M142.8,100.2h6.7v-3.4h-1v-7.1l1.2-0.1c1,3.4,1.9,6.9,2.6,10.6h5.2v-3.4h-1c-0.7-2.9-1.5-5.9-2.6-9
		c2.1-1.1,3.2-4.1,3.2-8.3c0-6.2-2.6-9.2-7.9-9.2h-6.3v3.4h1v23.1h-1V100.2L142.8,100.2z M148.4,73.6c0.1,0,0.2,0,0.3,0
		c2.3,0,3.4,2,3.4,6.5c0,4.5-1.1,6.5-3.4,6.5c-0.1,0-0.2,0-0.3,0V73.6L148.4,73.6z"/>
	<polygon class="st17" points="166.7,70.3 159.9,70.3 159.9,73.7 160.9,73.7 160.9,96.9 159.9,96.9 159.9,100.2 166.7,100.2 
		166.7,96.9 165.7,96.9 165.7,73.7 166.7,73.7 166.7,70.3 	"/>
	<path class="st17" d="M182.7,92.8l-1.1-2c-1.3,2.3-2.5,3.5-3.7,3.5c-2.5,0-4.5-5.1-4.5-13.3c0-5,0.7-7.4,2.2-7.4
		c0.9,0,1.7,1.2,1.7,2.9c0,1-0.2,1.8-0.7,2.8l1,2.3l4.7-7.1l-1-2.3l-0.7,0.8c-0.9-2.2-2.2-3.2-3.7-3.2c-3.9,0-7.7,7-7.7,16.7
		c0,8.8,2.9,14.4,6.8,14.4C178.6,100.8,180.8,98.1,182.7,92.8L182.7,92.8z"/>
	<path class="st14" d="M183.2,100.2h4.2v-3.3h-1l0.7-4.1h5.2l0.7,4.1h-1v3.3h6.8v-3.3h-1l-4.6-26.5h-4.2l-4.7,26.5h-1V100.2
		L183.2,100.2z M187.7,89.1l2-11.8l1.9,11.8H187.7L187.7,89.1z"/>
	<path class="st15" d="M183.2,100.2h4.2v-3.3h-1l0.7-4.1h5.2l0.7,4.1h-1v3.3h6.8v-3.3h-1l-4.6-26.5h-4.2l-4.7,26.5h-1V100.2
		L183.2,100.2z M187.7,89.1l2-11.8l1.9,11.8H187.7L187.7,89.1z"/>
	<path class="st17" d="M200.3,100.2h4.4v-3.3h-1V79.2l4.1,12.2c0.8,2.3,1.8,4.9,2.2,8.8h3.2V73.7h1v-3.4h-4.5v3.4h1v12.5l-5.5-15.9
		h-5v3.4h1v23.2h-1V100.2L200.3,100.2z"/>
	<path class="st16" d="M217.7,110.7c-1.9,0-3.3,1.5-3.3,3.3c0,1.8,1.5,3.3,3.3,3.3c1.8,0,3.3-1.5,3.3-3.3
		C220.9,112.2,219.5,110.7,217.7,110.7L217.7,110.7z M217.6,111.1c1.6,0,2.9,1.3,2.9,2.9c0,1.6-1.3,2.9-2.9,2.9
		c-1.6,0-2.9-1.3-2.9-2.9C214.8,112.5,216.1,111.1,217.6,111.1L217.6,111.1z M216.6,114.3h0.9c0.4,0,0.5,0,0.6,0.1
		c0.2,0.1,0.2,0.3,0.3,0.9c0,0.4,0,0.4,0.1,0.6h0.6c-0.1-0.1-0.1-0.2-0.1-0.2c0-0.1,0-0.2-0.1-0.6c-0.1-0.6-0.1-0.7-0.5-0.9
		c0.4-0.2,0.6-0.5,0.6-0.9c0-0.3-0.1-0.6-0.4-0.8c-0.2-0.2-0.4-0.2-0.9-0.2h-1.6v3.6h0.5V114.3L216.6,114.3z M216.6,113.9v-1.2h1.1
		c0.3,0,0.4,0,0.5,0c0.2,0,0.3,0.3,0.3,0.5c0,0.3-0.1,0.5-0.4,0.6c-0.1,0-0.3,0.1-0.8,0.1H216.6L216.6,113.9z"/>
</g>
</svg>
