<?xml version="1.0" encoding="utf-8"?>
<!-- Generator: Adobe Illustrator 17.1.0, SVG Export Plug-In . SVG Version: 6.00 Build 0)  -->
<!DOCTYPE svg PUBLIC "-//W3C//DTD SVG 1.1//EN" "http://www.w3.org/Graphics/SVG/1.1/DTD/svg11.dtd">
<svg version="1.1" id="Layer_1" xmlns="http://www.w3.org/2000/svg" xmlns:xlink="http://www.w3.org/1999/xlink" x="0px" y="0px"
	 viewBox="0 0 260.8 162.4" enable-background="new 0 0 260.8 162.4" xml:space="preserve">
<path d="M215.5,63.9c-0.2,0-0.4-0.2-0.2-0.6l7.3-22.4c0.4-1.2,0.8-1.2,1.2,0l7.8,22.4c0.1,0.3,0.1,0.6-0.3,0.6H215.5z M203.9,82.2
	c-1.5,4.1-3.1,7.3-6.9,7.8c-0.7,0.1-1.8,0.2-2.4,0.2c-0.4,0-0.7,0.2-0.7,0.5c0,0.5,0.5,0.7,1.6,0.7c3.9,0,8.4-0.2,9.3-0.2
	c0.9,0,4.5,0.2,6.4,0.2c0.7,0,1.2-0.2,1.2-0.7c0-0.3-0.2-0.5-0.8-0.5h-0.8c-1.4,0-3.1-0.7-3.1-2.4c0-1.5,0.4-3.5,1.2-5.5l5-14.7
	c0.2-0.4,0.4-0.7,0.8-0.7h17.8c0.4,0,0.6,0.2,0.7,0.5l7.7,20.4c0.5,1.3,0,2.1-0.5,2.2c-0.3,0.1-0.6,0.2-0.6,0.6
	c0,0.5,0.9,0.5,2.5,0.6c5.7,0.2,11.7,0.2,13,0.2c0.9,0,1.7-0.2,1.7-0.7c0-0.4-0.3-0.5-0.8-0.5c-0.8,0-2.1-0.1-3.3-0.5
	c-1.7-0.5-4.1-1.8-7.1-9.2c-5-12.6-18-46.8-19.2-49.9c-1-2.6-1.3-3-1.8-3c-0.5,0-0.8,0.5-1.8,3.2L203.9,82.2z M172.1,92.5
	c5.3,0,11.6-0.6,14.9-1.9c1.5-0.7,1.7-0.8,2.2-2.4c0.8-2.8,1.8-10,1.8-10.6c0-0.7-0.2-1.2-0.6-1.2c-0.5,0-0.7,0.3-0.8,1.2
	c-0.2,1.5-1.3,5.1-3.1,7c-3.3,3.4-8.2,4.1-14.4,4.1c-17.7,0-29.8-14.5-29.8-30.3c0-8.4,1.4-15.8,7.4-21.6c2.9-2.8,8-6,19-6
	c7.3,0,13.6,2.2,16.5,4.7c2.1,1.8,3.5,5.2,3.5,8.4c0,1.2,0.1,1.7,0.7,1.7c0.5,0,0.7-0.5,0.7-1.7c0.1-1.2,0.1-5.8,0.2-8.5
	c0.2-3,0.4-4,0.4-4.6c0-0.5-0.2-0.8-1.1-0.9c-2.6-0.2-5.3-0.7-8.4-1.2c-4-0.7-8.7-1-12-1c-12.7,0-20.2,3.9-25.2,8.9
	c-7.4,7.4-9.3,17.1-9.3,22.6c0,7.9,2,17.3,10,24.5C151.4,89.4,159.7,92.5,172.1,92.5 M67.1,57.6c0-18.1,10.3-27.2,24.1-27.2
	c13.1,0,25.1,10.7,25.1,30.6c0,24.1-15.4,28.4-22.8,28.4C78.7,89.4,67.1,76.9,67.1,57.6 M59.3,60c0,14.9,9.4,32.5,32.1,32.5
	c19.9,0,33-15.3,33-33.9c0-19.3-13.9-31.1-32.5-31.1C69,27.6,59.3,46.5,59.3,60 M11.8,32.9c0-0.5,0.2-0.8,0.7-1
	c0.8-0.2,3.1-0.5,5.5-0.5c8.8,0,14.3,6.2,14.3,16.6c0,6.3-2.1,10.8-5,12.8C25.3,62,23,62.3,21,62.3c-3.6,0-7.4-0.6-8.7-1.3
	c-0.4-0.2-0.6-0.6-0.6-1V32.9z M5.2,67.3c0,8,0,14.5-0.4,18c-0.3,2.4-0.7,4.2-2.4,4.6c-0.7,0.2-1.7,0.3-2.5,0.3
	c-0.5,0-0.7,0.2-0.7,0.5c0,0.5,0.4,0.7,1.3,0.7c2.5,0,7.7-0.2,7.8-0.2c0.4,0,5.6,0.2,10.2,0.2c0.9,0,1.3-0.2,1.3-0.7
	c0-0.3-0.2-0.5-0.7-0.5c-0.7,0-2.6-0.2-3.7-0.3c-2.5-0.3-3-2.2-3.2-4.6c-0.4-3.5-0.4-10-0.4-18v-2c0-0.4,0.2-0.7,0.6-0.7l10.2,0.2
	c0.5,0,0.7,0.2,1.1,0.5c1.7,2.2,5.5,7.7,9,12.3c4.7,6.2,7.6,10.3,11.2,12.2c2.1,1.2,4.2,1.6,8.8,1.6h5.9c1.5,0,2-0.2,2-0.7
	c0-0.3-0.3-0.5-0.7-0.5c-0.5,0-1.7,0-3.2-0.2c-2.1-0.3-5.6-1.2-10.1-6C41.6,78.8,36,71.5,29.2,62.8c7.4-6.9,10-13,10-19.1
	c0-5.7-3.6-9.8-5.7-11.3c-4.4-3.1-9.9-3.6-15.1-3.6c-2.6,0-8.8,0.2-9.7,0.2c-0.4,0-5.6-0.2-9.3-0.2c-0.9,0-1.3,0.2-1.3,0.7
	c0,0.3,0.3,0.5,0.7,0.5c0.7,0,2.1,0.1,2.8,0.2C4.2,30.7,4.8,32,5,34.9c0.2,2.7,0.2,5,0.2,17.9V67.3z"/>
<path d="M157.4,136.3h-4.8v-5H152c-0.2,1.6-0.8,2.8-1.6,3.7c-0.8,0.9-1.8,1.3-2.9,1.3v0.9h2.3v9c0,1.9,0.1,3.2,0.3,3.9
	c0.2,0.7,0.6,1.4,1.3,1.9c0.7,0.6,1.5,0.8,2.5,0.8c0.8,0,1.6-0.2,2.4-0.6c0.8-0.4,1.4-1.1,1.8-1.9l-0.6-0.4
	c-0.7,1.1-1.5,1.6-2.4,1.6c-0.5,0-0.9-0.2-1.4-0.5c-0.4-0.3-0.7-0.7-0.8-1.2c-0.1-0.5-0.2-1.5-0.2-3v-9.6h4.8V136.3z M126.8,136.6
	v0.9c0.9,0,1.6,0.1,1.9,0.3c0.3,0.2,0.6,0.5,0.6,0.9c0.1,0.4,0.1,1.5,0.1,3.4v4.7c0,1.9,0,3.1-0.1,3.5c-0.1,0.4-0.3,0.6-0.7,0.8
	c-0.4,0.2-1,0.3-1.9,0.3v0.9h8.1v-0.9c-0.9,0-1.6-0.1-1.9-0.3c-0.3-0.2-0.6-0.5-0.6-0.9c-0.1-0.4-0.1-1.5-0.1-3.4v-6.5
	c0.8-1.1,1.6-2,2.5-2.5c0.9-0.6,1.8-0.8,2.7-0.8c0.8,0,1.5,0.2,2.1,0.6c0.5,0.4,0.9,0.9,1,1.4c0.1,0.5,0.2,1.4,0.2,2.7v5.1
	c0,1.8,0,2.8-0.1,3.2c0,0.4-0.2,0.7-0.5,1c-0.3,0.3-0.9,0.4-1.8,0.4h-0.4v0.9h8.1v-0.9c-0.9,0-1.6-0.1-1.9-0.3
	c-0.3-0.2-0.5-0.5-0.6-0.9c-0.1-0.4-0.1-1.5-0.1-3.4v-5c0-1.5-0.1-2.6-0.4-3.4c-0.2-0.8-0.8-1.4-1.6-2c-0.8-0.5-1.9-0.8-3.1-0.8
	c-1.1,0-2.2,0.3-3.2,0.8c-1,0.5-2,1.4-2.9,2.5c0-1.4-0.2-2.5-0.5-3.3h-0.5C129.7,136.1,128.2,136.4,126.8,136.6 M119.3,148.8
	c-1,0.8-1.9,1.4-2.7,1.8c-0.8,0.4-1.5,0.6-2.1,0.6c-0.7,0-1.3-0.2-1.7-0.7c-0.4-0.5-0.6-1.2-0.6-2c0-2.1,1.7-3.8,5.1-5.1l2.1-0.9
	V148.8z M123.3,151.3c-0.5,0-0.9-0.2-1-0.6c-0.2-0.4-0.2-1.4-0.2-2.9v-6.4c0-1.4-0.1-2.4-0.4-3c-0.3-0.7-0.9-1.3-1.8-1.8
	c-0.9-0.5-2.2-0.8-3.8-0.8c-2.2,0-3.9,0.4-4.9,1.3c-1.1,0.9-1.6,1.6-1.6,2.4c0,0.8,0.4,1.1,1.2,1.1c0.9,0,1.4-0.7,1.6-2
	c0.2-1.3,1.3-2,3.3-2c1,0,1.8,0.2,2.4,0.6c0.6,0.4,1,0.8,1.1,1.3c0.1,0.5,0.2,1.3,0.2,2.4v0.8l-3,1.2c-2.3,0.9-4.1,1.9-5.4,2.9
	c-1.3,1-2,2.2-2,3.5c0,1,0.4,1.8,1.2,2.5c0.8,0.6,1.7,0.9,2.8,0.9c0.8,0,1.8-0.2,2.9-0.7c1.1-0.5,2.3-1.2,3.6-2.1
	c0.2,0.9,0.5,1.6,1,2.1c0.5,0.5,1.2,0.7,2.1,0.7c2.1,0,3.1-1.1,3.3-3.3H125C124.7,150.6,124.2,151.3,123.3,151.3 M99.2,135.7
	c-2,0.6-3.6,1-4.8,1.2v0.9h0.4c0.8,0,1.4,0.1,1.7,0.4c0.3,0.2,0.5,0.6,0.6,1c0,0.4,0.1,1.5,0.1,3.2v4.5c0,1.8,0,3-0.1,3.3
	c-0.1,0.4-0.3,0.7-0.6,0.9c-0.3,0.2-0.9,0.3-1.7,0.3h-0.4v0.9h8.5v-0.9h-0.5c-0.8,0-1.4-0.1-1.7-0.4c-0.3-0.2-0.5-0.6-0.6-1
	c0-0.4-0.1-1.5-0.1-3.2V144c0-1.4,0.1-2.5,0.3-3.4c0.2-0.8,0.7-1.6,1.5-2.4c0.8-0.8,1.5-1.1,2-1.1c0.5,0,0.8,0.3,1.1,1
	c0.3,1,0.8,1.4,1.5,1.4c0.4,0,0.7-0.1,0.9-0.4c0.3-0.3,0.4-0.6,0.4-1c0-0.6-0.2-1.1-0.7-1.6c-0.5-0.5-1.2-0.8-2-0.8
	c-1,0-1.9,0.4-2.9,1.2c-1,0.8-1.7,1.7-2.2,2.9C99.8,138.1,99.6,136.7,99.2,135.7 M84.5,136.3v0.9H85c0.9,0,1.5,0.1,1.8,0.4
	c0.3,0.3,0.5,0.6,0.5,1c0,0.4,0.1,1.4,0.1,3.2v3.6c0,1.4-0.2,2.4-0.5,3.1c-0.3,0.7-1,1.4-1.9,2.1c-0.9,0.7-1.9,1-2.9,1
	c-0.7,0-1.3-0.2-1.9-0.6c-0.5-0.4-0.9-0.8-1-1.3c-0.1-0.5-0.2-1.3-0.2-2.4v-11.1h-5.4v0.9c0.9,0,1.6,0.1,1.9,0.3
	c0.3,0.2,0.5,0.5,0.6,0.9c0.1,0.4,0.1,1.5,0.1,3.4v5.4c0,1.4,0.2,2.5,0.5,3.2c0.3,0.7,0.9,1.3,1.7,1.8c0.8,0.5,1.8,0.7,2.8,0.7
	c1.2,0,2.4-0.3,3.4-0.9c1-0.6,1.9-1.5,2.7-2.8c0,1.7,0.2,3,0.7,3.7h0.2c0.9-0.4,2.4-0.6,4.3-0.6v-0.9c-0.9,0-1.5-0.1-1.8-0.3
	c-0.3-0.2-0.5-0.6-0.6-1c-0.1-0.4-0.1-1.5-0.1-3.3v-10.5H84.5z M66.4,148.8c-1,0.8-1.9,1.4-2.7,1.8c-0.8,0.4-1.5,0.6-2.1,0.6
	c-0.7,0-1.3-0.2-1.7-0.7c-0.4-0.5-0.6-1.2-0.6-2c0-2.1,1.7-3.8,5.1-5.1l2.1-0.9V148.8z M70.4,151.3c-0.5,0-0.9-0.2-1-0.6
	c-0.2-0.4-0.2-1.4-0.2-2.9v-6.4c0-1.4-0.1-2.4-0.4-3c-0.3-0.7-0.9-1.3-1.8-1.8c-0.9-0.5-2.2-0.8-3.8-0.8c-2.2,0-3.9,0.4-4.9,1.3
	c-1.1,0.9-1.6,1.6-1.6,2.4c0,0.8,0.4,1.1,1.2,1.1c0.9,0,1.4-0.7,1.6-2c0.2-1.3,1.3-2,3.3-2c1,0,1.8,0.2,2.4,0.6
	c0.6,0.4,1,0.8,1.1,1.3c0.1,0.5,0.2,1.3,0.2,2.4v0.8l-3,1.2c-2.3,0.9-4.1,1.9-5.4,2.9c-1.3,1-2,2.2-2,3.5c0,1,0.4,1.8,1.2,2.5
	c0.8,0.6,1.7,0.9,2.8,0.9c0.8,0,1.8-0.2,2.9-0.7c1.1-0.5,2.3-1.2,3.6-2.1c0.2,0.9,0.5,1.6,1,2.1c0.5,0.5,1.2,0.7,2.1,0.7
	c2.1,0,3.1-1.1,3.3-3.3h-0.7C71.8,150.6,71.3,151.3,70.4,151.3 M54.1,136.3h-4.8v-5h-0.6c-0.2,1.6-0.8,2.8-1.6,3.7
	c-0.8,0.9-1.8,1.3-2.9,1.3v0.9h2.3v9c0,1.9,0.1,3.2,0.3,3.9c0.2,0.7,0.6,1.4,1.3,1.9c0.7,0.6,1.5,0.8,2.5,0.8c0.8,0,1.6-0.2,2.4-0.6
	c0.8-0.4,1.4-1.1,1.8-1.9l-0.6-0.4c-0.7,1.1-1.5,1.6-2.4,1.6c-0.5,0-0.9-0.2-1.4-0.5c-0.4-0.3-0.7-0.7-0.8-1.2
	c-0.1-0.5-0.2-1.5-0.2-3v-9.6h4.8V136.3z M32.6,152.8c0.2-0.7,0.5-1.3,0.9-1.7c1.1,1.2,2.4,1.8,3.9,1.8c1.4,0,2.5-0.4,3.5-1.3
	c0.9-0.9,1.4-2,1.4-3.4c0-0.9-0.2-1.8-0.7-2.8c-0.5-0.9-1.8-1.9-4.1-2.9c-1.5-0.7-2.5-1.3-3-1.8c-0.5-0.5-0.8-1.1-0.8-1.8
	c0-0.6,0.2-1.2,0.7-1.7c0.5-0.5,1.1-0.7,1.9-0.7c1,0,1.9,0.4,2.6,1.3c0.7,0.8,1.3,1.8,1.5,3h0.7v-4.9h-0.7c-0.3,0.8-0.6,1.2-0.8,1.4
	c-0.9-1.1-2.1-1.6-3.5-1.6c-1.4,0-2.4,0.5-3.2,1.4c-0.8,1-1.1,2-1.1,3c0,1.1,0.4,2,1.1,2.8c0.7,0.8,1.9,1.5,3.5,2.3
	c1.5,0.8,2.6,1.4,3.1,1.9c0.5,0.5,0.8,1.2,0.8,2c0,0.7-0.2,1.4-0.7,2c-0.5,0.6-1.2,0.9-2.2,0.9c-2.3,0-3.9-1.5-4.7-4.5h-0.8v5.2
	H32.6z M18,140.9c0.5-2.9,1.9-4.4,4.3-4.4c1,0,1.8,0.3,2.5,0.9c0.7,0.6,1,1.5,1,2.7c0,0.2,0,0.5-0.1,0.8H18z M27.3,137.6
	c-1.1-1.3-2.8-1.9-4.9-1.9c-2.2,0-4.1,0.8-5.6,2.5c-1.5,1.7-2.2,3.8-2.2,6.3c0,1.8,0.4,3.3,1.2,4.5c0.8,1.2,1.8,2.2,3,2.9
	c1.2,0.7,2.5,1,3.8,1c1.5,0,2.8-0.4,4-1.1c1.2-0.7,2.1-1.8,2.5-3.1h-0.9c-1,2.1-2.7,3.2-5.1,3.2c-1.8,0-3.1-0.7-3.9-2.1
	c-0.9-1.4-1.3-3.5-1.3-6.3c0-0.4,0-0.9,0.1-1.7h11.2C29.1,140.3,28.5,138.9,27.3,137.6 M5.4,135.7c-2,0.6-3.6,1-4.8,1.2v0.9H1
	c0.8,0,1.4,0.1,1.7,0.4c0.3,0.2,0.5,0.6,0.6,1c0,0.4,0.1,1.5,0.1,3.2v4.5c0,1.8,0,3-0.1,3.3c-0.1,0.4-0.3,0.7-0.6,0.9
	c-0.3,0.2-0.9,0.3-1.7,0.3H0.6v0.9h8.5v-0.9H8.6c-0.8,0-1.4-0.1-1.7-0.4c-0.3-0.2-0.5-0.6-0.6-1c0-0.4-0.1-1.5-0.1-3.2V144
	c0-1.4,0.1-2.5,0.3-3.4c0.2-0.8,0.7-1.6,1.5-2.4c0.8-0.8,1.5-1.1,2-1.1c0.5,0,0.8,0.3,1.1,1c0.3,1,0.8,1.4,1.5,1.4
	c0.4,0,0.7-0.1,0.9-0.4c0.3-0.3,0.4-0.6,0.4-1c0-0.6-0.2-1.1-0.7-1.6c-0.5-0.5-1.2-0.8-2-0.8c-1,0-1.9,0.4-2.9,1.2
	c-1,0.8-1.7,1.7-2.2,2.9C6,138.1,5.8,136.7,5.4,135.7"/>
<text transform="matrix(1 0 0 1 157.6504 152.306)"><tspan x="0" y="0" fill="#FFFFFF" font-family="'Baskerville'" font-size="39.9453">  </tspan><tspan x="19.2" y="0" fill="#FFFFFF" font-family="'Baskerville'" font-size="39.9453"> </tspan><tspan x="28.8" y="0" fill="#FFFFFF" font-family="'Baskerville'" font-size="39.9453"> </tspan><tspan x="38.4" y="0" fill="#FFFFFF" font-family="'Baskerville'" font-size="39.9453"> </tspan></text>
<path d="M249.8,135.7c-2,0.6-3.6,1-4.8,1.2v0.9h0.4c0.8,0,1.4,0.1,1.7,0.4c0.3,0.2,0.5,0.6,0.6,1c0,0.4,0.1,1.5,0.1,3.2v4.5
	c0,1.8,0,3-0.1,3.3c-0.1,0.4-0.3,0.7-0.6,0.9c-0.3,0.2-0.9,0.3-1.7,0.3H245v0.9h8.5v-0.9H253c-0.8,0-1.4-0.1-1.7-0.3
	c-0.3-0.2-0.5-0.6-0.6-1c0-0.4-0.1-1.5-0.1-3.2V144c0-1.4,0.1-2.5,0.3-3.4c0.2-0.8,0.7-1.6,1.5-2.4c0.8-0.8,1.5-1.1,2-1.1
	c0.5,0,0.8,0.3,1.1,1c0.3,1,0.8,1.4,1.5,1.4c0.4,0,0.7-0.1,0.9-0.4c0.3-0.3,0.4-0.6,0.4-1c0-0.6-0.2-1.1-0.7-1.6
	c-0.5-0.5-1.2-0.8-2-0.8c-1,0-1.9,0.4-2.9,1.2c-1,0.8-1.7,1.7-2.2,2.9C250.4,138.1,250.2,136.7,249.8,135.7 M237.5,148.8
	c-1,0.8-1.9,1.4-2.7,1.8c-0.8,0.4-1.5,0.6-2.1,0.6c-0.7,0-1.3-0.2-1.7-0.7c-0.4-0.5-0.6-1.2-0.6-2c0-2.1,1.7-3.8,5.1-5.1l2.1-0.9
	V148.8z M241.5,151.3c-0.5,0-0.9-0.2-1-0.6c-0.2-0.4-0.2-1.4-0.2-2.9v-6.4c0-1.4-0.1-2.4-0.4-3c-0.3-0.7-0.9-1.3-1.8-1.8
	c-0.9-0.5-2.2-0.8-3.8-0.8c-2.2,0-3.9,0.4-4.9,1.3c-1.1,0.9-1.6,1.6-1.6,2.4c0,0.8,0.4,1.1,1.2,1.1c0.9,0,1.4-0.7,1.6-2
	c0.2-1.3,1.3-2,3.3-2c1,0,1.8,0.2,2.4,0.6c0.6,0.4,1,0.8,1.1,1.3c0.1,0.5,0.2,1.3,0.2,2.4v0.8l-3,1.2c-2.3,0.9-4.1,1.9-5.4,2.9
	c-1.3,1-2,2.2-2,3.5c0,1,0.4,1.8,1.2,2.5c0.8,0.6,1.7,0.9,2.8,0.9c0.8,0,1.8-0.2,2.9-0.7c1.1-0.5,2.3-1.2,3.6-2.1
	c0.2,0.9,0.5,1.6,1,2.1c0.5,0.5,1.2,0.7,2.1,0.7c2.1,0,3.1-1.1,3.3-3.3h-0.7C242.9,150.6,242.4,151.3,241.5,151.3 M213.5,137.4
	c0.9-0.4,1.7-0.6,2.6-0.6c1.6,0,2.8,0.6,3.7,1.9c0.9,1.2,1.4,3,1.4,5.4c0,2.6-0.5,4.6-1.5,5.9c-1,1.4-2.3,2.1-4,2.1
	c-1.1,0-2.1-0.3-2.9-1c-0.8-0.6-1.3-1.3-1.6-2c-0.2-0.7-0.3-1.9-0.3-3.5v-6.2C211.8,138.4,212.6,137.8,213.5,137.4 M210.9,150
	c0.6,1,1.3,1.7,2.2,2.2c0.9,0.5,1.9,0.7,3.1,0.7c2.4,0,4.4-0.8,5.9-2.5c1.5-1.7,2.3-3.7,2.3-6.2c0-2.5-0.7-4.5-2.2-6.1
	c-1.5-1.6-3.4-2.4-5.7-2.4c-1,0-1.9,0.2-2.9,0.6c-0.9,0.4-1.9,1-2.8,1.8v-12.7h-0.4c-0.4,0.2-1.1,0.4-2.2,0.5
	c-1.1,0.2-2,0.3-2.8,0.3v0.9c0.9,0,1.5,0.1,1.8,0.3c0.3,0.2,0.6,0.6,0.6,1c0.1,0.5,0.1,1.5,0.1,3v21.4h0.8
	C209.4,151.8,210.1,150.8,210.9,150"/>
<line fill="none" stroke="#727A35" stroke-width="1.332" x1="0" y1="4.7" x2="259.8" y2="4.7"/>
<line fill="none" stroke="#727A35" stroke-width="1.332" x1="1" y1="112.6" x2="260.8" y2="112.6"/>
<path fill="#727A35" d="M174.7,145.3c0-3.6,3.1-5.8,3.8-5.8c0.8,0,1.4,2,4.2,5.9c3.3,4.5,4.9,5.3,4.9,6c0,0.8-2.9,1.8-4.9,1.8
	C176.7,153.2,174.7,148.7,174.7,145.3 M179.2,130.2c0-2,1.2-4.5,3.8-4.5c2.2,0,3.6,1.9,3.6,4.3c0,3.9-5.1,6.2-5.6,6.2
	C180,136.1,179.2,131.9,179.2,130.2 M198.5,154.4v-0.9l-0.8-0.2c-1.2-0.2-5.6-2.2-5.6-3.3c0-0.5,2.7-2.9,2.7-7.4
	c0-3-1.7-4.5-3.2-4.5c-0.4,0-0.8,0.3-1.2,0.4l-2.1,0.9v0.5c1.1,0.5,3.8,1.9,3.8,4.9c0,1.6-0.8,3.9-1.6,3.9c-1.2,0-8.9-9.7-8.9-11
	c0-1,7.7-3.4,7.7-8.4c0-3.4-2.2-5.6-5.1-5.6c-3,0-7.8,1.9-7.8,7.3c0,4.4,1.5,5.3,1.5,6.5c0,0.8-6.6,2.6-6.6,8.3
	c0,4.9,3.6,8.9,9.6,8.9c5.4,0,7.7-2.4,8.5-2.4c0.9,0,2.1,1.8,4.5,1.8H198.5z"/>
</svg>
