<?xml version="1.0" encoding="utf-8"?>
<!-- Generator: Adobe Illustrator 15.0.2, SVG Export Plug-In  -->
<!DOCTYPE svg PUBLIC "-//W3C//DTD SVG 1.0//EN" "http://www.w3.org/TR/2001/REC-SVG-20010904/DTD/svg10.dtd" [
	<!ENTITY ns_flows "http://ns.adobe.com/Flows/1.0/">
]>
<svg version="1.0"
	 xmlns="http://www.w3.org/2000/svg" xmlns:xlink="http://www.w3.org/1999/xlink" xmlns:a="http://ns.adobe.com/AdobeSVGViewerExtensions/3.0/"
	 x="0px" y="0px" width="752px" height="152px" viewBox="0 0 752 152" overflow="visible" enable-background="new 0 0 752 152"
	 xml:space="preserve">
<defs>
</defs>
<path fill="none" stroke="#FEB53D" stroke-width="0.2468" d="M372.66,44.76c-56.37,0.11-94.27-10.52-94.27-10.52
	c-1.17-0.35-2.14-1.52-1.36-2.98"/>
<path fill="#FFFFFF" d="M372,90.64c57.5,0,86.3-37.9,94.76-52.54l0,0l0.5-0.13c1.77-0.54,3.01-1.68,3.01-3.15
	c0-1.47-1.24-2.73-3.01-3.27l0,0c0,0-38.47-10.87-95.26-10.75l0,0c-56.79-0.11-95.27,10.75-95.27,10.75l0,0
	c-1.77,0.54-3.01,1.8-3.01,3.27c0,1.47,1.24,2.61,3.01,3.15l0.5,0.13l0-0.01C285.7,52.74,314.5,90.64,372,90.64L372,90.64z"/>
<path fill="#FFFFFF" d="M277.61,37.53c7.5,1.88,43.41,10.15,94.01,10.05h0.68c50.16,0.1,85.87-8.02,93.81-10l0.62-0.16l0,0l0.5-0.13
	c1.77-0.53,3.01-1.65,3.01-3.08c0-1.44-1.24-2.67-3.01-3.2l0,0c0,0-38.47-10.63-95.26-10.52l0,0
	c-56.79-0.11-95.27,10.52-95.27,10.52l0,0c-1.77,0.53-3.01,1.76-3.01,3.2c0,1.44,1.24,2.55,3.01,3.08l0.5,0.13"/>
<path fill="#FFFFFF" d="M372.66,44.76c-56.37,0.11-94.26-10.52-94.26-10.52c-1.17-0.35-2.14-1.52-1.36-2.98l0,0
	c-1.77,0.54-3.01,1.8-3.01,3.27c0,1.47,1.24,2.61,3.01,3.15l0.5,0.13c6.49,1.69,42.82,10.48,94.43,10.38h0.68
	c51.61,0.1,87.93-8.69,94.43-10.38l0.5-0.13c1.77-0.54,3.01-1.68,3.01-3.15c0-1.47-1.24-2.73-3.01-3.27l0,0
	c0.78,1.46-0.19,2.63-1.35,2.98c0,0-37.9,10.64-94.27,10.52"/>
<path fill="#FFFFFF" d="M371.95,23.92c56.37-0.11,94.27,10.52,94.27,10.52c1.17,0.35,2.14,1.52,1.35,2.98l0,0
	c1.77-0.54,3.01-1.8,3.01-3.27c0-1.47-1.24-2.61-3.01-3.15l-0.5-0.13c-6.49-1.69-42.82-10.48-94.43-10.38h-0.68
	c-51.61-0.1-87.94,8.69-94.43,10.38l-0.5,0.13c-1.77,0.54-3.01,1.68-3.01,3.15c0,1.47,1.24,2.73,3.01,3.27l0,0
	c-0.78-1.46,0.18-2.63,1.36-2.98c0,0,37.9-10.64,94.26-10.52"/>
<path fill="#FFFFFF" d="M2.61,55.79c2.7,1.64,8.3,3.48,12.65,3.48c4.44,0,6.27-1.45,6.27-3.86c0-2.41-1.45-3.67-6.85-5.41
	C4.83,46.72,1.06,41.41,1.16,35.91c0-8.88,7.53-15.54,19.21-15.54c5.5,0,10.33,1.35,13.23,2.8l-2.51,10.04
	c-2.12-1.06-6.27-2.61-10.23-2.61c-3.57,0-5.6,1.45-5.6,3.76c0,2.22,1.83,3.48,7.63,5.41c8.98,3.09,12.65,7.63,12.74,14.48
	c0,8.88-6.85,15.35-20.37,15.35C9.07,69.6,3.57,68.15,0,66.22L2.61,55.79z"/>
<path fill="#FFFFFF" d="M52.7,49.71c0.48,6.08,6.47,8.98,13.32,8.98c5.02,0,9.07-0.68,13.03-2.03l1.93,9.94
	c-4.83,2.03-10.71,2.99-17.09,2.99c-16.02,0-25.19-9.27-25.19-24.04c0-11.97,7.53-25.19,23.84-25.19
	c15.25,0,21.04,11.87,21.04,23.55c0,2.51-0.29,4.73-0.48,5.79H52.7z M69.98,39.67c0-3.57-1.54-9.56-8.21-9.56
	c-6.27,0-8.78,5.69-9.17,9.56H69.98z"/>
<path fill="#FFFFFF" d="M87.55,36.49c0-5.89-0.19-10.81-0.39-15.06h12.74l0.68,6.56h0.29c1.93-3.09,6.66-7.63,14.58-7.63
	c9.65,0,16.89,6.47,16.89,20.37v27.9h-14.67V42.47c0-6.08-2.12-10.23-7.43-10.23c-4.05,0-6.47,2.8-7.53,5.5
	c-0.39,0.96-0.48,2.32-0.48,3.67v27.22H87.55V36.49z"/>
<path fill="#FFFFFF" d="M164.97,21.43l7.05,23.26c0.77,2.7,1.74,6.27,2.32,8.78h0.29c0.68-2.61,1.45-6.08,2.12-8.88l5.79-23.17
	h15.73l-11,31.08c-6.76,18.82-11.29,26.26-16.6,30.99c-5.02,4.44-10.43,6.08-14.19,6.47l-3.09-12.36c1.83-0.39,4.15-1.25,6.37-2.51
	c2.22-1.16,4.73-3.57,6.08-5.89c0.48-0.77,0.77-1.55,0.77-2.12s-0.1-1.25-0.58-2.41l-17.38-43.25H164.97z"/>
<path fill="#FFFFFF" d="M238.23,57.24c0,4.44,0.19,8.78,0.77,11.39h-13.22l-0.87-4.73h-0.29c-3.09,3.76-7.92,5.79-13.51,5.79
	c-9.56,0-15.25-6.95-15.25-14.48c0-12.26,11-18.05,27.7-18.05v-0.58c0-2.51-1.35-6.08-8.59-6.08c-4.83,0-9.94,1.64-13.03,3.48
	l-2.7-9.36c3.28-1.83,9.75-4.25,18.34-4.25c15.73,0,20.66,9.27,20.66,20.37V57.24z M224.04,46.33c-7.72,0-13.71,1.83-13.71,7.43
	c0,3.76,2.51,5.6,5.79,5.6c3.57,0,6.66-2.41,7.63-5.41c0.19-0.77,0.29-1.64,0.29-2.51V46.33z"/>
<path fill="#FFFFFF" d="M252.33,15.64c-4.63,0-7.63-3.28-7.63-7.34c0-4.15,3.09-7.34,7.82-7.34s7.63,3.19,7.72,7.34
	c0,4.05-2.99,7.34-7.82,7.34H252.33z M245.09,68.63v-47.2h14.67v47.2H245.09z"/>
<path fill="#FFFFFF" d="M484.34,55.79c2.7,1.64,8.3,3.48,12.65,3.48c4.44,0,6.27-1.45,6.27-3.86c0-2.41-1.45-3.67-6.85-5.41
	c-9.85-3.28-13.61-8.59-13.51-14.09c0-8.88,7.53-15.54,19.21-15.54c5.5,0,10.33,1.35,13.22,2.8l-2.51,10.04
	c-2.12-1.06-6.27-2.61-10.23-2.61c-3.57,0-5.6,1.45-5.6,3.76c0,2.22,1.83,3.48,7.63,5.41c8.98,3.09,12.65,7.63,12.74,14.48
	c0,8.88-6.85,15.35-20.37,15.35c-6.18,0-11.68-1.45-15.25-3.38L484.34,55.79z"/>
<path fill="#FFFFFF" d="M534.73,49.71c0.48,6.08,6.47,8.98,13.32,8.98c5.02,0,9.08-0.68,13.03-2.03l1.93,9.94
	c-4.83,2.03-10.71,2.99-17.08,2.99c-16.02,0-25.19-9.27-25.19-24.04c0-11.97,7.53-25.19,23.84-25.19
	c15.25,0,21.04,11.87,21.04,23.55c0,2.51-0.29,4.73-0.48,5.79H534.73z M552,39.67c0-3.57-1.54-9.56-8.21-9.56
	c-6.27,0-8.78,5.69-9.17,9.56H552z"/>
<path fill="#FFFFFF" d="M569.57,36.49c0-5.89-0.19-10.81-0.39-15.06h12.74l0.68,6.56h0.29c1.93-3.09,6.66-7.63,14.58-7.63
	c9.65,0,16.89,6.47,16.89,20.37v27.9h-14.67V42.47c0-6.08-2.12-10.23-7.43-10.23c-4.05,0-6.47,2.8-7.53,5.5
	c-0.39,0.96-0.48,2.32-0.48,3.67v27.22h-14.67V36.49z"/>
<path fill="#FFFFFF" d="M635.98,0h14.67v68.63h-14.67V0z"/>
<path fill="#FFFFFF" d="M669,49.71c0.48,6.08,6.47,8.98,13.32,8.98c5.02,0,9.07-0.68,13.03-2.03l1.93,9.94
	c-4.83,2.03-10.71,2.99-17.08,2.99c-16.02,0-25.19-9.27-25.19-24.04c0-11.97,7.53-25.19,23.84-25.19
	c15.25,0,21.04,11.87,21.04,23.55c0,2.51-0.29,4.73-0.48,5.79H669z M686.28,39.67c0-3.57-1.54-9.56-8.21-9.56
	c-6.27,0-8.78,5.69-9.17,9.56H686.28z"/>
<path fill="#FFFFFF" d="M718.52,41.31h0.19c1.06-2.03,2.22-3.96,3.38-5.7l9.56-14.19h17.67l-16.89,19.11l19.3,28.09h-18.05
	l-11.49-19.4l-3.67,4.63v14.77h-14.67V0h14.67V41.31z"/>
<path fill="#FFFFFF" d="M537.92,76.91v3.47h3.25v2.55h-3.25v5.94c0,1.67,0.44,2.5,1.75,2.5c0.61,0,0.94-0.03,1.33-0.14l0.06,2.58
	c-0.5,0.2-1.42,0.36-2.47,0.36c-1.28,0-2.3-0.42-2.94-1.11c-0.75-0.78-1.08-2.03-1.08-3.8v-6.33h-1.92v-2.55h1.92v-2.53
	L537.92,76.91z"/>
<path fill="#FFFFFF" d="M543.64,74.16h3.42v8.05h0.06c0.42-0.64,1-1.17,1.69-1.53c0.69-0.39,1.5-0.61,2.36-0.61
	c2.3,0,4.72,1.53,4.72,5.86v7.97h-3.42v-7.61c0-1.94-0.72-3.44-2.61-3.44c-1.33,0-2.28,0.89-2.66,1.92
	c-0.11,0.31-0.14,0.67-0.14,1.03v8.11h-3.42V74.16z"/>
<path fill="#FFFFFF" d="M569.9,90.65c0,1.22,0.06,2.42,0.22,3.25h-3.08l-0.25-1.5h-0.08c-0.8,1.06-2.22,1.81-4,1.81
	c-2.72,0-4.25-1.97-4.25-4.03c0-3.39,3.03-5.13,8.02-5.11v-0.22c0-0.89-0.36-2.36-2.75-2.36c-1.33,0-2.72,0.42-3.63,1l-0.67-2.22
	c1-0.61,2.75-1.19,4.89-1.19c4.33,0,5.58,2.75,5.58,5.72V90.65z M566.57,87.29c-2.42-0.03-4.72,0.47-4.72,2.53
	c0,1.33,0.86,1.94,1.94,1.94c1.39,0,2.36-0.89,2.69-1.86c0.08-0.25,0.08-0.5,0.08-0.75V87.29z"/>
<path fill="#FFFFFF" d="M575.09,78.44c-1.14,0-1.89-0.83-1.89-1.83c0-1.05,0.78-1.86,1.92-1.86c1.17,0,1.89,0.8,1.92,1.86
	c0,1-0.75,1.83-1.92,1.83H575.09z M573.4,93.9V80.38h3.42V93.9H573.4z"/>
<path fill="#FFFFFF" d="M586.03,84.74c0-1.83-0.03-3.16-0.11-4.36h2.94l0.14,2.55h0.08c0.67-1.89,2.25-2.86,3.72-2.86
	c0.33,0,0.53,0.03,0.81,0.08v3.19c-0.31-0.06-0.61-0.08-1.03-0.08c-1.61,0-2.75,1.03-3.05,2.58c-0.05,0.31-0.08,0.67-0.08,1.03v7.02
	h-3.41V84.74z"/>
<path fill="#FFFFFF" d="M597.49,78.44c-1.14,0-1.89-0.83-1.89-1.83c0-1.05,0.78-1.86,1.92-1.86c1.17,0,1.89,0.8,1.92,1.86
	c0,1-0.75,1.83-1.92,1.83H597.49z M595.8,93.9V80.38h3.42V93.9H595.8z"/>
<path fill="#FFFFFF" d="M612.73,93.48c-0.72,0.33-2.14,0.69-3.83,0.69c-4.22,0-6.97-2.72-6.97-6.91c0-4.05,2.78-7.19,7.52-7.19
	c1.25,0,2.53,0.28,3.3,0.61l-0.61,2.58c-0.55-0.28-1.36-0.53-2.58-0.53c-2.61,0-4.17,1.92-4.14,4.39c0,2.78,1.8,4.36,4.14,4.36
	c1.17,0,2.03-0.25,2.69-0.53L612.73,93.48z"/>
<path fill="#FFFFFF" d="M617.31,88.1c0.08,2.44,2,3.5,4.16,3.5c1.58,0,2.69-0.25,3.75-0.61l0.5,2.33c-1.17,0.5-2.78,0.86-4.72,0.86
	c-4.38,0-6.97-2.69-6.97-6.83c0-3.75,2.28-7.27,6.61-7.27c4.39,0,5.83,3.61,5.83,6.58c0,0.64-0.05,1.14-0.11,1.44H617.31z
	 M623.25,85.71c0.03-1.25-0.53-3.3-2.8-3.3c-2.11,0-3,1.92-3.13,3.3H623.25z"/>
<path fill="#FFFFFF" d="M646.68,93.9c-0.47-0.47-0.89-0.94-1.47-1.55c-1.39,1.19-3.14,1.86-5.28,1.86c-4.11,0-6.16-2.58-6.16-5.27
	c0-2.53,1.47-4.28,3.61-5.41V83.4c-0.89-1.03-1.5-2.39-1.5-3.72c0-2.36,1.78-4.8,5.22-4.8c2.64,0,4.67,1.61,4.67,4.19
	c0,1.92-1.14,3.5-3.89,4.89v0.11c1.3,1.47,2.72,3.14,3.78,4.27c0.8-1.25,1.36-3,1.67-4.97h3.08c-0.5,2.89-1.39,5.25-2.92,7
	c1.03,1.17,2.05,2.3,3.19,3.53H646.68z M640.46,91.68c1.33,0,2.42-0.56,3.14-1.28c-1.14-1.17-2.91-3.14-4.69-5.16
	c-0.89,0.58-1.89,1.58-1.89,3.14c0,1.83,1.36,3.3,3.42,3.3H640.46z M640.94,77.08c-1.28,0-1.97,1.08-1.97,2.28
	c0,1.11,0.53,2.03,1.33,3c1.61-1,2.53-1.86,2.53-3.17c0-1-0.58-2.11-1.86-2.11H640.94z"/>
<path fill="#FFFFFF" d="M658.17,84.4c0-1.55-0.06-2.86-0.11-4.02h2.97l0.17,2.03h0.08c0.61-1.06,2.08-2.33,4.33-2.33
	c2.36,0,4.8,1.53,4.8,5.8v8.02H667v-7.63c0-1.94-0.72-3.42-2.58-3.42c-1.36,0-2.3,0.97-2.67,2c-0.11,0.28-0.17,0.69-0.17,1.08v7.97
	h-3.42V84.4z"/>
<path fill="#FFFFFF" d="M679.85,94.2c-3.8,0-6.77-2.61-6.77-6.97c0-4.44,2.92-7.16,7-7.16c4.02,0,6.72,2.83,6.72,6.94
	c0,4.97-3.5,7.19-6.91,7.19H679.85z M679.97,91.73c1.94,0,3.3-1.89,3.3-4.64c0-2.11-0.94-4.55-3.28-4.55
	c-2.42,0-3.39,2.36-3.39,4.61c0,2.61,1.3,4.58,3.33,4.58H679.97z"/>
<path fill="#FFFFFF" d="M695.4,94.2c-3.8,0-6.77-2.61-6.77-6.97c0-4.44,2.92-7.16,7-7.16c4.03,0,6.72,2.83,6.72,6.94
	c0,4.97-3.5,7.19-6.91,7.19H695.4z M695.51,91.73c1.94,0,3.3-1.89,3.3-4.64c0-2.11-0.94-4.55-3.28-4.55c-2.42,0-3.39,2.36-3.39,4.61
	c0,2.61,1.3,4.58,3.33,4.58H695.51z"/>
<path fill="#FFFFFF" d="M717.5,74.16V90.1c0,1.39,0.05,2.89,0.11,3.8h-3.03l-0.17-2.14h-0.06c-0.8,1.5-2.44,2.44-4.39,2.44
	c-3.25,0-5.8-2.75-5.8-6.91c-0.03-4.53,2.8-7.22,6.05-7.22c1.86,0,3.19,0.75,3.8,1.75h0.06v-7.66H717.5z M714.08,86.01
	c0-0.28-0.03-0.64-0.08-0.92c-0.31-1.3-1.39-2.39-2.94-2.39c-2.19,0-3.41,1.94-3.41,4.44c0,2.5,1.22,4.3,3.39,4.3
	c1.39,0,2.61-0.94,2.94-2.42c0.08-0.31,0.11-0.64,0.11-1V86.01z"/>
<path fill="#FFFFFF" d="M721.05,74.16h3.41V93.9h-3.41V74.16z"/>
<path fill="#FFFFFF" d="M730.49,88.1c0.08,2.44,2,3.5,4.16,3.5c1.58,0,2.69-0.25,3.75-0.61l0.5,2.33c-1.17,0.5-2.78,0.86-4.72,0.86
	c-4.39,0-6.97-2.69-6.97-6.83c0-3.75,2.28-7.27,6.61-7.27c4.39,0,5.83,3.61,5.83,6.58c0,0.64-0.06,1.14-0.11,1.44H730.49z
	 M736.43,85.71c0.03-1.25-0.53-3.3-2.8-3.3c-2.11,0-3,1.92-3.14,3.3H736.43z"/>
<path fill="#FFFFFF" d="M742.15,90.73c0.75,0.47,2.22,1,3.44,1c1.5,0,2.17-0.64,2.17-1.53c0-0.92-0.56-1.36-2.22-1.97
	c-2.64-0.89-3.72-2.33-3.72-3.94c0-2.39,1.97-4.22,5.11-4.22c1.5,0,2.8,0.36,3.61,0.8l-0.69,2.39c-0.56-0.33-1.67-0.78-2.86-0.78
	c-1.22,0-1.89,0.61-1.89,1.44c0,0.86,0.64,1.25,2.36,1.89c2.47,0.86,3.58,2.11,3.61,4.11c0,2.47-1.91,4.25-5.49,4.25
	c-1.64,0-3.11-0.39-4.11-0.94L742.15,90.73z"/>
<path fill="#FFA616" d="M399.45,61.94c4.12,4.4,2.48,11.23-4.23,11.26c-5.04,0.02-8.74-5.02-10.46-9.12
	c-2.94-6.99-1-17.05,5.18-21.64c2.53-1.88-0.64-5.6-3.16-3.72c-10.37,7.71-11.06,26.72-1.17,35.13c5.3,4.5,12.44,5.97,17.94,1.01
	c4.92-4.44,3.74-11.68-0.37-16.07C401.03,56.49,397.29,59.64,399.45,61.94L399.45,61.94z"/>
<path fill="#FFA616" d="M375.08,33.8c-14.84-2.6-30.2,6.16-29.11,22.69c0.55,8.38,4.42,15.84,8.97,22.75
	c5.14,7.8,10.13,15.65,14.07,24.13c5,10.74,9.4,34.71-7.29,37.93c-3.63,0.7-7.68,0.03-10.24-2.75c-4.45-4.85-1.01-18.59,7.1-13.56
	c5.55,3.44,11.41-4.87,5.83-8.33c-7.98-4.94-17.43-2.08-22.62,5.44c-4.17,6.05-3.24,14.89,0.44,20.87
	c6.78,11.03,22.73,10.88,31.99,3.34c16.62-13.53,8.63-39.12,0.31-54.61c-5.23-9.73-12.48-18.37-16.81-28.55
	c-2.27-5.34-2.71-12.29,1.79-16.56c3.77-3.59,9.87-3.49,14.61-2.66C380.59,45.05,381.48,34.92,375.08,33.8L375.08,33.8z"/>
<path fill="#FFA616" d="M445.16,38.72c-16.74,2.9-42.25,6.1-73.19,6.04l0,0c-33.4,0.07-60.38-3.64-76.93-6.7l0,0
	c0,0,20.52-11.05,37.05-22.07c10.92-7.29,29.66-6.27,40.47,0c16.81,9.75,27.14,19.35,45.21,19.06
	C425.3,34.93,439.36,34.17,445.16,38.72L445.16,38.72z"/>
</svg>
