<?xml version="1.0" encoding="utf-8"?>
<!-- Generator: Adobe Illustrator 16.2.1, SVG Export Plug-In . SVG Version: 6.00 Build 0)  -->
<!DOCTYPE svg PUBLIC "-//W3C//DTD SVG 1.1//EN" "http://www.w3.org/Graphics/SVG/1.1/DTD/svg11.dtd">
<svg version="1.1" id="Layer_1" xmlns="http://www.w3.org/2000/svg" xmlns:xlink="http://www.w3.org/1999/xlink" x="0px" y="0px"
	 width="458.607px" height="145.427px" viewBox="0 0 458.607 145.427" enable-background="new 0 0 458.607 145.427"
	 xml:space="preserve">
<g>
	<defs>
		<rect id="SVGID_1_" width="458.607" height="145.424"/>
	</defs>
	<clipPath id="SVGID_2_">
		<use xlink:href="#SVGID_1_"  overflow="visible"/>
	</clipPath>
	<path clip-path="url(#SVGID_2_)" fill="#5FBB46" d="M402.673,0.001c-2.773,7.5-11.27,5.102-21.891,5.357
		c-16.048,0.385-22.354,9.995-22.354,25.349c4.39-7.142,13.911-6.264,25.139-6.337C396.622,24.284,402.673,13.771,402.673,0.001"/>
	<path clip-path="url(#SVGID_2_)" fill="#6F6558" d="M14.513,29.653h54.307c4.879,0,6.726,1.553,3.867,5.74
		C56.532,59.065,41.711,80.546,41.711,80.546h27.884l-6.672,22.174H5.282c-3.992,0-5.282-1.742-2.698-5.804
		c12.698-19.958,30.521-45.771,30.521-45.771L7.981,51.222L14.513,29.653z"/>
	<path clip-path="url(#SVGID_2_)" fill="#6F6558" d="M337.003,38.838c-4.771-5.88-11.999-9.115-20.355-9.115
		c-7.688,0-15.319,2.788-21.748,7.4c-4.718-4.78-11.288-7.4-18.785-7.4c-17.262,0-34.264,14.03-37.899,31.278
		c-2.202,10.448-8.812,41.797-8.812,41.797h22.566l8.697-41.242c1.084-5.14,6.142-9.325,11.268-9.325
		c2.317,0,4.303,0.877,5.594,2.468c1.167,1.439,1.665,3.32,1.44,5.371c-0.074,0.31-0.153,0.618-0.22,0.931l-8.796,41.797h0.072
		h22.495h0.072l8.677-41.242c0.065-0.31,0.116-0.617,0.175-0.927c1.457-4.708,6.207-8.398,11.026-8.398
		c2.314,0,4.3,0.877,5.591,2.468c1.344,1.652,1.799,3.891,1.29,6.302l-8.814,41.797h22.567l8.699-41.242
		C343.618,52.959,341.911,44.891,337.003,38.838"/>
	<path clip-path="url(#SVGID_2_)" fill="#5FBB46" d="M371.73,29.546c-7.923,0-13.065,3.535-14.728,9.848l-13.06,63.645h24.146
		c0,0,11.244-53.441,12.713-60.304C382.569,34.492,379.827,29.546,371.73,29.546"/>
	<path clip-path="url(#SVGID_2_)" fill="#6F6558" d="M117.638,29.788c-21.449-0.015-42.061,16.58-46.034,37.065
		c-3.98,20.481,10.19,37.098,31.638,37.108c21.45,0.011,42.063-16.582,46.035-37.065C153.253,46.412,139.085,29.8,117.638,29.788
		 M126.771,66.561c-1.637,8.436-10.122,15.269-18.956,15.265c-8.836-0.003-14.67-6.846-13.03-15.282
		c1.638-8.433,10.122-15.269,18.958-15.263C122.575,51.284,128.408,58.128,126.771,66.561"/>
	<path clip-path="url(#SVGID_2_)" fill="#6F6558" d="M199.348,29.788c-21.452-0.015-42.062,16.58-46.035,37.065
		c-3.979,20.481,10.188,37.098,31.638,37.108c21.449,0.011,42.062-16.582,46.037-37.065C234.96,46.412,220.796,29.8,199.348,29.788
		 M208.481,66.561c-1.638,8.436-10.125,15.269-18.956,15.265c-8.833-0.003-14.671-6.846-13.033-15.282
		c1.64-8.433,10.122-15.269,18.959-15.263C204.28,51.284,210.118,58.128,208.481,66.561"/>
	<path clip-path="url(#SVGID_2_)" fill="#5FBB46" d="M445.214,83.297l4.85-22.022c1.812-8.6,0.108-16.669-4.802-22.722
		c-4.767-5.876-11.997-9.158-20.356-9.114c-20.366,0.107-34.261,14.03-37.896,31.276c-2.205,10.449-8.816,42.326-8.816,42.326
		h22.446l8.818-41.767c1.083-5.144,6.141-9.329,11.271-9.329c2.314,0,4.298,0.879,5.594,2.471c1.34,1.65,1.799,3.89,1.29,6.298
		l-8.816,42.326h19.935c11.467,0,19.877-12.135,19.877-25.022C455.998,81.558,451.699,83.297,445.214,83.297"/>
	<polygon clip-path="url(#SVGID_2_)" fill="#F78E1E" points="86.021,128.086 94.937,117.869 100.943,117.869 100.943,145.424 
		94.035,145.424 94.035,128.228 86.536,136.865 85.499,136.865 78.01,128.228 78.01,145.424 71.098,145.424 71.098,117.869 
		77.098,117.869 	"/>
	<path clip-path="url(#SVGID_2_)" fill="#F78E1E" d="M151.899,117.869l12.321,27.559h-7.432l-2.284-5.442h-12.424l-2.07,5.442
		h-7.323l11.204-27.559H151.899z M152.481,135.168l-4.496-10.71l-4.072,10.71H152.481z"/>
	<path clip-path="url(#SVGID_2_)" fill="#F78E1E" d="M196.003,117.871h12.392c2.685,0,4.87,0.772,6.549,2.313
		c1.685,1.545,2.525,3.417,2.525,5.611c0,3.034-1.59,5.278-4.769,6.74c1.394,0.63,2.718,2.326,3.974,5.082
		c1.254,2.759,2.467,5.367,3.633,7.807h-7.582c-0.454-0.909-1.239-2.636-2.368-5.186c-1.124-2.549-2.084-4.19-2.885-4.912
		c-0.803-0.723-1.661-1.088-2.574-1.088h-1.982v11.186h-6.912V117.871z M202.915,122.918v6.276h3.652
		c1.163,0,2.09-0.279,2.767-0.822c0.683-0.544,1.026-1.323,1.026-2.336c0-2.078-1.318-3.118-3.953-3.118H202.915z"/>
	<polygon clip-path="url(#SVGID_2_)" fill="#F78E1E" points="275.402,117.869 266.372,130.83 278.623,145.424 269.987,145.424 
		258.984,132.505 258.984,145.424 252.069,145.424 252.069,117.869 258.984,117.869 258.984,130.276 267.805,117.869 	"/>
	<polygon clip-path="url(#SVGID_2_)" fill="#F78E1E" points="330.478,140.376 330.478,145.424 310.029,145.424 310.029,117.871 
		330.202,117.871 330.202,122.918 316.939,122.918 316.939,128.699 329.586,128.699 329.586,133.75 316.939,133.75 316.939,140.376 
			"/>
	<polygon clip-path="url(#SVGID_2_)" fill="#F78E1E" points="389.389,117.869 389.389,122.917 379.341,122.917 379.341,145.424 
		372.431,145.424 372.431,122.917 362.384,122.917 362.384,117.869 	"/>
</g>
</svg>
