<?xml version="1.0" encoding="utf-8"?>
<!-- Generator: Adobe Illustrator 18.1.0, SVG Export Plug-In . SVG Version: 6.00 Build 0)  -->
<svg version="1.1" id="Layer_1" xmlns="http://www.w3.org/2000/svg" xmlns:xlink="http://www.w3.org/1999/xlink" x="0px" y="0px"
	 width="108.4px" height="15.3px" viewBox="-775 623 108.4 15.3" enable-background="new -775 623 108.4 15.3" xml:space="preserve"
	>
<g>
	<g>
		<g>
			<g>
				<path fill="#FFFFFF" d="M-775,623.1h3.2c0.6,0,1.1,0.1,1.6,0.3c0.4,0.2,0.8,0.4,1.2,0.8s0.6,0.8,0.8,1.4s0.3,1.3,0.3,2.1
					c0,0.7,0,1.2-0.1,1.7s-0.3,0.9-0.5,1.4c-0.3,0.5-0.7,0.8-1.2,1.2c-0.5,0.3-1.1,0.4-2,0.4h-1.1v5.9h-2.2V623.1L-775,623.1z
					 M-772.9,630.2h1c0.4,0,0.8-0.1,1-0.2c0.3-0.2,0.4-0.3,0.6-0.5s0.2-0.5,0.2-0.8s0-0.7,0-1s0-0.7,0-1c0-0.3-0.1-0.6-0.2-0.8
					c-0.2-0.2-0.3-0.3-0.5-0.5s-0.6-0.2-1-0.2h-1.1V630.2L-772.9,630.2z"/>
				<path fill="#FFFFFF" d="M-764.8,623.1h1.8l3.4,15h-2.1l-0.7-3.2h-3l-0.7,3.2h-2L-764.8,623.1z M-763.9,627.4L-763.9,627.4
					l-1.1,5.4h2.1L-763.9,627.4z"/>
				<path fill="#FFFFFF" d="M-758.5,623.1h3.5c2.5,0,3.8,1.4,3.8,4.4c0,0.8-0.2,1.6-0.4,2.2c-0.3,0.7-0.8,1.1-1.4,1.5l2.3,6.9h-2.3
					l-2-6.4h-1.3v6.4h-2.1V623.1L-758.5,623.1z M-756.4,629.8h1.2c0.4,0,0.7-0.1,0.9-0.2s0.4-0.3,0.5-0.4s0.2-0.4,0.3-0.7
					s0.1-0.7,0.1-1c0-0.4,0-0.7-0.1-1c-0.1-0.3-0.2-0.5-0.3-0.8c-0.2-0.2-0.3-0.3-0.6-0.4s-0.6-0.2-0.9-0.2h-1.1V629.8L-756.4,629.8
					z"/>
				<path fill="#FFFFFF" d="M-749.5,623.1h2.1v15h-2.1C-749.5,638.1-749.5,623.1-749.5,623.1z"/>
				<path fill="#FFFFFF" d="M-738.3,627.4h-2.1v-0.5c0-0.5-0.1-0.9-0.3-1.3s-0.7-0.5-1.2-0.5c-0.3,0-0.5,0.1-0.7,0.2
					c-0.2,0.1-0.3,0.3-0.4,0.4s-0.2,0.4-0.3,0.6c-0.1,0.3-0.1,0.5-0.1,0.7c0,0.3,0,0.6,0,0.8s0.1,0.4,0.2,0.5
					c0.1,0.2,0.3,0.3,0.3,0.4c0.2,0.1,0.4,0.3,0.7,0.3l1.7,0.7c0.5,0.2,0.8,0.4,1.2,0.7s0.5,0.5,0.7,0.8s0.3,0.7,0.3,1.1
					s0.1,0.9,0.1,1.4c0,0.7-0.1,1.2-0.2,1.8c-0.2,0.6-0.3,1-0.7,1.4c-0.3,0.4-0.7,0.7-1.2,0.9s-1,0.3-1.8,0.3c-0.5,0-1-0.1-1.4-0.3
					s-0.8-0.4-1.2-0.8s-0.6-0.7-0.8-1.1s-0.3-0.9-0.3-1.4v-0.8h2.1v0.7c0,0.4,0.1,0.8,0.3,1.1s0.7,0.5,1.2,0.5
					c0.3,0,0.7-0.1,0.8-0.2s0.3-0.3,0.5-0.4c0.1-0.2,0.2-0.4,0.2-0.7s0.1-0.6,0.1-0.9c0-0.4,0-0.7-0.1-0.9c0-0.3-0.1-0.5-0.2-0.6
					c-0.1-0.2-0.3-0.3-0.4-0.4s-0.4-0.2-0.7-0.3l-1.5-0.7c-0.9-0.4-1.5-0.8-1.9-1.5s-0.5-1.4-0.5-2.4c0-0.6,0.1-1.1,0.3-1.6
					s0.4-0.9,0.7-1.3c0.3-0.3,0.7-0.7,1.2-0.8c0.5-0.3,1-0.3,1.6-0.3c0.5,0,1,0.1,1.4,0.3c0.4,0.2,0.8,0.5,1.1,0.8
					c0.3,0.3,0.6,0.7,0.7,1.1c0.2,0.4,0.3,0.8,0.3,1.3L-738.3,627.4L-738.3,627.4z"/>
				<path fill="#FFFFFF" d="M-736.7,623.1h2.1v6.4h2.6v-6.4h2.1v15h-2.1v-6.7h-2.6v6.7h-2.1V623.1z"/>
				<path fill="#FFFFFF" d="M-727.7,623.1h6.4v2h-4.2v4.4h3.7v2h-3.7v4.4h4.2v2.1h-6.4C-727.7,638.1-727.7,623.1-727.7,623.1z"/>
				<path fill="#FFFFFF" d="M-712.8,627.4h-2.1v-0.5c0-0.5-0.1-0.9-0.3-1.3s-0.7-0.5-1.2-0.5c-0.3,0-0.5,0.1-0.7,0.2
					s-0.3,0.3-0.4,0.4s-0.2,0.4-0.3,0.6c-0.1,0.3-0.1,0.5-0.1,0.7c0,0.3,0,0.6,0,0.8s0.1,0.4,0.2,0.5c0.1,0.2,0.3,0.3,0.3,0.4
					c0.2,0.1,0.4,0.3,0.7,0.3l1.7,0.7c0.5,0.2,0.8,0.4,1.2,0.7c0.3,0.3,0.5,0.5,0.7,0.8s0.3,0.7,0.3,1.1s0.1,0.9,0.1,1.4
					c0,0.7-0.1,1.2-0.2,1.8s-0.3,1-0.7,1.4c-0.3,0.4-0.7,0.7-1.2,0.9s-1,0.3-1.8,0.3c-0.5,0-1-0.1-1.4-0.3s-0.8-0.4-1.2-0.8
					s-0.6-0.7-0.8-1.1s-0.3-0.9-0.3-1.4v-0.8h2.1v0.7c0,0.4,0.1,0.8,0.3,1.1s0.7,0.5,1.2,0.5c0.3,0,0.7-0.1,0.8-0.2s0.3-0.3,0.5-0.4
					c0.1-0.2,0.2-0.4,0.2-0.7s0.1-0.6,0.1-0.9c0-0.4,0-0.7-0.1-0.9c0-0.3-0.1-0.5-0.2-0.6c-0.1-0.2-0.3-0.3-0.4-0.4
					s-0.4-0.2-0.7-0.3l-1.5-0.7c-0.9-0.4-1.5-0.8-1.9-1.5s-0.5-1.4-0.5-2.4c0-0.6,0.1-1.1,0.3-1.6s0.4-0.9,0.7-1.3
					c0.3-0.3,0.7-0.7,1.2-0.8c0.5-0.3,1-0.3,1.6-0.3c0.5,0,1,0.1,1.4,0.3s0.8,0.5,1.1,0.8c0.3,0.3,0.6,0.7,0.7,1.1
					c0.2,0.4,0.3,0.8,0.3,1.3L-712.8,627.4L-712.8,627.4z"/>
			</g>
		</g>
	</g>
	<g>
		<g>
			<g>
				<path fill="#FAAF1B" d="M-708,638.2c-0.8,0-1.6-0.3-2.1-0.8s-0.8-1.3-0.8-2.2c0-1.7,0.4-3.1,1.4-4.2s2-1.6,3.5-1.6
					c0.9,0,1.7,0.3,2.2,0.8s0.8,1.3,0.8,2.2c0,1.8-0.5,3.2-1.4,4.2C-705.3,637.7-706.5,638.2-708,638.2z M-705.5,635.6
					c0.6-0.8,0.8-1.9,0.8-3.1s-0.6-2-1.7-2c-0.8,0-1.6,0.4-2.1,1.3s-0.8,2-0.8,3.1c0,0.7,0.2,1.1,0.4,1.4s0.7,0.5,1.2,0.5
					C-706.8,636.9-706,636.5-705.5,635.6z"/>
				<path fill="#FAAF1B" d="M-696.5,638l0.9-5.6c0.1-0.3,0.1-0.6,0.1-0.7c0-0.7-0.3-1.1-0.8-1.1c-0.4,0-0.8,0.2-1.2,0.5
					s-0.7,0.7-0.9,1.1c-0.6,0.8-0.9,1.7-1.2,2.5l-0.2,0.4l-0.5,2.9h-1.5l1.2-7.3l-1.4-0.3l0.2-0.8l3-0.1l-0.7,3.1
					c0.2-0.3,0.4-0.8,0.7-1.2s0.6-0.8,0.8-1s0.7-0.5,1.1-0.8s0.8-0.3,1.4-0.3c1.2,0,1.8,0.7,1.8,2c0,0.3,0,0.6-0.1,0.9l-0.8,4.5
					l1.4,0.3l-0.2,0.8L-696.5,638z"/>
				<path fill="#FAAF1B" d="M-692.4,638l1.8-11.1l-1.4-0.3l0.2-0.8l3-0.1l-1.8,11.1l1.4,0.3l-0.2,0.8L-692.4,638z"/>
				<path fill="#FAAF1B" d="M-687.6,638l1.2-7.3l-1.4-0.3l0.2-0.8l3-0.1l-1.2,7.3l1.4,0.3l-0.2,0.8L-687.6,638z M-684.2,626.6
					c0,0.3-0.1,0.7-0.3,0.9c-0.2,0.3-0.4,0.4-0.8,0.4c-0.3,0-0.6-0.1-0.7-0.3c-0.2-0.2-0.3-0.4-0.3-0.7c0-0.3,0.1-0.7,0.3-0.9
					c0.2-0.3,0.4-0.4,0.8-0.4c0.3,0,0.6,0.1,0.7,0.3C-684.3,626.1-684.2,626.3-684.2,626.6z"/>
				<path fill="#FAAF1B" d="M-677.8,638l0.9-5.6c0.1-0.3,0.1-0.6,0.1-0.7c0-0.7-0.3-1.1-0.8-1.1c-0.4,0-0.8,0.2-1.2,0.5
					s-0.7,0.7-0.9,1.1c-0.6,0.8-0.9,1.7-1.2,2.5l-0.2,0.4l-0.5,2.9h-1.5l1.2-7.3l-1.4-0.3l0.2-0.8l3-0.1l-0.7,3.1
					c0.2-0.3,0.4-0.8,0.7-1.2s0.6-0.8,0.8-1s0.7-0.5,1.1-0.8c0.4-0.3,0.8-0.3,1.4-0.3c1.2,0,1.8,0.7,1.8,2c0,0.3,0,0.6-0.1,0.9
					l-0.8,4.5l1.4,0.3l-0.2,0.8L-677.8,638z"/>
				<path fill="#FAAF1B" d="M-666.6,631.4c0,0.9-0.5,1.7-1.6,2.3c-1.1,0.6-2.4,0.8-4.1,0.8c0,0.3-0.1,0.5-0.1,0.7
					c0,1.1,0.6,1.7,1.8,1.7c0.3,0,0.8-0.1,1.2-0.2s0.8-0.3,1.1-0.3l0.4-0.2l0.5,0.8c-0.2,0.1-0.3,0.2-0.5,0.3
					c-0.3,0.2-0.7,0.3-1.3,0.5c-0.7,0.3-1.3,0.3-1.8,0.3c-0.8,0-1.6-0.3-2.1-0.8s-0.8-1.2-0.8-2c0-1.7,0.4-3.1,1.4-4.3
					s2-1.8,3.3-1.8c0.8,0,1.4,0.2,2,0.6C-666.8,630.3-666.6,630.8-666.6,631.4z M-672.2,633.4c1.2,0,2.1-0.2,2.9-0.5
					s1.1-0.8,1.1-1.3c0-0.7-0.4-1-1.2-1c-0.6,0-1.2,0.3-1.7,0.8C-671.6,631.9-671.9,632.6-672.2,633.4z"/>
			</g>
		</g>
	</g>
</g>
</svg>
