<?xml version="1.0" encoding="utf-8"?>
<!-- Generator: Adobe Illustrator 18.1.1, SVG Export Plug-In . SVG Version: 6.00 Build 0)  -->
<!DOCTYPE svg PUBLIC "-//W3C//DTD SVG 1.1//EN" "http://www.w3.org/Graphics/SVG/1.1/DTD/svg11.dtd">
<svg version="1.1" id="Layer_1" xmlns="http://www.w3.org/2000/svg" xmlns:xlink="http://www.w3.org/1999/xlink" x="0px" y="0px"
	 viewBox="0 0 238.7 120" enable-background="new 0 0 238.7 120" xml:space="preserve">
<g>
	<path fill="#644C78" d="M235.5,44.7h-24.3c0.1-0.1,0.3-0.2,0.8-0.4c0.7-0.2,2.9-0.8,2.9-3.2c0-3-3-3-4.1-3c-1.7,0-3,0.1-4.2,0.1
		c-0.9,0-1.7,0.1-2.4,0.1c-0.8,0-1.7,0-2.7-0.1c-1-0.1-2.1-0.1-3.1-0.1c0,0,0,0,0,0l-0.1,0c-0.1,0-0.2,0-0.4,0c-0.4,0-1.1,0-1.7,0.3
		c-1.1,0.5-1.8,1.5-1.8,2.7c0,2.5,2.4,3.1,3.6,3.4c0.2,0.1,0.4,0.1,0.6,0.2h-133c0.2-0.2,0.6-0.3,1.1-0.4c0.9-0.2,3.2-0.8,3.2-3.3
		c0-1.3-0.7-2.9-3.8-2.9c-0.9,0-1.7,0.1-2.3,0.1c-0.4,0-0.8,0.1-1.1,0.1c-0.2,0-0.5,0-0.9-0.1c-0.5-0.1-1.3-0.1-2.1-0.1
		c-1.6,0-2.8,0.8-3.4,2.4l-1.8,3.9c0,0.1-0.1,0.2-0.1,0.3h-17c0-0.1,0-0.2-0.1-0.2L35.8,41c-0.9-2-2-2.9-3.8-2.9
		c-1.1,0-2.1,0.1-3,0.1c-0.7,0-1.3,0.1-1.8,0.1c-0.9,0-1.5-0.1-1.9-0.1c-0.4,0-0.7-0.1-1.1-0.1c-1.7,0-2.9,1.6-2.9,3
		c0,2.4,2.1,3.1,2.9,3.5c0.1,0,0.2,0.1,0.3,0.1h-22v29.1h21c-0.9,0.5-2.2,1.3-2.2,3.1c0,1.5,1.1,3,3.3,3c0.3,0,0.8,0,1.4-0.1
		c0.9-0.1,2.2-0.1,3.7-0.1c1.1,0,2,0.1,2.8,0.1c0.8,0.1,1.5,0.1,2.5,0.1c0.5,0,1.8,0,2.8-1c0.5-0.6,0.8-1.3,0.7-2.2
		c0-1.8-1.4-2.6-2.3-3h2.6c0,0.1,0,0.2,0,0.2l1.4,3.1l0.1,0.2c0.3,0.7,1.1,2.7,3.3,2.7c2.2,0,3-1.9,3.3-2.6l1.6-3.4
		c0-0.1,0.1-0.2,0.1-0.3h5.2c-0.8,0.3-2.3,1.1-2.3,3.1c0,0.7,0.3,3.1,3.8,3.1l0.5,0c0.6,0,1.2,0,2-0.1c0.9-0.1,2.1-0.1,4.2-0.1
		c0.7,0,1.3,0,2,0.1c0.7,0.1,1.5,0.1,2.4,0.1c1.7,0,4.8,0,4.8-3.2c0-1.8-1.2-2.6-2.2-3h130.2c-0.8,0.4-2.4,1.2-2.4,3.3
		c0,1.7,1.2,2.9,2.9,2.9c0.6,0,1.4,0,2.3-0.1c1.1-0.1,2.3-0.1,3.4-0.1c2.3,0,3.9,0.1,5.2,0.1l0.1,0c0.9,0,1.7,0.1,2.5,0.1
		c3.5,0,3.9-2.2,3.9-3.1c0-2.5-2.6-2.9-3.5-3.1c-0.1,0-0.1,0-0.2,0h22.4V44.7z"/>
	<g>
		<path fill="#FFFFFF" d="M85.6,64.7c-0.5,0-0.9,1.1-2,2.2c-1.1,1.1-3,2.1-6.5,2.1c-1.7,0-2.2-0.4-2.2-2.8v-5.6
			c0-0.8,0.3-1.2,1.9-1.2c1.9,0,2.9,0.2,3.7,1.5c0.4,0.7,0.4,1.6,0.9,1.6c0.6,0,0.6-0.5,0.6-0.9c0-1-0.1-2-0.1-3c0-1,0.1-2,0.1-3
			c0-0.5,0-0.9-0.5-0.9c-0.3,0-0.5,0.1-0.8,1c-0.5,1.4-2,2-3.9,2c-1.3,0-1.9-0.2-1.9-0.7v-5.7c0-1.3,0.2-1.6,1.1-1.6h2.1
			c3.8,0,4.8,0.9,5,2.9c0,0.3,0.1,0.9,0.7,0.9c0.5,0,0.6-0.3,0.6-0.6c0-0.7-0.1-1.4-0.1-2.2c0-0.7,0.1-1.4,0.1-2.2
			c0-0.7-0.7-0.7-1.4-0.7c-2.5,0-5.1,0.3-7.6,0.3c-2.5,0-5.1,0.1-7.6-0.3c-0.7,0-1.2,0-1.2,0.5c0,0.5,0.7,0.8,1.7,1
			c1.4,0.2,1.5,2.6,1.5,4.2V66c0,1.9-0.2,2.7-1.3,3.2c-0.6,0.3-1.2,0.5-1.2,1.1c0,0.5,0.5,0.5,1.5,0.5c2.2,0,4.4-0.3,6.6-0.3
			c2.2,0,4.4,0.3,6.6,0.3c1.5,0,3-1.6,3.4-2.9c0.2-0.7,0.5-1.9,0.5-2.6C86.1,65,86,64.7,85.6,64.7z"/>
		<path fill="#FFFFFF" d="M90.6,52.2c0-1.9,1.7-3,3.7-3c2.5,0,5.3,2.2,6,4.6c0.3,0.8,0.4,1.3,1,1.3c0.5,0,0.7-0.3,0.7-0.7
			c0-0.4-0.5-3.3-0.5-5.2c0-0.4-0.1-0.6-0.5-0.6c-0.3,0-1,0.5-1.4,0.5c-1.1,0-2.8-1.3-5.5-1.3c-3.9,0-6.6,3.1-6.6,6.4
			c0,9,12.2,6.4,12.2,11.7c0,2.4-1.9,3.8-4.2,3.8c-3.1,0-5.4-2.3-6.7-4.9c-0.2-0.5-0.4-1.4-1.1-1.4c-0.6,0-0.7,0.3-0.7,0.5
			c0,0.3,0.2,0.8,0.2,1.1l1.1,4.6c0.1,0.5,0.7,0.5,1,0.6c2,0.4,3.8,1.1,5.9,1.1c4.9,0,7.4-4.1,7.4-7.3
			C102.8,54.8,90.6,57.7,90.6,52.2z"/>
		<path fill="#FFFFFF" d="M156.4,49.6c0.7-0.6,1.3-0.6,1.3-1.1c0-0.5-0.5-0.5-0.8-0.5c-1.1,0-2.2,0.3-3.3,0.3
			c-1.1,0-2.2-0.3-3.3-0.3c-0.3,0-0.7,0-0.7,0.5c0,0.3,0.3,0.6,0.9,0.9c0.7,0.5,2.5,0.3,2.5,1.7c0,0.7-0.2,1.6-0.5,2.5l-3,8.5
			c-0.2,0.6-0.4,1.2-0.7,1.2c-0.1,0-0.2-0.2-0.4-0.6l-3.5-9.9c-0.2-0.6-0.7-1.7-0.7-2.2c0-0.4,0.1-1.1,1-1.3c0.5-0.2,1-0.3,1-0.8
			c0-0.5-0.3-0.5-0.9-0.5c-1.3,0-2.6,0.3-3.8,0.3c-1.3,0-2.6-0.3-3.8-0.3c-0.4,0-0.9,0-0.9,0.5c0,0.5,0.4,0.6,0.8,0.8
			c0.5,0.3,1.1,0.6,1.4,1.7l1.8,5.3l-3.3,7.3c-0.1,0.3-0.3,0.7-0.4,0.7c-0.1,0-0.2-0.3-0.3-0.6l-3.7-10.7c-0.4-1.1-0.7-1.8-0.7-2.1
			c0-0.6,0.1-1.2,1.1-1.5c0.5-0.2,1-0.3,1-0.8c0-0.5-0.3-0.5-0.9-0.5c-1.3,0-2.6,0.3-3.8,0.3c-0.7,0-1.4-0.1-2.2-0.2
			c-0.2-0.1-0.5-0.1-0.8-0.1c-0.1,0-0.3,0-0.4,0c-0.2,0-0.3,0-0.5,0c-0.2,0-0.5,0-0.6,0.1c-0.6,0.1-1.3,0.2-1.9,0.2
			c-1.1,0-2.3-0.3-3.4-0.3c-0.5,0-1.1,0-1.1,0.5c0,0.5,0.2,0.7,0.9,0.8c0.8,0.2,1.4,0.5,1.4,1c0,0.3-0.1,0.7-0.5,1l-7.4,6.7
			c-0.5,0.5-0.8,0.6-0.9,0.6c-0.2,0-0.3-0.2-0.3-1.1V52c0-1.1,0.4-2.3,1.7-2.7c0.3-0.1,0.9-0.3,0.9-0.8c0-0.5-0.5-0.5-1-0.5
			c-1.3,0-2.6,0.3-3.9,0.3c-1.3,0-2.6-0.3-3.9-0.3c-1,0-1.9,0-1.9,0.5c0,0.5,0.3,0.8,0.7,0.8c1.4,0.1,2.5,0.7,2.5,2.7v14.8
			c0,1.1-0.4,2.3-1.7,2.7c-0.3,0.1-0.9,0.3-0.9,0.8c0,0.5,0.5,0.5,1,0.5c1.3,0,2.6-0.3,3.9-0.3c1.3,0,2.6,0.3,3.9,0.3
			c1,0,1.9,0,1.9-0.5c0-0.5-0.3-0.8-0.7-0.8c-1.4-0.1-2.5-0.7-2.5-3v-4.8c0-0.2,0.1-0.5,0.2-0.6c0.2-0.2,1.5-1.4,1.8-1.4
			c0.3,0,0.7,0.9,1.1,1.4l6.5,9.4c0.2,0.2,0.5,0.3,0.7,0.3c1,0,2-0.3,3-0.3c0.8,0,1.6,0.3,2.5,0.3c0.5,0,1.1-0.1,1.1-0.5
			c0-0.5-1.3-0.5-1.9-1.3l-8.5-11.9c-0.1-0.2-0.5-0.6-0.5-0.8c0-0.2,0.3-0.6,0.5-0.7l5.8-4.8c0.6-0.5,1.2-0.8,1.9-1.2
			c0.4,0.3,0.7,0.6,1,1.4l6.8,18.6c0.5,1.3,0.7,1.5,1.1,1.5c0.4,0,0.6-0.2,1.3-1.8l4.6-9.9c0.3-0.7,0.5-1,0.6-1
			c0.1,0,0.3,0.3,0.5,0.9l3.7,10.4c0.4,1.2,0.7,1.4,1.1,1.4c0.3,0,0.6-0.2,1.3-1.9l6.2-15.9C155.4,51,155.5,50.5,156.4,49.6z"/>
		<path fill="#FFFFFF" d="M199.4,70.3c0-0.5-1.3-0.5-1.9-1.3L189,57.1c-0.1-0.2-0.5-0.6-0.5-0.8c0-0.2,0.3-0.6,0.5-0.7l5.8-4.8
			c0.8-0.6,1.5-1,2.4-1.4c0.4-0.2,1.1-0.3,1.1-0.8c0-0.5-0.6-0.5-1.1-0.5c-1.1,0-2.3,0.3-3.4,0.3s-2.3-0.3-3.4-0.3
			c-0.5,0-1.1,0-1.1,0.5c0,0.5,0.2,0.7,0.9,0.8c0.8,0.2,1.4,0.5,1.4,1c0,0.3-0.1,0.7-0.5,1l-7.4,6.7c-0.5,0.5-0.8,0.6-0.9,0.6
			c-0.2,0-0.3-0.2-0.3-1.1V52c0-1.1,0.4-2.3,1.7-2.7c0.3-0.1,0.9-0.3,0.9-0.8c0-0.5-0.5-0.5-1-0.5c-1.3,0-2.6,0.3-3.9,0.3
			s-2.6-0.3-3.9-0.3c-1,0-1.9,0-1.9,0.5c0,0.5,0.3,0.8,0.7,0.8c1.4,0.1,2.5,0.7,2.5,2.7v14.8c0,1.1-0.4,2.3-1.7,2.7
			c-0.1,0-0.2,0.1-0.4,0.1c-0.2-0.1-0.4-0.1-0.7-0.2c-1.2-0.4-1.7-1.9-2.3-3.2l-8.2-17.9c-0.2-0.4-0.4-0.7-0.5-0.7
			c-0.3,0-0.5,0.3-0.9,1.1l-9.4,19.1c-0.3,0.5-0.5,0.9-1.1,1.3c-0.5,0.3-1.3,0.5-1.3,1.1c0,0.5,0.4,0.5,0.9,0.5
			c1.1,0,2.2-0.3,3.3-0.3c1.1,0,2.2,0.3,3.3,0.3c0.5,0,0.9,0,0.9-0.5c0-0.5-1.2-0.8-2.1-1.1c-0.7-0.2-1.5-0.8-1.5-1.3
			c0-1.4,0.9-4.7,2.6-4.7h5c1.6,0,2.2,0.1,2.7,0.6c0.5,0.5,1.5,3.3,1.5,4.1c0,0.9-0.5,1.6-1.4,1.8c-0.5,0-0.9,0.3-0.9,0.7
			c0,0.2,0.2,0.4,0.7,0.4c1.6,0,3.2-0.3,4.6-0.3c1.4,0,3,0.3,4.6,0.3c0.1,0,0.2,0,0.3,0c0.1,0,0.2,0,0.3,0c1.3,0,2.6-0.3,3.9-0.3
			c1.3,0,2.6,0.3,3.9,0.3c1,0,1.9,0,1.9-0.5c0-0.5-0.3-0.8-0.7-0.8c-1.4-0.1-2.5-0.7-2.5-3v-4.8c0-0.2,0.1-0.5,0.2-0.6
			c0.2-0.2,1.5-1.4,1.8-1.4c0.3,0,0.7,0.9,1.1,1.4l6.5,9.4c0.2,0.2,0.5,0.3,0.7,0.3c1,0,2-0.3,3-0.3c0.8,0,1.6,0.3,2.5,0.3
			C198.9,70.8,199.4,70.7,199.4,70.3z M163.7,61.4h-3.5c-0.8,0-1.4-0.1-1.4-0.4c0-0.1,0.1-0.5,0.4-0.9l2.2-4.5
			c0.1-0.2,0.3-0.9,0.5-0.9c0.2,0,0.4,0.2,0.6,0.7l2.2,4.5c0.3,0.5,0.5,1.1,0.5,1.3C165.1,61.3,164.7,61.4,163.7,61.4z"/>
		<path fill="#FFFFFF" d="M63.6,70.3l-0.9-23.4c-0.2-6.1,4.8-4,4.8-5.9c0-0.4-0.1-0.6-1.5-0.6c-1.4,0-2.4,0.2-3.3,0.2
			c-0.8,0-1.7-0.2-3-0.2c-1,0-1.1,0.7-1.3,1.1L46.5,67c-0.1,0.2-0.5,1.1-0.8,1.1c-0.3,0-0.5-0.4-0.7-0.8L33.7,41.9
			c-0.7-1.6-1.2-1.5-1.8-1.5c-1.7,0-3.6,0.2-4.8,0.2c-1.6,0-2.4-0.2-3.1-0.2c-0.4,0-0.6,0.4-0.6,0.7c0,2.3,5.5-0.2,5.2,8.5
			l-0.7,21.2c-0.2,5.5-4.4,4.2-4.4,6.1c0,0.3,0.2,0.7,1,0.7c0.8,0,2.6-0.2,5.1-0.2c2.4,0,3.4,0.2,5.3,0.2c1.4,0,1.2-0.6,1.2-0.8
			c0-2.2-5.6,0.9-5.3-8.1L31.3,54c0-0.4,0-1.3,0.4-1.3c0.2,0,0.4,0.6,0.6,0.9l10,22.7c0.3,0.6,0.5,1.5,1.3,1.5c0.8,0,1-0.8,1.3-1.5
			l9.7-20.8c0.8-1.7,1.4-2.8,1.6-2.8c0.3,0,0.4,0.8,0.4,2.4l0.8,16c0.3,5.9-3.7,4.1-3.7,5.9c0,0.9,1.3,0.8,2.4,0.8
			c1.2,0,2.4-0.2,5.8-0.2c1.5,0,2.9,0.2,4.4,0.2c1.8,0,2.5,0,2.5-0.9C68.5,74.9,63.8,77.2,63.6,70.3z"/>
		<path fill="#FFFFFF" d="M208.7,71.2V46c0-5,3.9-3.1,3.9-4.9c0-0.6-0.3-0.7-1.8-0.7c-2.9,0-4.8,0.2-6.6,0.2c-1.8,0-3.8-0.2-5.8-0.2
			c-0.5,0-1.7-0.2-1.7,0.7c0,1.8,5.8,0.4,5.8,5.2v25.3c0,5-3.7,3.6-3.7,5.5c0,0.3,0.1,0.6,0.6,0.6c1.3,0,3.5-0.2,5.8-0.2
			c4,0,5.9,0.2,7.8,0.2c1.2,0,1.6-0.2,1.6-0.8C214.5,75.3,208.7,77.7,208.7,71.2z"/>
	</g>
	<path fill="#7FA8AD" d="M119,1.5l-70.4,35h140.8L119,1.5z M65.8,32.5L84.9,23l17,9.5H65.8z M110.3,32.5l-21-11.7L119,6.1l29.6,14.7
		l-21,11.7H110.3z M153,23l19.1,9.5H136L153,23z"/>
	<polygon fill="#B5A268" points="103.5,20.8 119,28.5 134.4,20.8 119,13.1 103.5,20.8 	"/>
	<path fill="#7FA8AD" d="M48.6,82.1l70.4,35l70.4-35H48.6z M65.8,86.1H102l-17,9.5L65.8,86.1z M119,112.5L89.3,97.8l21-11.7h17.4
		l21,11.7L119,112.5z M136,86.1h36.1L153,95.6L136,86.1z"/>
	<polygon fill="#B5A268" points="103.5,97.8 119,90.1 134.4,97.8 119,105.5 103.5,97.8 	"/>
	<g display="none">
		<path display="inline" fill="#595A5C" d="M15.8,136.8c1-0.7,1.4-1.7,1.4-2.9c0-3-2.2-4-4.9-4H9.9v14.7h3.4c2.9,0,5.3-1.2,5.3-4.1
			C18.5,138.9,17.5,137.3,15.8,136.8z M11.5,131.5h0.6c2,0,3.4,0.2,3.4,2.5c0,2.3-1.6,2.5-3.4,2.5h-0.6V131.5z M13.2,143.2h-1.6
			v-5.3h1.4c1.8,0,4,0.3,4,2.6C16.9,142.7,15,143.2,13.2,143.2z"/>
		<rect x="21" y="130" display="inline" fill="#595A5C" width="1.6" height="14.7"/>
		<polygon display="inline" fill="#595A5C" points="37.1,141.4 25.7,129.4 25.7,144.7 27.3,144.7 27.3,133.4 38.8,145.4 38.8,130 
			37.1,130 		"/>
		<path display="inline" fill="#595A5C" d="M48.9,137.3v1.5h4.4c0,2.7-2.7,4.6-5.2,4.6c-1.5,0-3.1-0.8-4.2-1.9
			c-1.1-1.1-1.7-2.6-1.7-4.1c0-3.3,2.6-6.1,6-6.1c2.2,0,3.8,1,5,2.8l1.2-1.1c-1.6-2-3.6-3.2-6.2-3.2c-4.2,0-7.6,3.4-7.6,7.6
			c0,4.1,3.4,7.5,7.5,7.5c2,0,4.1-0.9,5.4-2.5c1.3-1.6,1.6-3.2,1.5-5.2H48.9z"/>
		<path display="inline" fill="#595A5C" d="M64.3,129.8c-4.2,0-7.6,3.4-7.6,7.6c0,4.2,3.5,7.6,7.6,7.6c4.2,0,7.6-3.3,7.6-7.6
			C71.9,133.2,68.4,129.8,64.3,129.8z M64.3,143.4c-3.3,0-6-2.8-6-6.1c0-3.3,2.6-6.1,6-6.1c3.4,0,6,2.7,6,6.1
			C70.3,140.7,67.6,143.4,64.3,143.4z"/>
		<path display="inline" fill="#595A5C" d="M85.3,137.4c0,4.2,3.5,7.5,7.6,7.5c1.6,0,3.1-0.5,4.4-1.4v-2c-1.2,1.2-2.8,1.9-4.4,1.9
			c-3.3,0-6-2.8-6-6.1c0-3.2,2.6-6.1,5.9-6.1c1.7,0,3.3,0.7,4.5,1.9v-2c-1.3-1-2.7-1.4-4.4-1.4C88.7,129.8,85.3,133.2,85.3,137.4z"
			/>
		<path display="inline" fill="#595A5C" d="M98.3,144.7h1.8l1.8-4.2h6.3l1.7,4.2h1.8l-6.6-15.4L98.3,144.7z M102.5,139l2.5-5.9
			l2.5,5.9H102.5z"/>
		<path display="inline" fill="#595A5C" d="M117.8,136.3l-1-0.4c-1-0.4-2.3-1-2.3-2.3c0-1.3,1.1-2.3,2.4-2.3c1.2,0,1.9,0.6,2.5,1.6
			l1.3-0.8c-0.8-1.4-2.2-2.3-3.8-2.3c-2.2,0-4.1,1.5-4.1,3.7c0,2.1,1.5,3,3.2,3.8l0.9,0.4c1.4,0.6,2.7,1.2,2.7,2.9
			c0,1.7-1.4,2.9-3,2.9c-1.6,0-2.7-1.2-2.9-2.7l-1.6,0.4c0.5,2.3,2.2,3.8,4.6,3.8c2.5,0,4.6-2,4.6-4.5
			C121.3,138.1,119.7,137.1,117.8,136.3z"/>
		<rect x="123.8" y="130" display="inline" fill="#595A5C" width="1.6" height="14.7"/>
		<polygon display="inline" fill="#595A5C" points="139.9,141.4 128.5,129.4 128.5,144.7 130.1,144.7 130.1,133.4 141.6,145.4 
			141.6,130 139.9,130 		"/>
		<path display="inline" fill="#595A5C" d="M151.5,129.8c-4.2,0-7.6,3.4-7.6,7.6c0,4.2,3.5,7.6,7.6,7.6c4.2,0,7.6-3.3,7.6-7.6
			C159.2,133.2,155.7,129.8,151.5,129.8z M151.5,143.4c-3.3,0-6-2.8-6-6.1c0-3.3,2.6-6.1,6-6.1c3.4,0,6,2.7,6,6.1
			C157.5,140.7,154.8,143.4,151.5,143.4z"/>
		<polygon display="inline" fill="#595A5C" points="182.6,136 175.1,136 175.1,130 173.4,130 173.4,144.7 175.1,144.7 175.1,137.5 
			182.6,137.5 182.6,144.7 184.2,144.7 184.2,130 182.6,130 		"/>
		<path display="inline" fill="#595A5C" d="M194.1,129.8c-4.2,0-7.6,3.4-7.6,7.6c0,4.2,3.5,7.6,7.6,7.6c4.2,0,7.6-3.3,7.6-7.6
			C201.8,133.2,198.3,129.8,194.1,129.8z M194.1,143.4c-3.3,0-6-2.8-6-6.1c0-3.3,2.6-6.1,6-6.1c3.4,0,6,2.7,6,6.1
			C200.1,140.7,197.5,143.4,194.1,143.4z"/>
		<polygon display="inline" fill="#595A5C" points="201.5,131.5 205.1,131.5 205.1,144.7 206.7,144.7 206.7,131.5 210.3,131.5 
			210.3,130 201.5,130 		"/>
		<polygon display="inline" fill="#595A5C" points="212,144.7 219.6,144.7 219.6,143.2 213.6,143.2 213.6,137.4 219.4,137.4 
			219.4,135.9 213.6,135.9 213.6,131.5 219.6,131.5 219.6,130 212,130 		"/>
		<polygon display="inline" fill="#595A5C" points="224,143.2 224,130 222.3,130 222.3,144.7 228,144.7 228,143.2 		"/>
	</g>
</g>
</svg>
