<?xml version="1.0" encoding="utf-8"?>
<!-- Generator: Adobe Illustrator 17.1.0, SVG Export Plug-In . SVG Version: 6.00 Build 0)  -->
<!DOCTYPE svg PUBLIC "-//W3C//DTD SVG 1.1//EN" "http://www.w3.org/Graphics/SVG/1.1/DTD/svg11.dtd">
<svg version="1.1" id="Layer_1" xmlns="http://www.w3.org/2000/svg" xmlns:xlink="http://www.w3.org/1999/xlink" x="0px" y="0px"
	 viewBox="0 0 147.2 89.4" enable-background="new 0 0 147.2 89.4" xml:space="preserve">
<g>
	<g>
		<g>
			<g>
				<path fill="#FFFFFF" d="M19.7,84.8c-2.6,0-2.6-3.3-2.6-3.6c0-2,1-3.4,2.6-3.4c1.9,0,2.1,1.5,2.2,2l0.4-0.1
					c0-1.1-0.1-1.5-0.2-1.9c-0.5-0.2-1.2-0.5-2.4-0.5c-2.2,0-4.3,1.2-4.3,4c0,3,2.1,3.9,4.3,3.9c1.3,0,2-0.3,2.4-0.5
					c0.3-0.6,0.4-1.3,0.4-2l-0.4-0.1C22.1,82.7,21.7,84.8,19.7,84.8z M30.3,83.8l-2.4-6.4c-0.2,0-0.4,0-0.7,0.1l-2.4,6.2
					c-0.3,0.8-0.5,0.9-0.7,1l-0.3,0.1V85h2.5v-0.3l-0.6-0.1c-0.2,0-0.3-0.1-0.3-0.3c0-0.1,0.1-0.5,0.2-0.8l0.4-1.2
					c0.2-0.1,0.8-0.1,1.1-0.1c0.3,0,0.9,0,1.1,0.1l0.6,1.7c0.1,0.2,0.1,0.3,0.1,0.4c0,0.2-0.2,0.2-0.4,0.3l-0.5,0.1V85h3.2v-0.3
					L31,84.7C30.6,84.6,30.5,84.3,30.3,83.8z M27.1,81.7c-0.3,0-0.7,0-0.9,0.1l0.9-2.6h0l1,2.6C27.7,81.7,27.3,81.7,27.1,81.7z
					 M34.6,78.9c0-0.7,0.5-1.1,1.1-1.1c1.2,0,1.5,1.2,1.6,1.7h0.4c0-0.6,0-1.2-0.1-1.7c-0.4-0.2-0.9-0.4-1.8-0.4
					c-1.5,0-2.5,0.6-2.5,2.1c0,2.3,3.5,2.2,3.5,4.1c0,0.8-0.5,1.3-1.2,1.3c-1.5,0-1.8-1.6-2-2.3l-0.5,0.1c0,0.9,0.1,1.4,0.3,2.2
					c0.4,0.2,1,0.5,2,0.5c1.4,0,2.8-0.6,2.8-2.2C38.3,80.5,34.6,80.7,34.6,78.9z M40.9,77.8l0.3,0c0.5,0.1,0.5,0.2,0.5,1.4v4.2
					c0,1.1,0,1.3-0.5,1.3l-0.3,0V85H44v-0.3l-0.3,0c-0.5-0.1-0.5-0.2-0.5-1.3v-4.2c0-1.1,0-1.3,0.5-1.3l0.3,0v-0.3h-3.1V77.8z
					 M52,77.8l0.3,0c0.6,0.1,0.7,0.1,0.7,2v3.1l-5.1-5.5c-0.1,0-0.4,0-0.6,0.1v5.2c0,1.5,0,1.9-0.5,2l-0.3,0V85H49v-0.3l-0.3,0
					c-0.6-0.1-0.7-0.2-0.7-2v-3l5.1,5.4c0.1,0,0.5-0.1,0.6-0.1v-5.2c0-1.5,0-1.9,0.5-2l0.3,0v-0.3H52V77.8z M61.5,77.3
					c-2.2,0-4.1,1.5-4.1,4.1c0,2.5,1.8,3.8,4,3.8c2.2,0,4.1-1.5,4.1-4.1C65.5,78.6,63.7,77.3,61.5,77.3z M61.5,84.8
					c-1.8,0-2.4-1.7-2.4-3.6c0-1.8,0.7-3.4,2.3-3.4c1.8,0,2.5,1.7,2.5,3.6C63.8,83.2,63.1,84.8,61.5,84.8z M89.5,84.6
					c-0.4,0-0.7-0.1-1.1-0.2v-5.3c0-1.1,0-1.2,0.5-1.3l0.3,0v-0.3h-3.1v0.3l0.3,0C87,77.9,87,78,87,79.1v4.2c0,1.3,0,1.3-0.5,1.4
					l-0.3,0V85h5.3c0.3-0.7,0.3-1.3,0.4-2.1l-0.4-0.1C91.1,83.8,91.1,84.6,89.5,84.6z M98.2,77.3c-2.2,0-4.1,1.5-4.1,4.1
					c0,2.5,1.8,3.8,4,3.8c2.2,0,4.1-1.5,4.1-4.1C102.2,78.6,100.5,77.3,98.2,77.3z M98.3,84.8c-1.8,0-2.4-1.7-2.4-3.6
					c0-1.8,0.7-3.4,2.3-3.4c1.8,0,2.5,1.7,2.5,3.6C100.6,83.2,99.9,84.8,98.3,84.8z M108.6,77.5h-3.6v0.3l0.3,0
					c0.5,0.1,0.5,0.1,0.5,1.4v4.2c0,1.2,0,1.3-0.5,1.4l-0.3,0V85h2.7c5,0,5.2-3.1,5.2-3.8C113,77.7,110.2,77.5,108.6,77.5z
					 M108.5,84.6c-0.4,0-0.8-0.1-1.1-0.2V78c0.3-0.1,0.6-0.1,0.9-0.1c1.9,0,3.1,1.1,3.1,3.3C111.4,83.3,110.3,84.6,108.5,84.6z
					 M120.3,82.6l0.6,0.1c0.6,0.1,0.6,0.1,0.6,0.9v1.1c-0.3,0-0.6,0.1-0.9,0.1c-1.7,0-2.9-1.3-2.9-3.6c0-1.9,0.7-3.4,2.6-3.4
					c1.9,0,2.1,1.3,2.3,2l0.4-0.1c0-0.8-0.1-1.4-0.3-1.9c-0.5-0.2-1.2-0.4-2.4-0.4c-2.2,0-4.4,1.1-4.4,3.9c0,2.9,2.1,4,4.5,4
					c1.3,0,2.5-0.4,2.9-0.6l0-0.3c-0.3,0-0.3,0-0.3-0.8c0-0.7,0-0.8,0.4-0.9l0.2,0v-0.3h-3.3V82.6z M131.8,82.9
					c-0.2,0.9-0.4,1.7-2.1,1.7c-0.4,0-0.8-0.1-1.2-0.2v-3.1h0.8c0.9,0,1.1,0,1.2,0.5l0.1,0.4h0.3V80h-0.3l-0.1,0.4
					c-0.1,0.5-0.2,0.5-1.2,0.5h-0.8v-2.9h0.8c1.2,0,1.6,0,1.9,1.5l0.4-0.1c0-0.6,0-1.3-0.1-1.9h-5.3v0.3l0.3,0
					c0.5,0.1,0.5,0.1,0.5,1.4v4.2c0,1.3,0,1.3-0.5,1.4l-0.3,0V85h5.6c0.2-0.7,0.3-1.3,0.4-2.1L131.8,82.9z M79.9,84.2
					c0.5-0.6,1.2-1.4,1.2-3.1c0-1.7-1.1-2.8-2.2-2.8c-0.9,0-1.3,0.3-1.7,0.5V79c1.5,0.4,2.4,1.1,2.4,3.2c0,0.5-0.1,1-0.3,1.4
					c-1.4-1.1-3.4-2.7-4.6-4.1c0.7-0.4,2.7-1.6,2.7-3.4c0-1.2-0.9-1.9-2.1-1.9c-1.8,0-3.3,1.5-3.3,3.7c0,0.7,0.3,1.4,0.6,2
					c-0.9,0.5-2.7,1.4-2.7,3.5c0,2,2,3.4,4.4,3.4c2.6,0,3.7-0.9,4.5-1.4c0.1,0.1,0.2,0.1,0.3,0.2c0.3,0.3,1.1,0.8,1.3,1.1
					c1.6,1.4,0.7,2.7,0.7,2.7s1.1-0.5,1-1.8c0-0.7-0.2-1.2-0.8-1.9C80.8,85.1,79.9,84.2,79.9,84.2z M74.5,74.8
					c0.8,0,1.1,0.8,1.1,1.8c0,1.3-0.9,1.9-1.5,2.4c-0.3-0.4-0.9-1.3-0.9-2.5C73.3,75.6,73.8,74.8,74.5,74.8z M75.5,85.8
					c-2.2,0-3.7-1.3-3.7-3.3c0-1.2,0.6-1.6,1-1.9c1.7,1.9,3.2,3.1,5.1,4.4C77.6,85.3,76.9,85.8,75.5,85.8z"/>
				<g>
					<path fill="#FFFFFF" d="M40.3,70.6C39,70.6,39,69,39,67.4v-3.2c0-2.3-0.5-3.6-3.1-3.6c-2.3,0-3.8,1.5-4.4,2.4
						c0.2,0.4,0.3,0.6,0.6,0.9h0.2c0.4-0.8,1-2.2,2.7-2.2c1.7,0,2.1,1.3,2.1,2.7v0.5c-1.9,0.6-5.8,1.4-5.8,4.3
						c0,1.2,1.1,2.2,2.7,2.2c1.7,0,2.5-0.5,3.3-0.9c0.2,0.5,0.6,0.9,1.7,0.9c0.9,0,1.4-0.4,1.7-0.6l-0.1-0.3
						C40.6,70.6,40.5,70.6,40.3,70.6z M37.1,69.7c-0.2,0.2-0.7,0.9-1.7,0.9c-1.3,0-2.1-0.8-2.1-2c0-2.1,2.2-2.6,3.4-2.6h0.3V69.7z
						 M26.5,60.7c-2.5,0-5.1,2-5.1,5.7c0,3.1,2.3,5,5.1,5c2,0,3.5-0.9,3.9-1.2l-0.3-0.5c-0.3,0.2-1.2,0.7-2.5,0.7
						c-3,0-4.1-2.6-4.1-4c1.9-0.4,4.5-1.1,7-2.4C30.2,62.8,29.5,60.7,26.5,60.7z M23.4,65.4c0-1.6,0.6-4,2.5-4
						c1.7,0,2.2,1.3,2.5,2.7C26.9,64.6,25,65.1,23.4,65.4z M145.8,61.3c-0.5-0.1-0.8-0.2-1.2-0.4c0,0-0.3-0.1-0.4-0.2
						c-0.2-0.1-0.5-0.1-0.5-0.1c-1,0.1-1.9,1.1-2.3,1.4c0-0.6-0.1-1.1-0.2-1.4c-0.6,0-2.1,0.4-3.2,0.8l0.2,0.5l0.2-0.1
						c0.2,0,0.4-0.1,0.5-0.1c0.6,0,0.6,0.5,0.6,2.8v4.3c0,1.5-0.2,1.5-1,1.6l-0.5,0.1v0.5h5.3v-0.5l-0.5-0.1
						c-1.2-0.1-1.4-0.1-1.4-1.6V63c0-0.3,0.4-0.9,1.1-0.9c0.1,0,0.3,0,0.6,0.1c0.4,0.1,0.5,0.2,0.7,0.3c0.4,0.1,0.9,0.3,1.9,0.1
						c1.2-0.3,1.4-1.4,1.4-1.4S146.7,61.4,145.8,61.3z M128.5,61.2v-0.5H124v0.5l1.2,0.2c0.4,0.1,0.7,0.1,0.7,0.4
						c0,0.3-0.3,1.1-1,2.9c-0.8,2.2-1.4,3.6-1.6,4.2l-2.6-6.4c-0.1-0.2-0.2-0.5-0.2-0.7c0-0.2,0.3-0.3,0.9-0.4l0.8-0.1v-0.5h-5.2
						v0.5l0.6,0.1c0.5,0.1,0.7,0.3,1.2,1.3l3.7,8.7c0.3,0,0.8-0.3,0.9-0.5c0.1-0.2,0.5-1.3,1.1-2.7l1.3-3c0.3-0.6,1.5-3.3,1.8-3.6
						c0.1-0.1,0.3-0.2,0.6-0.2L128.5,61.2z M114.5,59c0.7,0,1.2-0.6,1.2-1.2c0-0.7-0.5-1.2-1.2-1.2c-0.7,0-1.2,0.6-1.2,1.2
						C113.3,58.4,113.8,59,114.5,59z M9,70.7c-4.4,0-6.4-3.9-6.4-8c0-4.6,2.5-7.2,6.5-7.2c4.2,0,4.5,3,4.7,4l0.7-0.1
						c0-1.2-0.2-2.6-0.4-3.6c-0.6-0.4-2.5-1-5-1c-3.9,0-9.1,2-9.1,8.5c0,6.2,4.4,8.4,9.1,8.4c2.4,0,4.3-0.6,5-0.9
						c0.6-1.5,0.9-2.6,1-4.2l-0.7-0.1C13.7,68.2,13.1,70.7,9,70.7z M19.2,68.9V55.1c-0.9,0-3.2,0.3-3.9,0.4l0.1,0.5l0.8-0.1
						c0,0,0.2,0,0.3,0c0.8,0,0.8,1,0.8,2.8v10.2c0,1.5-0.2,1.5-1,1.6l-0.5,0.1v0.5h4.9v-0.5l-0.5-0.1C19.4,70.4,19.2,70.4,19.2,68.9
						z M133.2,60.7c-2.5,0-5.1,2-5.1,5.7c0,3.1,2.3,5,5.1,5c2,0,3.5-0.9,3.9-1.2l-0.3-0.5c-0.3,0.2-1.2,0.7-2.5,0.7
						c-3,0-4.1-2.6-4.1-4c1.9-0.4,4.5-1.1,7-2.4C136.8,62.8,136.2,60.7,133.2,60.7z M130.1,65.4c0-1.6,0.6-4,2.5-4
						c1.7,0,2.2,1.3,2.5,2.7C133.6,64.6,131.7,65.1,130.1,65.4z M61.8,61.6v-0.5h-4v0.5l0.7,0.1c0.7,0.1,0.9,0.2,0.9,0.6
						c0,0.3-0.1,0.8-0.2,1l-1.6,5.5h0l-2.8-7.6c-0.2,0-0.5,0.1-0.6,0.2l-2.7,7.4h0l-1.8-5.8c0-0.1-0.1-0.5-0.2-0.8
						c0.6-0.4,0.8-1.1,0.8-1.1s-0.5,0.3-1.4,0.2c-0.5-0.1-0.8-0.2-1.2-0.4c0,0-0.3-0.1-0.4-0.2c-0.2-0.1-0.5-0.1-0.5-0.1
						c-1,0.1-1.9,1.1-2.3,1.4c0-0.6-0.1-1.1-0.2-1.4c-0.6,0-2.1,0.4-3.2,0.8l0.2,0.5l0.2-0.1c0.2,0,0.4-0.1,0.5-0.1
						c0.6,0,0.6,0.5,0.6,2.8v4.3c0,1.5-0.2,1.5-1,1.6l-0.5,0.1v0.5h5.3v-0.5l-0.5-0.1c-1.2-0.1-1.4-0.1-1.4-1.6V63
						c0-0.3,0.4-0.9,1.1-0.9c0.1,0,0.3,0,0.6,0.1c0.4,0.1,0.5,0.2,0.7,0.3c0.2,0.1,0.4,0.2,0.8,0.2c0,0.1,0.1,0.3,0.1,0.5l2.8,8.4
						c0.3,0,0.6-0.3,0.8-0.5l2.6-7l2.8,7.5c0.2-0.1,0.5-0.2,0.7-0.5l2.7-7.7c0.4-1,0.5-1.4,1.1-1.6L61.8,61.6z M76.4,70.4
						c-1.9,0-1.9-1.9-1.9-3.7v-4.8c0.6,0,1.8-0.1,2.3-0.2v-0.5c-0.6,0-1.7-0.2-2.3-0.2c0-0.6,0.2-2,0.3-2.4l-0.3-0.1
						c-0.6,0.5-1.4,1.2-1.9,1.9V61c-0.5,0-1.2,0.2-1.7,0.2v0.5c0.6,0.2,1.2,0.2,1.7,0.2v5.8c0,2.4,0.1,3.7,2.5,3.7
						c1.1,0,2.3-0.6,2.6-0.7l-0.1-0.5C77.3,70.3,76.9,70.4,76.4,70.4z M82.9,60.7c-2.5,0-5.1,2-5.1,5.7c0,3.1,2.3,5,5.1,5
						c2,0,3.5-0.9,3.9-1.2l-0.3-0.5c-0.3,0.2-1.2,0.7-2.5,0.7c-3,0-4.1-2.6-4.1-4c1.9-0.4,4.5-1.1,7-2.4
						C86.5,62.8,85.9,60.7,82.9,60.7z M79.8,65.4c0-1.6,0.6-4,2.5-4c1.7,0,2.2,1.3,2.5,2.7C83.2,64.6,81.4,65.1,79.8,65.4z
						 M117.6,73.6c-2.2-0.2-3.9-1.4-5-2.6h4.6v-0.5l-0.5-0.1c-0.8-0.1-1-0.1-1-1.6v-8.2c-0.8,0-2.8,0.6-3.4,0.8l0.1,0.5l0.5-0.1
						c0,0,0.2,0,0.3,0c0.6,0,0.6,0.6,0.6,2.8v4.3c0,1.5-0.2,1.5-1,1.6l-0.7,0.1c0,0-0.6-0.8-0.8-1.1c0,0-1.1-1.6-1.5-2.5
						c-0.8-1.6-1.3-2.9-1.7-3.6c1.3-0.6,3.3-1.9,3.3-4.2c0-3.6-3.2-4-5.5-4h-6.2v0.5l0.9,0.1c0.9,0.1,0.9,0.2,0.9,3.1v8.3
						c0,2.9,0,3-0.9,3.1l-0.9,0.1v0.5h5.8v-0.5l-0.9-0.1c-0.9-0.1-0.9-0.2-0.9-3.1v-3.2h0.9c0.5,0,1.1,0,1.5,0.3
						c0.3,0.3,0.9,1.2,1.5,2.3l1,1.8c0.1,0.2,0.3,0.6,0.4,0.7c0.3,0.6,1.8,3,4.5,4.3c1.8,0.9,3.6,1.4,6,0.9c2-0.4,3.1-1,4.4-2.1
						l-0.1-0.4C123.7,72.1,121.1,74,117.6,73.6z M105,63.5h-1.4v-7.2c0.5-0.1,1-0.2,1.5-0.2c1.9,0,3.7,0.9,3.7,3.7
						C108.9,62.4,107,63.5,105,63.5z M95.4,61.3c-0.5-0.1-0.8-0.2-1.2-0.4c0,0-0.3-0.1-0.4-0.2c-0.2-0.1-0.5-0.1-0.5-0.1
						c-1,0.1-1.9,1.1-2.3,1.4c0-0.6-0.1-1.1-0.2-1.4c-0.6,0-2.1,0.4-3.2,0.8l0.2,0.5l0.2-0.1c0.2,0,0.4-0.1,0.5-0.1
						c0.6,0,0.6,0.5,0.6,2.8v4.3c0,1.5-0.2,1.5-1,1.6l-0.5,0.1v0.5H93v-0.5l-0.5-0.1c-1.2-0.1-1.4-0.1-1.4-1.6V63
						c0-0.3,0.4-0.9,1.1-0.9c0.1,0,0.3,0,0.6,0.1c0.4,0.1,0.5,0.2,0.7,0.3c0.4,0.1,0.9,0.3,1.9,0.1c1.2-0.3,1.4-1.4,1.4-1.4
						S96.3,61.4,95.4,61.3z M70.5,70.6c-1.2,0-1.2-1.7-1.2-3.2v-3.2c0-2.3-0.5-3.6-3.1-3.6c-2.3,0-3.8,1.5-4.4,2.4
						c0.2,0.4,0.3,0.6,0.6,0.9h0.2c0.4-0.8,1-2.2,2.7-2.2c1.7,0,2.1,1.3,2.1,2.7v0.5c-1.9,0.6-5.8,1.4-5.8,4.3
						c0,1.2,1.1,2.2,2.7,2.2c1.7,0,2.5-0.5,3.3-0.9c0.2,0.5,0.6,0.9,1.7,0.9c0.9,0,1.4-0.4,1.7-0.6l-0.1-0.3
						C70.8,70.6,70.7,70.6,70.5,70.6z M67.3,69.7c-0.2,0.2-0.7,0.9-1.7,0.9c-1.3,0-2.1-0.8-2.1-2c0-2.1,2.2-2.6,3.4-2.6h0.3V69.7z"
						/>
				</g>
			</g>
		</g>
		<g>
			<g>
				<g>
					<g>
						<g>
							<g>
								<path fill="#FFFFFF" d="M78.2,45.2c-2.8-0.7-5-1.4-7.3-2.1c-1.7-0.6-6.2-2.1-9.8-2.7c-10.8-2-18.1,5.4-18.1,5.4
									s6.4-4.8,14.3-4.1c3.4,0.3,5.1,0.8,8.5,1.9c3,0.9,8.3,2.8,12.3,3.6c9.1,1.9,11.4-6.6,11.4-6.6S86,47.1,78.2,45.2z"/>
								<path fill="#FFFFFF" d="M60.3,37.7c2.7,0.3,4,0.8,6.7,1.7c2.4,0.8,8.3,2.9,12.4,3.6c6.2,1.1,8.3-3.8,8.3-3.8
									s-2.8,3.9-11.1,1.4c-1.7-0.5-4-1.3-6-1.9c-1.2-0.3-4.2-1.4-7-2C55.1,34.8,49,40.4,49,40.4S54.1,37,60.3,37.7z"/>
								<path fill="#FFFFFF" d="M52.3,44.3c-7.1,0.9-11.5,5.1-11.5,5.1s4.5-2.6,8.9-3.5c7.5-1.6,13.6,0.1,13.6,0.1
									C61.6,44.9,56.4,43.8,52.3,44.3z"/>
							</g>
							<g>
								<path fill="#FFFFFF" d="M102.6,42.3c-2.3-0.4-2.6-0.4-3.6-0.7c-1.9-0.6-2.6-1.5-2.9-3.1c-0.5-2.5,0.9-6.6,0.9-6.6
									s-0.5,3.4-0.3,5.1c0.2,2,0.9,3,1.9,3.4c1.2,0.6,2.4,0.6,3.9,0.7c3,0.2,4.2,2.4,4.2,2.4c-0.4-1.5-1.2-2.4-2.8-3
									c-0.7-0.3-2-0.6-3.4-0.7c-1.6-0.2-2.4-0.7-2.7-1.8c-0.7-2.4,0.1-5.6,0-7.3c-0.1-1.4-0.4-1.9-0.4-1.9s0.2,0,0.6,0.9
									c0.4,0.8,0.4,1.7,0.3,3.6c-0.1,1.5,0,3.4,0.4,4.2c0.5,1,1.9,1.4,3.4,1.4c2.3,0.1,4.3,1.9,4.3,1.9s-0.6-1.3-1.8-1.9
									c-0.7-0.4-1.5-0.8-3.2-0.9c-1.6-0.2-2.2-0.9-2.2-2.5c0-1.4,0.1-3.1,0.1-4.1c0-1.6-0.5-2.7-1.2-3.4c-0.5-0.5-0.9-0.8-0.9-0.8
									s-0.2-1.7-1.1-3.3c0-0.1,0-0.1-0.1-0.2c-0.7-1.3-2.9-4.3-6.8-5.5c-3.2-0.9-5.4-0.4-7.3,0c-2,0.4-4.4,1-6.5,1.3
									c-2.1,0.3-4.4-1.5-4.4-1.5s1.2,1.6,2.8,1.9c1.2,0.2,3,0.2,5.6-0.2c2.6-0.5,4.6-1,7.1-0.9c5.4,0.4,8.4,5.2,8.4,5.2s0,0,0,0
									c1.1,1.9,1.7,4.4,1.6,6.3c-0.1,2.3-1.3,3.7-1.7,6.2c-0.4,2.5,0.4,3.9,1.6,4.9c1.3,1,4.5,1.6,5.6,1.7
									c1.1,0.1,2.1,0.2,2.9,0.8c1.5,1.1,1.6,2.9,1.6,2.9c0.2-1.1-0.1-2.6-1-3.5C104.9,43,103.8,42.5,102.6,42.3z"/>
								<path fill="#FFFFFF" d="M63.5,5.2c0,0,1.4-0.6,3.5-0.2c2,0.4,3.3,1.5,3.6,2c0.4,0.5,1.2,1.5,1.4,3.1
									c0.2,1.6,0.1,3.5,0.7,4.1c0.6,0.7,1.8,0.8,1.8,0.8s-1.1,0.3-1.7,0.1c-0.6-0.2-1.3-0.5-1.5-1.9c-0.2-1.4-0.4-3.6-0.8-4.5
									C70.3,7.8,69.1,6.5,68,6C66,5.1,63.5,5.2,63.5,5.2z"/>
								<path fill="#FFFFFF" d="M63,5.5c0,0,2,0.1,3.4,0.6c1.3,0.4,2.5,1.4,3.1,2.5c0.5,0.9,0.7,2,0.8,4.5c0.1,1.7,0.4,2.5,1.3,3.2
									c0.7,0.6,2.2,0.6,2.2,0.6s-1.3,0.4-2.3,0.3c-1.4-0.1-2.1-1.7-2.2-3c-0.1-1.3-0.2-3.8-0.5-4.7c-0.3-0.9-1.3-2.3-2.8-2.9
									C65.3,6.4,65,6.4,65,6.4s1.7,1.2,2.4,2.3c0.7,1.1,0.8,1.6,1,2.8c0.1,1.2,0.3,4,0.6,5.3c0.2,0.8,0.7,2.1,1.2,2.8
									c0.6,0.9,2.3,1.5,2.3,1.5s-2.4-0.1-3.3-1.6c-0.7-1.2-1.2-3-1.4-4.8c-0.2-1.7,0-3.8-0.9-5.3c-0.9-1.5-1.9-2.5-2.5-3
									C64.2,6.3,63.7,5.9,63,5.5z"/>
								<path fill="#FFFFFF" d="M63.9,11.4c0,0,0.4,1.8-0.9,3.8c-1.3,2-1.8,1.8-2.1,2c-0.3,0.2-1.2,0.6-1.5,0.9
									c-0.3,0.3-0.4,0.9-0.4,1.2c0,0.3-0.2,0.7-0.5,0.9c-0.2,0.2-0.7,0.5-1,0.6c-0.2,0.2-0.3,0.5-0.8,0.6c-0.5,0.1-0.8,0-1.1,0
									c-0.3,0-0.8-0.3-1.1-0.5c-0.3-0.2-0.2-0.6-0.3-0.8c-0.1-0.2-0.3-0.7-0.4-0.9c-0.1-0.3,0.1-0.7,0.3-0.3
									c0.2,0.4,0.3,0.8,0.4,1.1c0.1,0.2,0.4,0.5,0.8,0.5c0.3,0,0.6,0,0.9,0.1c0.3,0.1,0.5,0.1,0.9,0c0.4-0.1,0.6-0.2,0.9-0.8
									c0.3-0.6,0.4-1.1,0.5-1.3c0.1-0.3,0.5-0.8,0.9-1.1c0.4-0.3,1.6-1,2-1.2c0.4-0.2,0.8-0.9,1.2-1.2c0.4-0.3,0.8-1.1,0.9-1.7
									C63.5,12.7,63.9,11.5,63.9,11.4z"/>
								<path fill="#FFFFFF" d="M56.3,18c0,0,0.3-0.2,0.4-0.3c0.1-0.1,0.5-0.3,0.6-0.4c0.1-0.1,0.3-0.5,0.3-0.6
									c0-0.1-0.2-0.5-0.5-0.5c-0.3-0.1-0.5,0.1-0.6,0.2c-0.1,0.1-0.3,0.5-0.3,0.7c0,0.2,0,0.4,0,0.5c0,0.1-0.1,0.3-0.1,0.3
									C56.1,18,56.3,18,56.3,18z"/>
								<path fill="#FFFFFF" d="M54.2,17.5c0,0-0.2-0.4-0.2-0.5c0-0.1-0.1-0.2,0-0.4c0-0.1,0-0.5,0-0.6c0-0.1-0.2-0.2-0.4-0.1
									c-0.2,0.1-0.4,0.6-0.4,0.7c0,0.2,0.1,0.7,0.3,0.9c0.2,0.2,0.3,0.3,0.5,0.4c0.1,0.1,0.2,0,0.3-0.1
									C54.3,17.7,54.2,17.5,54.2,17.5z"/>
								<path fill="#FFFFFF" d="M56.2,33.9c0,0-0.7-1.8-0.6-2.8c0.1-1,0.1-1.2,0.3-1.9c0.2-0.7,0.5-1.5,1.1-2.4
									c0.7-1.1,1.3-1.7,1.6-2.3c0.4-0.8,0.5-1.2,0.6-1.7c0.1-0.6-0.1-2.3-0.1-2.3s0.5,0.9,0.6,1.9c0.1,1-0.2,2-0.4,2.6
									c-0.2,0.5-1,1.6-1.2,2.1c-0.3,0.4-0.8,1.3-0.9,1.7c-0.1,0.4-0.5,1.6-0.7,2.2c-0.1,0.6-0.2,1.4-0.2,1.8
									C56.2,33,56.2,33.9,56.2,33.9z"/>
								<path fill="#FFFFFF" d="M94.6,30.6c0.1-0.3,0.2-0.5,0.4-0.6c0.2-0.1,0.2,0.1,0.3,0.3c0.1,0.3,0.1,0.5,0,0.8
									c0,0.3-0.3,1-0.4,1.1c-0.1,0.1-0.5,0-0.6-0.2c0-0.2,0-0.7,0.1-0.9C94.6,31,94.5,30.9,94.6,30.6z"/>
								<path fill="#FFFFFF" d="M88,21.1c0,0,0.1-0.7,0.4-0.7c0.4,0,0.9,0.2,1.4,0.5c0.5,0.3,0.8,0.8,0.9,1.1
									c0.2,0.3,0.2,0.8-0.1,0.9c-0.3,0.1-0.8-0.4-0.9-0.5c-0.2-0.2-0.8-0.4-1.1-0.5C88.4,21.7,88.1,21.4,88,21.1z"/>
								<path fill="#FFFFFF" d="M87.9,22.6c0.2-0.2,0.7-0.3,1.1-0.1c0.3,0.2,0.5,0.5,0.6,0.7c0.1,0.2,0.1,0.8,0,1
									c-0.1,0.1-0.5,0.1-0.8-0.1c-0.2-0.2-0.6-0.5-0.7-0.7C87.9,23.2,87.8,22.8,87.9,22.6z"/>
								<path fill="#FFFFFF" d="M90.2,23.5c0-0.2,0.3-0.4,0.6-0.3c0.3,0.1,0.9,0.6,1,0.8c0.2,0.2,0.2,0.6,0,0.9
									c-0.3,0.5-0.7,0.1-0.9-0.1c-0.2-0.2-0.6-0.7-0.6-0.9C90.2,23.8,90.2,23.7,90.2,23.5z"/>
								<path fill="#FFFFFF" d="M94.4,26.9c0-0.2,0.3-0.2,0.5,0c0.2,0.2,0.4,0.5,0.5,1c0,0.5-0.1,0.6-0.3,0.5
									c-0.2-0.1-0.6-0.3-0.6-0.5c-0.1-0.2,0-0.3,0-0.5C94.3,27.1,94.3,27.1,94.4,26.9z"/>
								<path fill="#FFFFFF" d="M92.6,24.7c0-0.1,0.1-0.5,0.2-0.7c0.2-0.2,0.4-0.1,0.7,0.2c0.3,0.3,0.4,0.7,0.4,0.8
									c0.1,0.2,0.2,0.6,0.1,0.8c0,0.2-0.5,0.2-0.6,0.1c-0.1-0.1-0.4-0.2-0.6-0.4C92.7,25.3,92.6,24.9,92.6,24.7z"/>
								<path fill="#FFFFFF" d="M89.3,25.7c-0.1-0.2-0.2-0.7,0.1-0.9c0.4-0.2,0.7,0.1,0.8,0.3c0.1,0.2,0.3,0.2,0.3,0.5
									c0,0.3-0.1,0.6,0,0.7c0.1,0.2,0,0.2-0.2,0.4c-0.2,0.1-0.4,0.1-0.6-0.2C89.5,26.1,89.4,25.8,89.3,25.7z"/>
								<path fill="#FFFFFF" d="M92,26.2c0-0.2,0.4-0.6,0.6-0.5c0.3,0.2,0.6,0.7,0.6,0.7s0.3,0.3,0.2,0.5c0,0.2-0.2,0.6-0.3,0.6
									c-0.1,0-0.2,0-0.4-0.1c-0.2-0.1-0.4-0.4-0.5-0.6C92.1,26.6,92,26.4,92,26.2z"/>
								<path fill="#FFFFFF" d="M90.6,28.1c0,0,0-0.5,0-0.8c0-0.3,0.2-0.4,0.4-0.5c0.2-0.1,0.3-0.1,0.5,0.1c0.2,0.2,0.3,0.7,0.3,0.9
									c0,0.2,0,0.9-0.2,1c-0.3,0.1-0.6,0-0.7-0.2C90.7,28.5,90.7,28.3,90.6,28.1z"/>
								<path fill="#FFFFFF" d="M93.4,28.9c-0.1-0.3,0.1-0.7,0.3-0.8c0.2-0.1,0.6,0.1,0.7,0.4c0.1,0.3,0.1,0.7,0,1
									c-0.1,0.2-0.1,0.4-0.3,0.4C93.6,29.7,93.4,28.9,93.4,28.9z"/>
								<path fill="#FFFFFF" d="M92.4,30.5c-0.1-0.3,0.1-0.8,0.4-0.8c0.4,0,0.5,0.1,0.6,0.4c0.1,0.3,0.2,0.5,0.2,0.7
									c0,0.1-0.1,0.6-0.1,0.6s-0.4,0.3-0.6,0.1c-0.2-0.2-0.3-0.4-0.4-0.6C92.4,30.8,92.4,30.7,92.4,30.5z"/>
								<path fill="#FFFFFF" d="M81.7,21.1c0.2-0.1,0.5-0.3,0.9-0.2c0.3,0.1,0.6,0.2,0.7,0.3c0.1,0.2,0.2,0.7,0.1,0.8
									c-0.1,0.1-0.4,0.3-0.6,0.2c-0.2-0.1-0.2-0.2-0.5-0.3c-0.2-0.1-0.2-0.1-0.5-0.2C81.5,21.8,81.5,21.2,81.7,21.1z"/>
								<path fill="#FFFFFF" d="M76.8,22c-0.1-0.1,0.1-0.5,0.3-0.6c0.2-0.1,0.5-0.1,0.8,0c0.3,0.1,0.5,0,0.8,0.1
									c0.3,0,0.4,0.3,0.5,0.5c0.1,0.2-0.2,0.5-0.3,0.7c-0.1,0.2-0.3,0.4-0.5,0.4c-0.3-0.1-0.4-0.3-0.6-0.3c-0.2,0-0.5-0.3-0.7-0.4
									C76.9,22.2,77,22.2,76.8,22z"/>
								<path fill="#FFFFFF" d="M79.6,22.3c-0.1-0.2,0.2-0.5,0.4-0.6c0.2-0.1,0.6,0,0.8,0.2c0.2,0.3,0.2,0.4,0.2,0.6
									c0,0.3,0,0.5-0.2,0.4c-0.2-0.1-0.2-0.2-0.6-0.3C79.9,22.7,79.7,22.5,79.6,22.3z"/>
								<path fill="#FFFFFF" d="M79.2,23.2c-0.1-0.2,0.1-0.3,0.3-0.4c0.2-0.1,0.6,0.1,0.7,0.2c0.1,0.1,0.3,0.4,0.2,0.6
									c0,0.2,0,0.6-0.2,0.6c-0.1,0.1-0.3,0-0.4-0.2c-0.2-0.1-0.4-0.4-0.5-0.6C79.2,23.4,79.3,23.4,79.2,23.2z"/>
								<path fill="#FFFFFF" d="M74.5,23.8c0,0,0-0.9,0.5-0.8c0.5,0.1,0.5,0.4,0.6,0.6c0.1,0.2,0,0.7,0,0.8c0.1,0.1,0.2,0.3,0.1,0.5
									c-0.1,0.2-0.5,0-0.7-0.2C74.9,24.4,74.8,24.2,74.5,23.8z"/>
								<path fill="#FFFFFF" d="M78.4,29.3c0.1-0.1-0.1-0.3-0.2-0.7c0-0.4-0.1-0.7-0.3-0.8c-0.2-0.1-0.3,0.1-0.5,0.3
									c-0.2,0.2-0.3,0.4-0.1,0.8c0.2,0.4,0.4,0.5,0.5,0.6C77.9,29.6,78.1,29.7,78.4,29.3z"/>
								<path fill="#FFFFFF" d="M76.4,24.7c0,0,0-0.6,0.3-0.8c0.2-0.2,0.6-0.2,0.7,0c0.1,0.1,0.1,0.4,0.2,0.7
									c0.1,0.3,0.2,0.6,0.2,0.8c0,0.2,0.2,0.7,0.1,0.8c-0.1,0.1-0.6,0.2-0.7,0c-0.1-0.1-0.7-0.2-0.8-0.5
									C76.3,25.4,76.4,24.9,76.4,24.7z"/>
								<path fill="#FFFFFF" d="M74.6,26.3c-0.2-0.3,0-0.7,0.4-0.8c0.3-0.1,0.6-0.3,0.7-0.2c0.1,0.1,0.3,0.5,0.4,0.8
									c0,0,0.3,0.8,0.2,1.1c-0.1,0.3-0.4,0.5-0.5,0.7c-0.1,0.2-0.6,0.5-0.7,0.2c-0.1-0.3-0.2-0.7-0.2-0.9
									C74.9,26.9,74.8,26.4,74.6,26.3z"/>
							</g>
						</g>
						<path fill="#FFFFFF" d="M56.2,10.1c-0.1-0.2-0.2-0.1-0.4,0c-0.1,0.1-0.1,0.2-0.3,0.4c-0.2,0.1-0.1,0.5-0.1,0.6
							c0,0.1-0.1,0.3-0.1,0.4c0,0.1-0.1,0.5-0.2,1c-0.1,0.7-0.5,2.1-0.6,2.3c0.1,0,0.3,0,0.3-0.1c0.1-0.1,0.2-0.5,0.4-0.9
							c0.2-0.4,0.6-1.8,0.8-2.7C56.3,10.3,56.3,10.2,56.2,10.1z"/>
					</g>
				</g>
				<path fill="#FFFFFF" d="M60.2,3.4c0.2,0.1,0.6,0.4,0.6,0.4s0.1,0,0.1-0.1c0-0.1-0.1-0.9,0-1.4c0.1-0.5,0.2-0.8,0.4-1.2
					c0.2-0.4,0.3-0.5,0.4-0.6c0.1,0,0.3,0.3,0.6,0.8c0.2,0.5,0.7,1.5,0.6,2.2c0,0.3-0.1,0.5-0.2,0.9C62.6,5.3,63,5.4,63,5.4
					s0.2-0.8,0.2-1c0.2-0.5,0.2-1.2,0.1-1.6c-0.1-0.3-0.4-1.1-0.6-1.5c-0.5-0.8-0.7-1.1-1-1.2c-0.2-0.1-0.3,0.1-0.3,0.1
					s-0.1,0.2-0.2,0.4c-0.1,0.2-0.4,0.7-0.6,1.2C60.5,2.2,60.3,3,60.3,3S60.1,2.9,60,2.8c-0.1,0-0.4-0.1-0.5-0.1
					c-0.3-0.1-0.8-0.1-1-0.1c-0.1,0-0.3,0-0.4,0.1c-0.1,0-0.2,0.1-0.2,0.1s-0.2-0.4-0.4-0.6c-0.1-0.2-0.3-0.6-0.4-0.8
					c-0.1-0.3-0.4-1.1-0.5-1.3c-0.1-0.2-0.2-0.1-0.3,0c0,0-0.2,0.1-0.4,0.3c-0.2,0.2-0.8,0.8-1,1.5C54.7,3,55,3.8,55,4
					c0,0.1,0.1,0.9,0.1,0.9c0,0,0.2,0.2,0.2-0.3c-0.1-0.6-0.1-0.6-0.1-1c0-0.4,0.2-1.1,0.4-1.5c0.1-0.3,0.5-0.8,0.6-0.9
					c0.1-0.1,0.2-0.4,0.3-0.3c0.1,0,0.1,0.5,0.4,1.2c0.1,0.2,0.6,1.3,0.6,1.3s-0.3,0.3-0.3,0.4c0,0.1,0.1-0.1,0.3-0.1
					c0.3-0.1,0.8-0.3,1.3-0.2C59.8,3.3,60.2,3.4,60.2,3.4z"/>
			</g>
			<path fill="#FFFFFF" d="M54.8,9.2c0.2,0,0.1-0.6-0.3-1.2C54.2,7.3,54,8.5,54,8.5s0,0.4,0.1,0.5C54.3,9.1,54.6,9.2,54.8,9.2z
				 M62,8.6c-0.4,0-0.7,0.2-0.8,0.4c-0.1,0.2-0.3,0.9,0.4,0.9c0,0,0.2,0,0.5-0.4C62.4,9.1,62.4,8.6,62,8.6z"/>
		</g>
	</g>
</g>
</svg>
